M48
;DRILL file {KiCad 4.0.6-e0-6349~53~ubuntu16.04.1} date Mon Aug 21 19:17:08 2017
;FORMAT={2:4/ absolute / inch / suppress leading zeros}
FMAT,2
INCH,TZ
T1C0.030
T2C0.031
T3C0.035
T4C0.040
T5C0.040
T6C0.043
T7C0.047
T8C0.100
T9C0.126
T10C0.138
%
G90
G05
M72
T1
X63764Y-26969
X64764Y-26969
X65764Y-26969
T2
X58465Y-31693
X58465Y-34252
X58858Y-36795
X58858Y-37795
X58858Y-38795
X58858Y-39795
X61858Y-36795
X61858Y-37795
X61858Y-38795
X61858Y-39795
X62465Y-31693
X62465Y-34252
T3
X53740Y-30315
X53740Y-31315
X53740Y-32315
T4
X55118Y-37386
X55118Y-38386
X55118Y-39386
X56118Y-37386
X56118Y-38386
X56118Y-39386
T5
X64540Y-35870
X64540Y-40870
T6
X58465Y-29134
X62465Y-29134
T7
X58413Y-44488
X58465Y-42871
T8
X60433Y-42871
X60433Y-44488
X62402Y-42871
X62402Y-44446
T9
X53740Y-27165
X53740Y-44488
X83465Y-27165
X83465Y-44488
T10
X73880Y-31620
X73880Y-40870
T0
M30
