G04 #@! TF.FileFunction,Soldermask,Bot*
%FSLAX46Y46*%
G04 Gerber Fmt 4.6, Leading zero omitted, Abs format (unit mm)*
G04 Created by KiCad (PCBNEW 4.0.6-e0-6349~53~ubuntu16.04.1) date Mon Aug 21 19:14:56 2017*
%MOMM*%
%LPD*%
G01*
G04 APERTURE LIST*
%ADD10C,0.100000*%
%ADD11R,2.400000X2.400000*%
%ADD12C,2.400000*%
%ADD13C,3.900000*%
%ADD14R,2.127200X2.127200*%
%ADD15O,2.127200X2.127200*%
%ADD16C,3.400000*%
%ADD17C,2.940000*%
%ADD18C,3.600000*%
%ADD19R,2.200000X2.200000*%
%ADD20C,2.200000*%
%ADD21R,2.000000X2.000000*%
%ADD22O,2.000000X2.000000*%
%ADD23R,2.600000X2.600000*%
%ADD24O,2.600000X2.600000*%
%ADD25C,2.000000*%
%ADD26C,1.924000*%
G04 APERTURE END LIST*
D10*
D11*
X163931600Y-103809800D03*
D12*
X163931600Y-91109800D03*
D13*
X187655200Y-80314800D03*
X187655200Y-103809800D03*
D14*
X142540000Y-100040000D03*
D15*
X140000000Y-100040000D03*
X142540000Y-97500000D03*
X140000000Y-97500000D03*
X142540000Y-94960000D03*
X140000000Y-94960000D03*
D16*
X148500000Y-108893200D03*
X148369200Y-113000000D03*
D17*
X153500000Y-113000000D03*
X158500000Y-112893200D03*
X153500000Y-108893200D03*
X158500000Y-108893200D03*
D18*
X136500000Y-69000000D03*
X212000000Y-69000000D03*
X136500000Y-113000000D03*
X212000000Y-113000000D03*
D19*
X136500000Y-77000000D03*
D20*
X136500000Y-79540000D03*
X136500000Y-82080000D03*
D21*
X149500000Y-93460000D03*
D22*
X157120000Y-101080000D03*
X149500000Y-96000000D03*
X157120000Y-98540000D03*
X149500000Y-98540000D03*
X157120000Y-96000000D03*
X149500000Y-101080000D03*
X157120000Y-93460000D03*
D23*
X158660000Y-74000000D03*
D24*
X148500000Y-74000000D03*
D25*
X148500000Y-80500000D03*
D22*
X158660000Y-80500000D03*
D25*
X158660000Y-87000000D03*
D22*
X148500000Y-87000000D03*
D26*
X167040000Y-68500000D03*
X164500000Y-68500000D03*
X161960000Y-68500000D03*
M02*
