G04 #@! TF.FileFunction,Copper,L1,Top,Signal*
%FSLAX46Y46*%
G04 Gerber Fmt 4.6, Leading zero omitted, Abs format (unit mm)*
G04 Created by KiCad (PCBNEW 4.0.6-e0-6349~53~ubuntu16.04.1) date Mon Aug 21 19:14:55 2017*
%MOMM*%
%LPD*%
G01*
G04 APERTURE LIST*
%ADD10C,0.100000*%
%ADD11R,2.000000X2.000000*%
%ADD12C,2.000000*%
%ADD13R,1.727200X1.727200*%
%ADD14O,1.727200X1.727200*%
%ADD15C,3.000000*%
%ADD16C,2.540000*%
%ADD17R,5.000000X3.000000*%
%ADD18R,1.800000X1.800000*%
%ADD19C,1.800000*%
%ADD20R,1.600000X1.600000*%
%ADD21O,1.600000X1.600000*%
%ADD22R,2.200000X2.200000*%
%ADD23O,2.200000X2.200000*%
%ADD24C,1.600000*%
%ADD25C,1.524000*%
%ADD26C,0.500000*%
%ADD27C,0.254000*%
G04 APERTURE END LIST*
D10*
D11*
X163931600Y-103809800D03*
D12*
X163931600Y-91109800D03*
D13*
X142540000Y-100040000D03*
D14*
X140000000Y-100040000D03*
X142540000Y-97500000D03*
X140000000Y-97500000D03*
X142540000Y-94960000D03*
X140000000Y-94960000D03*
D15*
X148500000Y-108893200D03*
X148369200Y-113000000D03*
D16*
X153500000Y-113000000D03*
X158500000Y-112893200D03*
X153500000Y-108893200D03*
X158500000Y-108893200D03*
D17*
X143500000Y-73000000D03*
X143500000Y-82000000D03*
X143500000Y-86500000D03*
X143500000Y-77500000D03*
D18*
X136500000Y-77000000D03*
D19*
X136500000Y-79540000D03*
X136500000Y-82080000D03*
D20*
X149500000Y-93460000D03*
D21*
X157120000Y-101080000D03*
X149500000Y-96000000D03*
X157120000Y-98540000D03*
X149500000Y-98540000D03*
X157120000Y-96000000D03*
X149500000Y-101080000D03*
X157120000Y-93460000D03*
D22*
X158660000Y-74000000D03*
D23*
X148500000Y-74000000D03*
D24*
X148500000Y-80500000D03*
D21*
X158660000Y-80500000D03*
D24*
X158660000Y-87000000D03*
D21*
X148500000Y-87000000D03*
D25*
X167040000Y-68500000D03*
X164500000Y-68500000D03*
X161960000Y-68500000D03*
D26*
X163931600Y-103809800D02*
X163973616Y-103809800D01*
X163973616Y-103809800D02*
X168000000Y-99783416D01*
X168000000Y-99783416D02*
X168000000Y-72000000D01*
X168000000Y-72000000D02*
X164500000Y-68500000D01*
X143500000Y-86500000D02*
X142500000Y-86500000D01*
X148500000Y-108893200D02*
X148500139Y-108893200D01*
X148500139Y-108893200D02*
X155348969Y-102044370D01*
X155348969Y-102044370D02*
X155348969Y-100311031D01*
X155348969Y-100311031D02*
X157120000Y-98540000D01*
X157120000Y-98540000D02*
X157106943Y-98526943D01*
X142540000Y-100040000D02*
X142540000Y-102933200D01*
X142540000Y-102933200D02*
X148500000Y-108893200D01*
X150120000Y-103000000D02*
X157120000Y-96000000D01*
X147833396Y-103000000D02*
X150120000Y-103000000D01*
X146520164Y-101686768D02*
X147833396Y-103000000D01*
X146520164Y-99833409D02*
X146520164Y-101686768D01*
X144186755Y-97500000D02*
X146520164Y-99833409D01*
X142540000Y-97500000D02*
X144186755Y-97500000D01*
X143500000Y-77500000D02*
X149000000Y-77500000D01*
X149000000Y-77500000D02*
X154500000Y-83000000D01*
X154500000Y-93380000D02*
X157120000Y-96000000D01*
X154500000Y-83000000D02*
X154500000Y-93380000D01*
X143766682Y-91733318D02*
X148500000Y-87000000D01*
X138766682Y-91733318D02*
X143766682Y-91733318D01*
X137000000Y-93500000D02*
X138766682Y-91733318D01*
X137000000Y-96500000D02*
X137000000Y-93500000D01*
X138000000Y-97500000D02*
X137000000Y-96500000D01*
X140000000Y-97500000D02*
X138000000Y-97500000D01*
X149500000Y-93460000D02*
X149500000Y-93438781D01*
X149500000Y-93438781D02*
X151000000Y-91938781D01*
X151000000Y-91938781D02*
X151000000Y-83000000D01*
X151000000Y-83000000D02*
X148500000Y-80500000D01*
X142540000Y-94960000D02*
X144040000Y-93460000D01*
X144040000Y-93460000D02*
X149500000Y-93460000D01*
X134949999Y-75050001D02*
X137000000Y-73000000D01*
X137000000Y-73000000D02*
X143500000Y-73000000D01*
X136500000Y-82080000D02*
X134949999Y-80529999D01*
X134949999Y-80529999D02*
X134949999Y-75050001D01*
X158660000Y-80500000D02*
X158660000Y-80594210D01*
X157120000Y-82134210D02*
X157120000Y-93460000D01*
X158660000Y-80594210D02*
X157120000Y-82134210D01*
X158660000Y-74000000D02*
X154548786Y-74000000D01*
X154548786Y-74000000D02*
X152798785Y-75750001D01*
X147169981Y-75750001D02*
X143919980Y-72500000D01*
X152798785Y-75750001D02*
X147169981Y-75750001D01*
X143919980Y-72500000D02*
X143500000Y-72500000D01*
X158660000Y-74000000D02*
X158660000Y-80500000D01*
X143500000Y-82000000D02*
X144500000Y-82000000D01*
X144500000Y-82000000D02*
X147706908Y-78793092D01*
X147706908Y-78793092D02*
X148939094Y-78793092D01*
X148939094Y-78793092D02*
X152500000Y-82353998D01*
X152500000Y-82353998D02*
X152500000Y-95540000D01*
X152500000Y-95540000D02*
X149500000Y-98540000D01*
X158660000Y-87000000D02*
X158660000Y-102088727D01*
X151199458Y-110169742D02*
X149869199Y-111500001D01*
X158660000Y-102088727D02*
X157575713Y-103173014D01*
X157575713Y-103173014D02*
X155826986Y-103173014D01*
X155826986Y-103173014D02*
X151199458Y-107800542D01*
X151199458Y-107800542D02*
X151199458Y-110169742D01*
X149869199Y-111500001D02*
X148369200Y-113000000D01*
X161960000Y-68500000D02*
X154000000Y-68500000D01*
X154000000Y-68500000D02*
X148500000Y-74000000D01*
D27*
X134569930Y-66710000D02*
X213930070Y-66710000D01*
X134241175Y-66913200D02*
X135697774Y-66913200D01*
X137302488Y-66913200D02*
X211197774Y-66913200D01*
X212802488Y-66913200D02*
X214258824Y-66913200D01*
X134210000Y-67116400D02*
X135223362Y-67116400D01*
X137777698Y-67116400D02*
X161650323Y-67116400D01*
X162270786Y-67116400D02*
X164190323Y-67116400D01*
X164810786Y-67116400D02*
X166730323Y-67116400D01*
X167350786Y-67116400D02*
X210723362Y-67116400D01*
X213277698Y-67116400D02*
X214290000Y-67116400D01*
X134210000Y-67319600D02*
X135019807Y-67319600D01*
X137980543Y-67319600D02*
X161165079Y-67319600D01*
X162755594Y-67319600D02*
X163705079Y-67319600D01*
X165295594Y-67319600D02*
X166245079Y-67319600D01*
X167835594Y-67319600D02*
X210519807Y-67319600D01*
X213480543Y-67319600D02*
X214290000Y-67319600D01*
X134210000Y-67522800D02*
X134816252Y-67522800D01*
X138183389Y-67522800D02*
X160961525Y-67522800D01*
X162958439Y-67522800D02*
X163501524Y-67522800D01*
X165498439Y-67522800D02*
X166041524Y-67522800D01*
X168038439Y-67522800D02*
X210316252Y-67522800D01*
X213683389Y-67522800D02*
X214290000Y-67522800D01*
X134210000Y-67726000D02*
X134612697Y-67726000D01*
X138386234Y-67726000D02*
X153596024Y-67726000D01*
X163151747Y-67726000D02*
X163308744Y-67726000D01*
X165691747Y-67726000D02*
X165848744Y-67726000D01*
X168231747Y-67726000D02*
X210112697Y-67726000D01*
X213886234Y-67726000D02*
X214290000Y-67726000D01*
X134210000Y-67929200D02*
X134524613Y-67929200D01*
X138475828Y-67929200D02*
X153319221Y-67929200D01*
X168315707Y-67929200D02*
X210024613Y-67929200D01*
X213975828Y-67929200D02*
X214290000Y-67929200D01*
X134210000Y-68132400D02*
X134440237Y-68132400D01*
X138559789Y-68132400D02*
X153116021Y-68132400D01*
X168399667Y-68132400D02*
X209940237Y-68132400D01*
X214059789Y-68132400D02*
X214290000Y-68132400D01*
X134210000Y-68335600D02*
X134355861Y-68335600D01*
X138643749Y-68335600D02*
X152912821Y-68335600D01*
X168437144Y-68335600D02*
X209855861Y-68335600D01*
X214143749Y-68335600D02*
X214290000Y-68335600D01*
X134210000Y-68538800D02*
X134271486Y-68538800D01*
X138727710Y-68538800D02*
X152709621Y-68538800D01*
X168436966Y-68538800D02*
X209771486Y-68538800D01*
X214227710Y-68538800D02*
X214290000Y-68538800D01*
X134210000Y-68742000D02*
X134265225Y-68742000D01*
X138735225Y-68742000D02*
X152506421Y-68742000D01*
X168436789Y-68742000D02*
X209765225Y-68742000D01*
X214235225Y-68742000D02*
X214290000Y-68742000D01*
X134210000Y-68945200D02*
X134265048Y-68945200D01*
X138735048Y-68945200D02*
X152303221Y-68945200D01*
X168367786Y-68945200D02*
X209765048Y-68945200D01*
X214235048Y-68945200D02*
X214290000Y-68945200D01*
X134210000Y-69148400D02*
X134264870Y-69148400D01*
X138734871Y-69148400D02*
X152100021Y-69148400D01*
X163203410Y-69148400D02*
X163256356Y-69148400D01*
X168283410Y-69148400D02*
X209764870Y-69148400D01*
X214234871Y-69148400D02*
X214290000Y-69148400D01*
X134210000Y-69351600D02*
X134264693Y-69351600D01*
X138734693Y-69351600D02*
X151896821Y-69351600D01*
X163084295Y-69351600D02*
X163376180Y-69351600D01*
X168164295Y-69351600D02*
X209764693Y-69351600D01*
X214234693Y-69351600D02*
X214290000Y-69351600D01*
X134210000Y-69554800D02*
X134310965Y-69554800D01*
X138689648Y-69554800D02*
X151693621Y-69554800D01*
X154196779Y-69554800D02*
X161039025Y-69554800D01*
X162880740Y-69554800D02*
X163579025Y-69554800D01*
X167960740Y-69554800D02*
X209810965Y-69554800D01*
X214189648Y-69554800D02*
X214290000Y-69554800D01*
X134210000Y-69758000D02*
X134394925Y-69758000D01*
X138605272Y-69758000D02*
X151490421Y-69758000D01*
X153993579Y-69758000D02*
X161346735Y-69758000D01*
X162573653Y-69758000D02*
X163886735Y-69758000D01*
X167653653Y-69758000D02*
X209894925Y-69758000D01*
X214105272Y-69758000D02*
X214290000Y-69758000D01*
X134210000Y-69961200D02*
X134478886Y-69961200D01*
X138520897Y-69961200D02*
X151287221Y-69961200D01*
X153790379Y-69961200D02*
X164709620Y-69961200D01*
X167212780Y-69961200D02*
X209978886Y-69961200D01*
X214020897Y-69961200D02*
X214290000Y-69961200D01*
X134210000Y-70164400D02*
X134562847Y-70164400D01*
X138436521Y-70164400D02*
X151084021Y-70164400D01*
X153587179Y-70164400D02*
X164912820Y-70164400D01*
X167415980Y-70164400D02*
X210062847Y-70164400D01*
X213936521Y-70164400D02*
X214290000Y-70164400D01*
X134210000Y-70367600D02*
X134707202Y-70367600D01*
X138293540Y-70367600D02*
X150880821Y-70367600D01*
X153383979Y-70367600D02*
X165116020Y-70367600D01*
X167619180Y-70367600D02*
X210207202Y-70367600D01*
X213793540Y-70367600D02*
X214290000Y-70367600D01*
X134210000Y-70570800D02*
X134910048Y-70570800D01*
X138089985Y-70570800D02*
X150677621Y-70570800D01*
X153180779Y-70570800D02*
X165319220Y-70570800D01*
X167822380Y-70570800D02*
X210410048Y-70570800D01*
X213589985Y-70570800D02*
X214290000Y-70570800D01*
X134210000Y-70774000D02*
X135112893Y-70774000D01*
X137886429Y-70774000D02*
X150474421Y-70774000D01*
X152977579Y-70774000D02*
X165522420Y-70774000D01*
X168025580Y-70774000D02*
X210612893Y-70774000D01*
X213386429Y-70774000D02*
X214290000Y-70774000D01*
X134210000Y-70977200D02*
X135433565Y-70977200D01*
X137567478Y-70977200D02*
X140639797Y-70977200D01*
X146359653Y-70977200D02*
X150271221Y-70977200D01*
X152774379Y-70977200D02*
X165725620Y-70977200D01*
X168228780Y-70977200D02*
X210933565Y-70977200D01*
X213067478Y-70977200D02*
X214290000Y-70977200D01*
X134210000Y-71180400D02*
X135922926Y-71180400D01*
X137075697Y-71180400D02*
X140449834Y-71180400D01*
X146548928Y-71180400D02*
X150068021Y-71180400D01*
X152571179Y-71180400D02*
X165928820Y-71180400D01*
X168431980Y-71180400D02*
X211422926Y-71180400D01*
X212575697Y-71180400D02*
X214290000Y-71180400D01*
X134210000Y-71383600D02*
X140376132Y-71383600D01*
X146625538Y-71383600D02*
X149864821Y-71383600D01*
X152367979Y-71383600D02*
X166132020Y-71383600D01*
X168632065Y-71383600D02*
X214290000Y-71383600D01*
X134210000Y-71586800D02*
X140352560Y-71586800D01*
X146647440Y-71586800D02*
X149661621Y-71586800D01*
X152164779Y-71586800D02*
X166335220Y-71586800D01*
X168767838Y-71586800D02*
X214290000Y-71586800D01*
X134210000Y-71790000D02*
X140352560Y-71790000D01*
X146647440Y-71790000D02*
X149458421Y-71790000D01*
X151961579Y-71790000D02*
X166538420Y-71790000D01*
X168843229Y-71790000D02*
X214290000Y-71790000D01*
X134210000Y-71993200D02*
X140352560Y-71993200D01*
X146647440Y-71993200D02*
X149255221Y-71993200D01*
X151758379Y-71993200D02*
X166741620Y-71993200D01*
X168883648Y-71993200D02*
X214290000Y-71993200D01*
X134210000Y-72196400D02*
X136640324Y-72196400D01*
X146647440Y-72196400D02*
X149052021Y-72196400D01*
X151555179Y-72196400D02*
X166944820Y-72196400D01*
X168885000Y-72196400D02*
X214290000Y-72196400D01*
X134210000Y-72399600D02*
X136348821Y-72399600D01*
X146647440Y-72399600D02*
X147798266Y-72399600D01*
X151351979Y-72399600D02*
X157164987Y-72399600D01*
X160152437Y-72399600D02*
X167115000Y-72399600D01*
X168885000Y-72399600D02*
X214290000Y-72399600D01*
X134210000Y-72602800D02*
X136145621Y-72602800D01*
X146647440Y-72602800D02*
X147494156Y-72602800D01*
X151148779Y-72602800D02*
X156994528Y-72602800D01*
X160323342Y-72602800D02*
X167115000Y-72602800D01*
X168885000Y-72602800D02*
X214290000Y-72602800D01*
X134210000Y-72806000D02*
X135942421Y-72806000D01*
X146647440Y-72806000D02*
X147217243Y-72806000D01*
X150945579Y-72806000D02*
X156931596Y-72806000D01*
X160389753Y-72806000D02*
X167115000Y-72806000D01*
X168885000Y-72806000D02*
X214290000Y-72806000D01*
X134210000Y-73009200D02*
X135739221Y-73009200D01*
X146647440Y-73009200D02*
X147081469Y-73009200D01*
X150742379Y-73009200D02*
X156912560Y-73009200D01*
X160407440Y-73009200D02*
X167115000Y-73009200D01*
X168885000Y-73009200D02*
X214290000Y-73009200D01*
X134210000Y-73212400D02*
X135536021Y-73212400D01*
X146647440Y-73212400D02*
X146945695Y-73212400D01*
X150539179Y-73212400D02*
X154165164Y-73212400D01*
X160407440Y-73212400D02*
X167115000Y-73212400D01*
X168885000Y-73212400D02*
X214290000Y-73212400D01*
X134210000Y-73415600D02*
X135332821Y-73415600D01*
X146647440Y-73415600D02*
X146847254Y-73415600D01*
X150335979Y-73415600D02*
X153881607Y-73415600D01*
X160407440Y-73415600D02*
X167115000Y-73415600D01*
X168885000Y-73415600D02*
X214290000Y-73415600D01*
X134210000Y-73618800D02*
X135129621Y-73618800D01*
X146647440Y-73618800D02*
X146806835Y-73618800D01*
X150193166Y-73618800D02*
X153678407Y-73618800D01*
X160407440Y-73618800D02*
X167115000Y-73618800D01*
X168885000Y-73618800D02*
X214290000Y-73618800D01*
X134210000Y-73822000D02*
X134926421Y-73822000D01*
X146647440Y-73822000D02*
X146766416Y-73822000D01*
X150233585Y-73822000D02*
X153475207Y-73822000D01*
X160407440Y-73822000D02*
X167115000Y-73822000D01*
X168885000Y-73822000D02*
X214290000Y-73822000D01*
X134210000Y-74025200D02*
X134723221Y-74025200D01*
X137226379Y-74025200D02*
X140352560Y-74025200D01*
X146696760Y-74025200D02*
X146736021Y-74025200D01*
X150263978Y-74025200D02*
X153272007Y-74025200D01*
X160407440Y-74025200D02*
X167115000Y-74025200D01*
X168885000Y-74025200D02*
X214290000Y-74025200D01*
X134210000Y-74228400D02*
X134520021Y-74228400D01*
X137023179Y-74228400D02*
X140352560Y-74228400D01*
X150223559Y-74228400D02*
X153068807Y-74228400D01*
X160407440Y-74228400D02*
X167115000Y-74228400D01*
X168885000Y-74228400D02*
X214290000Y-74228400D01*
X134210000Y-74431600D02*
X134319272Y-74431600D01*
X136819979Y-74431600D02*
X140352560Y-74431600D01*
X150183140Y-74431600D02*
X152865607Y-74431600D01*
X160407440Y-74431600D02*
X167115000Y-74431600D01*
X168885000Y-74431600D02*
X214290000Y-74431600D01*
X136616779Y-74634800D02*
X140377924Y-74634800D01*
X150142721Y-74634800D02*
X152662407Y-74634800D01*
X160407440Y-74634800D02*
X167115000Y-74634800D01*
X168885000Y-74634800D02*
X214290000Y-74634800D01*
X136413579Y-74838000D02*
X140462912Y-74838000D01*
X150020629Y-74838000D02*
X152459207Y-74838000D01*
X160407440Y-74838000D02*
X167115000Y-74838000D01*
X168885000Y-74838000D02*
X214290000Y-74838000D01*
X136210379Y-75041200D02*
X140667276Y-75041200D01*
X160407440Y-75041200D02*
X167115000Y-75041200D01*
X168885000Y-75041200D02*
X214290000Y-75041200D01*
X136007179Y-75244400D02*
X145412801Y-75244400D01*
X160378198Y-75244400D02*
X167115000Y-75244400D01*
X168885000Y-75244400D02*
X214290000Y-75244400D01*
X135834999Y-75447600D02*
X140685797Y-75447600D01*
X160291035Y-75447600D02*
X167115000Y-75447600D01*
X168885000Y-75447600D02*
X214290000Y-75447600D01*
X137865533Y-75650800D02*
X140470059Y-75650800D01*
X160076689Y-75650800D02*
X167115000Y-75650800D01*
X168885000Y-75650800D02*
X214290000Y-75650800D01*
X137996288Y-75854000D02*
X140382126Y-75854000D01*
X159545000Y-75854000D02*
X167115000Y-75854000D01*
X168885000Y-75854000D02*
X214290000Y-75854000D01*
X138039387Y-76057200D02*
X140352560Y-76057200D01*
X159545000Y-76057200D02*
X167115000Y-76057200D01*
X168885000Y-76057200D02*
X214290000Y-76057200D01*
X138047440Y-76260400D02*
X140352560Y-76260400D01*
X159545000Y-76260400D02*
X167115000Y-76260400D01*
X168885000Y-76260400D02*
X214290000Y-76260400D01*
X138047440Y-76463600D02*
X140352560Y-76463600D01*
X159545000Y-76463600D02*
X167115000Y-76463600D01*
X168885000Y-76463600D02*
X214290000Y-76463600D01*
X138047440Y-76666800D02*
X140352560Y-76666800D01*
X159545000Y-76666800D02*
X167115000Y-76666800D01*
X168885000Y-76666800D02*
X214290000Y-76666800D01*
X138047440Y-76870000D02*
X140352560Y-76870000D01*
X159545000Y-76870000D02*
X167115000Y-76870000D01*
X168885000Y-76870000D02*
X214290000Y-76870000D01*
X138047440Y-77073200D02*
X140352560Y-77073200D01*
X159545000Y-77073200D02*
X167115000Y-77073200D01*
X168885000Y-77073200D02*
X214290000Y-77073200D01*
X138047440Y-77276400D02*
X140352560Y-77276400D01*
X159545000Y-77276400D02*
X167115000Y-77276400D01*
X168885000Y-77276400D02*
X214290000Y-77276400D01*
X138047440Y-77479600D02*
X140352560Y-77479600D01*
X159545000Y-77479600D02*
X167115000Y-77479600D01*
X168885000Y-77479600D02*
X214290000Y-77479600D01*
X138047440Y-77682800D02*
X140352560Y-77682800D01*
X159545000Y-77682800D02*
X167115000Y-77682800D01*
X168885000Y-77682800D02*
X214290000Y-77682800D01*
X138047440Y-77886000D02*
X140352560Y-77886000D01*
X159545000Y-77886000D02*
X167115000Y-77886000D01*
X168885000Y-77886000D02*
X214290000Y-77886000D01*
X138009126Y-78089200D02*
X140352560Y-78089200D01*
X159545000Y-78089200D02*
X167115000Y-78089200D01*
X168885000Y-78089200D02*
X186796098Y-78089200D01*
X188514566Y-78089200D02*
X214290000Y-78089200D01*
X137927208Y-78292400D02*
X140352560Y-78292400D01*
X159545000Y-78292400D02*
X167115000Y-78292400D01*
X168885000Y-78292400D02*
X186305286Y-78292400D01*
X189003927Y-78292400D02*
X214290000Y-78292400D01*
X138287761Y-78495600D02*
X140352560Y-78495600D01*
X159545000Y-78495600D02*
X167115000Y-78495600D01*
X168885000Y-78495600D02*
X186101731Y-78495600D01*
X189209133Y-78495600D02*
X214290000Y-78495600D01*
X138371929Y-78698800D02*
X140352560Y-78698800D01*
X159545000Y-78698800D02*
X167115000Y-78698800D01*
X168885000Y-78698800D02*
X185898176Y-78698800D01*
X189411979Y-78698800D02*
X214290000Y-78698800D01*
X138456097Y-78902000D02*
X140352560Y-78902000D01*
X159545000Y-78902000D02*
X167115000Y-78902000D01*
X168885000Y-78902000D02*
X185694621Y-78902000D01*
X189614824Y-78902000D02*
X214290000Y-78902000D01*
X138534030Y-79105200D02*
X140372354Y-79105200D01*
X159545000Y-79105200D02*
X167115000Y-79105200D01*
X168885000Y-79105200D02*
X185575030Y-79105200D01*
X189735978Y-79105200D02*
X214290000Y-79105200D01*
X138538448Y-79308400D02*
X140443865Y-79308400D01*
X159545000Y-79308400D02*
X167115000Y-79308400D01*
X168885000Y-79308400D02*
X185490654Y-79308400D01*
X189819938Y-79308400D02*
X214290000Y-79308400D01*
X136320511Y-79511600D02*
X136679490Y-79511600D01*
X138542865Y-79511600D02*
X140623955Y-79511600D01*
X159720383Y-79511600D02*
X167115000Y-79511600D01*
X168885000Y-79511600D02*
X185406278Y-79511600D01*
X189903899Y-79511600D02*
X214290000Y-79511600D01*
X136466910Y-79714800D02*
X136854405Y-79714800D01*
X138547283Y-79714800D02*
X145533621Y-79714800D01*
X159856157Y-79714800D02*
X167115000Y-79714800D01*
X168885000Y-79714800D02*
X185321903Y-79714800D01*
X189987859Y-79714800D02*
X214290000Y-79714800D01*
X136698395Y-79918000D02*
X137057605Y-79918000D01*
X138545078Y-79918000D02*
X140731797Y-79918000D01*
X159991931Y-79918000D02*
X167115000Y-79918000D01*
X168885000Y-79918000D02*
X185270546Y-79918000D01*
X190040547Y-79918000D02*
X214290000Y-79918000D01*
X136901595Y-80121200D02*
X137260805Y-80121200D01*
X138466039Y-80121200D02*
X140490283Y-80121200D01*
X160047765Y-80121200D02*
X167115000Y-80121200D01*
X168885000Y-80121200D02*
X185270369Y-80121200D01*
X190040369Y-80121200D02*
X214290000Y-80121200D01*
X137104795Y-80324400D02*
X137464005Y-80324400D01*
X138387001Y-80324400D02*
X140388120Y-80324400D01*
X160088184Y-80324400D02*
X167115000Y-80324400D01*
X168885000Y-80324400D02*
X185270191Y-80324400D01*
X190040192Y-80324400D02*
X214290000Y-80324400D01*
X137307995Y-80527600D02*
X137667205Y-80527600D01*
X138307962Y-80527600D02*
X140352560Y-80527600D01*
X160117623Y-80527600D02*
X167115000Y-80527600D01*
X168885000Y-80527600D02*
X185270014Y-80527600D01*
X190040015Y-80527600D02*
X214290000Y-80527600D01*
X137511195Y-80730800D02*
X140352560Y-80730800D01*
X160077203Y-80730800D02*
X167115000Y-80730800D01*
X168885000Y-80730800D02*
X185269837Y-80730800D01*
X190039837Y-80730800D02*
X214290000Y-80730800D01*
X137672532Y-80934000D02*
X140352560Y-80934000D01*
X160036784Y-80934000D02*
X167115000Y-80934000D01*
X168885000Y-80934000D02*
X185330474Y-80934000D01*
X189980525Y-80934000D02*
X214290000Y-80934000D01*
X134210000Y-81137200D02*
X134311788Y-81137200D01*
X137727769Y-81137200D02*
X140352560Y-81137200D01*
X159955047Y-81137200D02*
X167115000Y-81137200D01*
X168885000Y-81137200D02*
X185414434Y-81137200D01*
X189896149Y-81137200D02*
X214290000Y-81137200D01*
X134210000Y-81340400D02*
X134508820Y-81340400D01*
X137855276Y-81340400D02*
X140352560Y-81340400D01*
X159819273Y-81340400D02*
X167115000Y-81340400D01*
X168885000Y-81340400D02*
X185498395Y-81340400D01*
X189811773Y-81340400D02*
X214290000Y-81340400D01*
X134210000Y-81543600D02*
X134712020Y-81543600D01*
X137939236Y-81543600D02*
X140352560Y-81543600D01*
X159659556Y-81543600D02*
X167115000Y-81543600D01*
X168885000Y-81543600D02*
X185582355Y-81543600D01*
X189727397Y-81543600D02*
X214290000Y-81543600D01*
X134210000Y-81746800D02*
X134915220Y-81746800D01*
X138023197Y-81746800D02*
X140352560Y-81746800D01*
X159355446Y-81746800D02*
X167115000Y-81746800D01*
X168885000Y-81746800D02*
X185714742Y-81746800D01*
X189596545Y-81746800D02*
X214290000Y-81746800D01*
X134210000Y-81950000D02*
X134965114Y-81950000D01*
X138035113Y-81950000D02*
X140352560Y-81950000D01*
X158555789Y-81950000D02*
X167115000Y-81950000D01*
X168885000Y-81950000D02*
X185917588Y-81950000D01*
X189392990Y-81950000D02*
X214290000Y-81950000D01*
X134210000Y-82153200D02*
X134964937Y-82153200D01*
X138034936Y-82153200D02*
X140352560Y-82153200D01*
X158352589Y-82153200D02*
X167115000Y-82153200D01*
X168885000Y-82153200D02*
X186120433Y-82153200D01*
X189189435Y-82153200D02*
X214290000Y-82153200D01*
X134210000Y-82356400D02*
X134964760Y-82356400D01*
X138034759Y-82356400D02*
X140352560Y-82356400D01*
X158149389Y-82356400D02*
X167115000Y-82356400D01*
X168885000Y-82356400D02*
X186352712Y-82356400D01*
X188959616Y-82356400D02*
X214290000Y-82356400D01*
X134210000Y-82559600D02*
X135037295Y-82559600D01*
X137962926Y-82559600D02*
X140352560Y-82559600D01*
X158005000Y-82559600D02*
X167115000Y-82559600D01*
X168885000Y-82559600D02*
X186842072Y-82559600D01*
X188467834Y-82559600D02*
X214290000Y-82559600D01*
X134210000Y-82762800D02*
X135121255Y-82762800D01*
X137878550Y-82762800D02*
X140352560Y-82762800D01*
X158005000Y-82762800D02*
X167115000Y-82762800D01*
X168885000Y-82762800D02*
X214290000Y-82762800D01*
X134210000Y-82966000D02*
X135215530Y-82966000D01*
X137785167Y-82966000D02*
X140352560Y-82966000D01*
X158005000Y-82966000D02*
X167115000Y-82966000D01*
X168885000Y-82966000D02*
X214290000Y-82966000D01*
X134210000Y-83169200D02*
X135418375Y-83169200D01*
X137581611Y-83169200D02*
X140352560Y-83169200D01*
X158005000Y-83169200D02*
X167115000Y-83169200D01*
X168885000Y-83169200D02*
X214290000Y-83169200D01*
X134210000Y-83372400D02*
X135621220Y-83372400D01*
X137378055Y-83372400D02*
X140352560Y-83372400D01*
X158005000Y-83372400D02*
X167115000Y-83372400D01*
X168885000Y-83372400D02*
X214290000Y-83372400D01*
X134210000Y-83575600D02*
X136099087Y-83575600D01*
X136899987Y-83575600D02*
X140366785Y-83575600D01*
X158005000Y-83575600D02*
X167115000Y-83575600D01*
X168885000Y-83575600D02*
X214290000Y-83575600D01*
X134210000Y-83778800D02*
X140424818Y-83778800D01*
X158005000Y-83778800D02*
X167115000Y-83778800D01*
X168885000Y-83778800D02*
X214290000Y-83778800D01*
X134210000Y-83982000D02*
X140470867Y-83982000D01*
X158005000Y-83982000D02*
X167115000Y-83982000D01*
X168885000Y-83982000D02*
X214290000Y-83982000D01*
X134210000Y-84185200D02*
X140198354Y-84185200D01*
X158005000Y-84185200D02*
X167115000Y-84185200D01*
X168885000Y-84185200D02*
X214290000Y-84185200D01*
X134210000Y-84388400D02*
X140016159Y-84388400D01*
X158005000Y-84388400D02*
X167115000Y-84388400D01*
X168885000Y-84388400D02*
X214290000Y-84388400D01*
X134210000Y-84591600D02*
X139931991Y-84591600D01*
X158005000Y-84591600D02*
X167115000Y-84591600D01*
X168885000Y-84591600D02*
X214290000Y-84591600D01*
X134210000Y-84794800D02*
X139857000Y-84794800D01*
X158005000Y-84794800D02*
X167115000Y-84794800D01*
X168885000Y-84794800D02*
X214290000Y-84794800D01*
X134210000Y-84998000D02*
X139857000Y-84998000D01*
X158005000Y-84998000D02*
X167115000Y-84998000D01*
X168885000Y-84998000D02*
X214290000Y-84998000D01*
X134210000Y-85201200D02*
X139857000Y-85201200D01*
X158005000Y-85201200D02*
X167115000Y-85201200D01*
X168885000Y-85201200D02*
X214290000Y-85201200D01*
X134210000Y-85404400D02*
X139857000Y-85404400D01*
X158005000Y-85404400D02*
X167115000Y-85404400D01*
X168885000Y-85404400D02*
X214290000Y-85404400D01*
X134210000Y-85607600D02*
X139857000Y-85607600D01*
X158005000Y-85607600D02*
X158272114Y-85607600D01*
X159048682Y-85607600D02*
X167115000Y-85607600D01*
X168885000Y-85607600D02*
X214290000Y-85607600D01*
X134210000Y-85810800D02*
X139857000Y-85810800D01*
X159500501Y-85810800D02*
X167115000Y-85810800D01*
X168885000Y-85810800D02*
X214290000Y-85810800D01*
X134210000Y-86014000D02*
X139857000Y-86014000D01*
X159703347Y-86014000D02*
X167115000Y-86014000D01*
X168885000Y-86014000D02*
X214290000Y-86014000D01*
X134210000Y-86217200D02*
X139986950Y-86217200D01*
X159889226Y-86217200D02*
X167115000Y-86217200D01*
X168885000Y-86217200D02*
X214290000Y-86217200D01*
X134210000Y-86420400D02*
X143647000Y-86420400D01*
X159973186Y-86420400D02*
X167115000Y-86420400D01*
X168885000Y-86420400D02*
X214290000Y-86420400D01*
X134210000Y-86623600D02*
X143647000Y-86623600D01*
X160057147Y-86623600D02*
X167115000Y-86623600D01*
X168885000Y-86623600D02*
X214290000Y-86623600D01*
X134210000Y-86826800D02*
X139942950Y-86826800D01*
X143373000Y-86826800D02*
X143627000Y-86826800D01*
X160095151Y-86826800D02*
X167115000Y-86826800D01*
X168885000Y-86826800D02*
X214290000Y-86826800D01*
X134210000Y-87030000D02*
X139857000Y-87030000D01*
X143373000Y-87030000D02*
X143627000Y-87030000D01*
X160094973Y-87030000D02*
X167115000Y-87030000D01*
X168885000Y-87030000D02*
X214290000Y-87030000D01*
X134210000Y-87233200D02*
X139857000Y-87233200D01*
X143373000Y-87233200D02*
X143627000Y-87233200D01*
X160094796Y-87233200D02*
X167115000Y-87233200D01*
X168885000Y-87233200D02*
X214290000Y-87233200D01*
X134210000Y-87436400D02*
X139857000Y-87436400D01*
X143373000Y-87436400D02*
X143627000Y-87436400D01*
X160032585Y-87436400D02*
X167115000Y-87436400D01*
X168885000Y-87436400D02*
X214290000Y-87436400D01*
X134210000Y-87639600D02*
X139857000Y-87639600D01*
X143373000Y-87639600D02*
X143627000Y-87639600D01*
X159948209Y-87639600D02*
X167115000Y-87639600D01*
X168885000Y-87639600D02*
X214290000Y-87639600D01*
X134210000Y-87842800D02*
X139857000Y-87842800D01*
X143373000Y-87842800D02*
X143627000Y-87842800D01*
X159846896Y-87842800D02*
X167115000Y-87842800D01*
X168885000Y-87842800D02*
X214290000Y-87842800D01*
X134210000Y-88046000D02*
X139857000Y-88046000D01*
X143373000Y-88046000D02*
X143627000Y-88046000D01*
X159643342Y-88046000D02*
X167115000Y-88046000D01*
X168885000Y-88046000D02*
X214290000Y-88046000D01*
X134210000Y-88249200D02*
X139866047Y-88249200D01*
X143373000Y-88249200D02*
X143627000Y-88249200D01*
X159545000Y-88249200D02*
X167115000Y-88249200D01*
X168885000Y-88249200D02*
X214290000Y-88249200D01*
X134210000Y-88452400D02*
X139950215Y-88452400D01*
X143373000Y-88452400D02*
X143627000Y-88452400D01*
X159545000Y-88452400D02*
X167115000Y-88452400D01*
X168885000Y-88452400D02*
X214290000Y-88452400D01*
X134210000Y-88655600D02*
X140039153Y-88655600D01*
X143373000Y-88655600D02*
X143627000Y-88655600D01*
X159545000Y-88655600D02*
X167115000Y-88655600D01*
X168885000Y-88655600D02*
X214290000Y-88655600D01*
X134210000Y-88858800D02*
X140242353Y-88858800D01*
X143371450Y-88858800D02*
X143628550Y-88858800D01*
X159545000Y-88858800D02*
X167115000Y-88858800D01*
X168885000Y-88858800D02*
X214290000Y-88858800D01*
X134210000Y-89062000D02*
X140577091Y-89062000D01*
X143168250Y-89062000D02*
X143831750Y-89062000D01*
X159545000Y-89062000D02*
X163255458Y-89062000D01*
X164579572Y-89062000D02*
X167115000Y-89062000D01*
X168885000Y-89062000D02*
X214290000Y-89062000D01*
X134210000Y-89265200D02*
X144983220Y-89265200D01*
X159545000Y-89265200D02*
X162764891Y-89265200D01*
X165097600Y-89265200D02*
X167115000Y-89265200D01*
X168885000Y-89265200D02*
X214290000Y-89265200D01*
X134210000Y-89468400D02*
X144780020Y-89468400D01*
X159545000Y-89468400D02*
X162718014Y-89468400D01*
X165145187Y-89468400D02*
X167115000Y-89468400D01*
X168885000Y-89468400D02*
X214290000Y-89468400D01*
X134210000Y-89671600D02*
X144576820Y-89671600D01*
X159545000Y-89671600D02*
X162682906Y-89671600D01*
X165180295Y-89671600D02*
X167115000Y-89671600D01*
X168885000Y-89671600D02*
X214290000Y-89671600D01*
X134210000Y-89874800D02*
X144373620Y-89874800D01*
X159545000Y-89874800D02*
X162414139Y-89874800D01*
X162516995Y-89874800D02*
X162876205Y-89874800D01*
X164986995Y-89874800D02*
X165346205Y-89874800D01*
X165449062Y-89874800D02*
X167115000Y-89874800D01*
X168885000Y-89874800D02*
X214290000Y-89874800D01*
X134210000Y-90078000D02*
X144170420Y-90078000D01*
X159545000Y-90078000D02*
X162034360Y-90078000D01*
X162720195Y-90078000D02*
X163079405Y-90078000D01*
X164783795Y-90078000D02*
X165143005Y-90078000D01*
X165832082Y-90078000D02*
X167115000Y-90078000D01*
X168885000Y-90078000D02*
X214290000Y-90078000D01*
X134210000Y-90281200D02*
X143967220Y-90281200D01*
X159545000Y-90281200D02*
X161954653Y-90281200D01*
X162923395Y-90281200D02*
X163282605Y-90281200D01*
X164580595Y-90281200D02*
X164939805Y-90281200D01*
X165916250Y-90281200D02*
X167115000Y-90281200D01*
X168885000Y-90281200D02*
X214290000Y-90281200D01*
X134210000Y-90484400D02*
X143764020Y-90484400D01*
X159545000Y-90484400D02*
X161874947Y-90484400D01*
X163126595Y-90484400D02*
X163485805Y-90484400D01*
X164377395Y-90484400D02*
X164736605Y-90484400D01*
X166000419Y-90484400D02*
X167115000Y-90484400D01*
X168885000Y-90484400D02*
X214290000Y-90484400D01*
X134210000Y-90687600D02*
X143560820Y-90687600D01*
X159545000Y-90687600D02*
X161795240Y-90687600D01*
X163329795Y-90687600D02*
X163689005Y-90687600D01*
X164174195Y-90687600D02*
X164533405Y-90687600D01*
X166067009Y-90687600D02*
X167115000Y-90687600D01*
X168885000Y-90687600D02*
X214290000Y-90687600D01*
X134210000Y-90890800D02*
X138553112Y-90890800D01*
X159545000Y-90890800D02*
X161784080Y-90890800D01*
X163532995Y-90890800D02*
X163892205Y-90890800D01*
X163970995Y-90890800D02*
X164330205Y-90890800D01*
X166070847Y-90890800D02*
X167115000Y-90890800D01*
X168885000Y-90890800D02*
X214290000Y-90890800D01*
X134210000Y-91094000D02*
X138161139Y-91094000D01*
X159545000Y-91094000D02*
X161787918Y-91094000D01*
X163736195Y-91094000D02*
X164127005Y-91094000D01*
X166074685Y-91094000D02*
X167115000Y-91094000D01*
X168885000Y-91094000D02*
X214290000Y-91094000D01*
X134210000Y-91297200D02*
X137951221Y-91297200D01*
X159545000Y-91297200D02*
X161791756Y-91297200D01*
X163564595Y-91297200D02*
X163923805Y-91297200D01*
X163939395Y-91297200D02*
X164298605Y-91297200D01*
X166078524Y-91297200D02*
X167115000Y-91297200D01*
X168885000Y-91297200D02*
X214290000Y-91297200D01*
X134210000Y-91500400D02*
X137748021Y-91500400D01*
X159545000Y-91500400D02*
X161795594Y-91500400D01*
X163361395Y-91500400D02*
X163720605Y-91500400D01*
X164142595Y-91500400D02*
X164501805Y-91500400D01*
X166080355Y-91500400D02*
X167115000Y-91500400D01*
X168885000Y-91500400D02*
X214290000Y-91500400D01*
X134210000Y-91703600D02*
X137544821Y-91703600D01*
X159545000Y-91703600D02*
X161849692Y-91703600D01*
X163158195Y-91703600D02*
X163517405Y-91703600D01*
X164345795Y-91703600D02*
X164705005Y-91703600D01*
X166000649Y-91703600D02*
X167115000Y-91703600D01*
X168885000Y-91703600D02*
X214290000Y-91703600D01*
X134210000Y-91906800D02*
X137341621Y-91906800D01*
X159545000Y-91906800D02*
X161933860Y-91906800D01*
X162954995Y-91906800D02*
X163314205Y-91906800D01*
X164548995Y-91906800D02*
X164908205Y-91906800D01*
X165920942Y-91906800D02*
X167115000Y-91906800D01*
X168885000Y-91906800D02*
X214290000Y-91906800D01*
X134210000Y-92110000D02*
X137138421Y-92110000D01*
X159545000Y-92110000D02*
X162018029Y-92110000D01*
X162751795Y-92110000D02*
X163111005Y-92110000D01*
X164752195Y-92110000D02*
X165111405Y-92110000D01*
X165841235Y-92110000D02*
X167115000Y-92110000D01*
X168885000Y-92110000D02*
X214290000Y-92110000D01*
X134210000Y-92313200D02*
X136935221Y-92313200D01*
X159545000Y-92313200D02*
X162231241Y-92313200D01*
X162548595Y-92313200D02*
X162907805Y-92313200D01*
X164955395Y-92313200D02*
X165314605Y-92313200D01*
X165631958Y-92313200D02*
X167115000Y-92313200D01*
X168885000Y-92313200D02*
X214290000Y-92313200D01*
X134210000Y-92516400D02*
X136732021Y-92516400D01*
X159545000Y-92516400D02*
X162704605Y-92516400D01*
X165158595Y-92516400D02*
X167115000Y-92516400D01*
X168885000Y-92516400D02*
X214290000Y-92516400D01*
X134210000Y-92719600D02*
X136528821Y-92719600D01*
X159545000Y-92719600D02*
X162712553Y-92719600D01*
X165150646Y-92719600D02*
X167115000Y-92719600D01*
X168885000Y-92719600D02*
X214290000Y-92719600D01*
X134210000Y-92922800D02*
X136341744Y-92922800D01*
X159545000Y-92922800D02*
X162747661Y-92922800D01*
X165115538Y-92922800D02*
X167115000Y-92922800D01*
X168885000Y-92922800D02*
X214290000Y-92922800D01*
X134210000Y-93126000D02*
X136205971Y-93126000D01*
X159545000Y-93126000D02*
X163203069Y-93126000D01*
X164684031Y-93126000D02*
X167115000Y-93126000D01*
X168885000Y-93126000D02*
X214290000Y-93126000D01*
X134210000Y-93329200D02*
X136148975Y-93329200D01*
X159545000Y-93329200D02*
X167115000Y-93329200D01*
X168885000Y-93329200D02*
X214290000Y-93329200D01*
X134210000Y-93532400D02*
X136115000Y-93532400D01*
X159545000Y-93532400D02*
X167115000Y-93532400D01*
X168885000Y-93532400D02*
X214290000Y-93532400D01*
X134210000Y-93735600D02*
X136115000Y-93735600D01*
X159545000Y-93735600D02*
X167115000Y-93735600D01*
X168885000Y-93735600D02*
X214290000Y-93735600D01*
X134210000Y-93938800D02*
X136115000Y-93938800D01*
X159545000Y-93938800D02*
X167115000Y-93938800D01*
X168885000Y-93938800D02*
X214290000Y-93938800D01*
X134210000Y-94142000D02*
X136115000Y-94142000D01*
X159545000Y-94142000D02*
X167115000Y-94142000D01*
X168885000Y-94142000D02*
X214290000Y-94142000D01*
X134210000Y-94345200D02*
X136115000Y-94345200D01*
X159545000Y-94345200D02*
X167115000Y-94345200D01*
X168885000Y-94345200D02*
X214290000Y-94345200D01*
X134210000Y-94548400D02*
X136115000Y-94548400D01*
X159545000Y-94548400D02*
X167115000Y-94548400D01*
X168885000Y-94548400D02*
X214290000Y-94548400D01*
X134210000Y-94751600D02*
X136115000Y-94751600D01*
X159545000Y-94751600D02*
X167115000Y-94751600D01*
X168885000Y-94751600D02*
X214290000Y-94751600D01*
X134210000Y-94954800D02*
X136115000Y-94954800D01*
X159545000Y-94954800D02*
X167115000Y-94954800D01*
X168885000Y-94954800D02*
X214290000Y-94954800D01*
X134210000Y-95158000D02*
X136115000Y-95158000D01*
X159545000Y-95158000D02*
X167115000Y-95158000D01*
X168885000Y-95158000D02*
X214290000Y-95158000D01*
X134210000Y-95361200D02*
X136115000Y-95361200D01*
X159545000Y-95361200D02*
X167115000Y-95361200D01*
X168885000Y-95361200D02*
X214290000Y-95361200D01*
X134210000Y-95564400D02*
X136115000Y-95564400D01*
X159545000Y-95564400D02*
X167115000Y-95564400D01*
X168885000Y-95564400D02*
X214290000Y-95564400D01*
X134210000Y-95767600D02*
X136115000Y-95767600D01*
X159545000Y-95767600D02*
X167115000Y-95767600D01*
X168885000Y-95767600D02*
X214290000Y-95767600D01*
X134210000Y-95970800D02*
X136115000Y-95970800D01*
X159545000Y-95970800D02*
X167115000Y-95970800D01*
X168885000Y-95970800D02*
X214290000Y-95970800D01*
X134210000Y-96174000D02*
X136115000Y-96174000D01*
X159545000Y-96174000D02*
X167115000Y-96174000D01*
X168885000Y-96174000D02*
X214290000Y-96174000D01*
X134210000Y-96377200D02*
X136115000Y-96377200D01*
X159545000Y-96377200D02*
X167115000Y-96377200D01*
X168885000Y-96377200D02*
X214290000Y-96377200D01*
X134210000Y-96580400D02*
X136130992Y-96580400D01*
X159545000Y-96580400D02*
X167115000Y-96580400D01*
X168885000Y-96580400D02*
X214290000Y-96580400D01*
X134210000Y-96783600D02*
X136171411Y-96783600D01*
X159545000Y-96783600D02*
X167115000Y-96783600D01*
X168885000Y-96783600D02*
X214290000Y-96783600D01*
X134210000Y-96986800D02*
X136281340Y-96986800D01*
X159545000Y-96986800D02*
X167115000Y-96986800D01*
X168885000Y-96986800D02*
X214290000Y-96986800D01*
X134210000Y-97190000D02*
X136438420Y-97190000D01*
X159545000Y-97190000D02*
X167115000Y-97190000D01*
X168885000Y-97190000D02*
X214290000Y-97190000D01*
X134210000Y-97393200D02*
X136641620Y-97393200D01*
X159545000Y-97393200D02*
X167115000Y-97393200D01*
X168885000Y-97393200D02*
X214290000Y-97393200D01*
X134210000Y-97596400D02*
X136844820Y-97596400D01*
X159545000Y-97596400D02*
X167115000Y-97596400D01*
X168885000Y-97596400D02*
X214290000Y-97596400D01*
X134210000Y-97799600D02*
X137048020Y-97799600D01*
X159545000Y-97799600D02*
X167115000Y-97799600D01*
X168885000Y-97799600D02*
X214290000Y-97799600D01*
X134210000Y-98002800D02*
X137251220Y-98002800D01*
X159545000Y-98002800D02*
X167115000Y-98002800D01*
X168885000Y-98002800D02*
X214290000Y-98002800D01*
X134210000Y-98206000D02*
X137494253Y-98206000D01*
X159545000Y-98206000D02*
X167115000Y-98206000D01*
X168885000Y-98206000D02*
X214290000Y-98206000D01*
X134210000Y-98409200D02*
X138820171Y-98409200D01*
X159545000Y-98409200D02*
X167115000Y-98409200D01*
X168885000Y-98409200D02*
X214290000Y-98409200D01*
X134210000Y-98612400D02*
X138975307Y-98612400D01*
X159545000Y-98612400D02*
X167115000Y-98612400D01*
X168885000Y-98612400D02*
X214290000Y-98612400D01*
X134210000Y-98815600D02*
X139142927Y-98815600D01*
X159545000Y-98815600D02*
X167115000Y-98815600D01*
X168885000Y-98815600D02*
X214290000Y-98815600D01*
X134210000Y-99018800D02*
X138895009Y-99018800D01*
X159545000Y-99018800D02*
X167115000Y-99018800D01*
X168885000Y-99018800D02*
X214290000Y-99018800D01*
X134210000Y-99222000D02*
X138759235Y-99222000D01*
X159545000Y-99222000D02*
X167115000Y-99222000D01*
X168885000Y-99222000D02*
X214290000Y-99222000D01*
X134210000Y-99425200D02*
X138623461Y-99425200D01*
X159545000Y-99425200D02*
X167106637Y-99425200D01*
X168885000Y-99425200D02*
X214290000Y-99425200D01*
X134210000Y-99628400D02*
X138577433Y-99628400D01*
X159545000Y-99628400D02*
X166903437Y-99628400D01*
X168885000Y-99628400D02*
X214290000Y-99628400D01*
X134210000Y-99831600D02*
X138537014Y-99831600D01*
X159545000Y-99831600D02*
X166700237Y-99831600D01*
X168875416Y-99831600D02*
X214290000Y-99831600D01*
X134210000Y-100034800D02*
X138501400Y-100034800D01*
X159545000Y-100034800D02*
X166497037Y-100034800D01*
X168834996Y-100034800D02*
X214290000Y-100034800D01*
X134210000Y-100238000D02*
X138534944Y-100238000D01*
X159545000Y-100238000D02*
X166293837Y-100238000D01*
X168740185Y-100238000D02*
X214290000Y-100238000D01*
X134210000Y-100441200D02*
X138575363Y-100441200D01*
X159545000Y-100441200D02*
X166090637Y-100441200D01*
X168593795Y-100441200D02*
X214290000Y-100441200D01*
X134210000Y-100644400D02*
X138616511Y-100644400D01*
X159545000Y-100644400D02*
X165887437Y-100644400D01*
X168390595Y-100644400D02*
X214290000Y-100644400D01*
X134210000Y-100847600D02*
X138752285Y-100847600D01*
X159545000Y-100847600D02*
X165684237Y-100847600D01*
X168187395Y-100847600D02*
X214290000Y-100847600D01*
X134210000Y-101050800D02*
X138888059Y-101050800D01*
X159545000Y-101050800D02*
X165481037Y-101050800D01*
X167984195Y-101050800D02*
X214290000Y-101050800D01*
X134210000Y-101254000D02*
X139127362Y-101254000D01*
X140872637Y-101254000D02*
X141147291Y-101254000D01*
X159545000Y-101254000D02*
X165277837Y-101254000D01*
X167780995Y-101254000D02*
X214290000Y-101254000D01*
X134210000Y-101457200D02*
X139443176Y-101457200D01*
X140556823Y-101457200D02*
X141361824Y-101457200D01*
X159545000Y-101457200D02*
X165074637Y-101457200D01*
X167577795Y-101457200D02*
X187103462Y-101457200D01*
X188208716Y-101457200D02*
X214290000Y-101457200D01*
X134210000Y-101660400D02*
X141655000Y-101660400D01*
X159545000Y-101660400D02*
X164871437Y-101660400D01*
X167374595Y-101660400D02*
X186611680Y-101660400D01*
X188698077Y-101660400D02*
X214290000Y-101660400D01*
X134210000Y-101863600D02*
X141655000Y-101863600D01*
X159545000Y-101863600D02*
X164668237Y-101863600D01*
X167171395Y-101863600D02*
X186228953Y-101863600D01*
X189082355Y-101863600D02*
X214290000Y-101863600D01*
X134210000Y-102066800D02*
X141655000Y-102066800D01*
X159545000Y-102066800D02*
X164465037Y-102066800D01*
X166968195Y-102066800D02*
X186025398Y-102066800D01*
X189285200Y-102066800D02*
X214290000Y-102066800D01*
X134210000Y-102270000D02*
X141655000Y-102270000D01*
X159508942Y-102270000D02*
X162597816Y-102270000D01*
X166764995Y-102270000D02*
X185821843Y-102270000D01*
X189488046Y-102270000D02*
X214290000Y-102270000D01*
X134210000Y-102473200D02*
X141655000Y-102473200D01*
X159447031Y-102473200D02*
X162393049Y-102473200D01*
X166561795Y-102473200D02*
X185627765Y-102473200D01*
X189683503Y-102473200D02*
X214290000Y-102473200D01*
X134210000Y-102676400D02*
X141655000Y-102676400D01*
X159311258Y-102676400D02*
X162311175Y-102676400D01*
X166358595Y-102676400D02*
X185543389Y-102676400D01*
X189767463Y-102676400D02*
X214290000Y-102676400D01*
X134210000Y-102879600D02*
X141655000Y-102879600D01*
X159120706Y-102879600D02*
X162284160Y-102879600D01*
X166155395Y-102879600D02*
X185459013Y-102879600D01*
X189851424Y-102879600D02*
X214290000Y-102879600D01*
X134210000Y-103082800D02*
X141684757Y-103082800D01*
X158917506Y-103082800D02*
X162284160Y-103082800D01*
X165952195Y-103082800D02*
X185374637Y-103082800D01*
X189935384Y-103082800D02*
X214290000Y-103082800D01*
X134210000Y-103286000D02*
X141731804Y-103286000D01*
X158714306Y-103286000D02*
X162284160Y-103286000D01*
X165748995Y-103286000D02*
X185290262Y-103286000D01*
X190019344Y-103286000D02*
X214290000Y-103286000D01*
X134210000Y-103489200D02*
X141867578Y-103489200D01*
X158511106Y-103489200D02*
X162284160Y-103489200D01*
X165579040Y-103489200D02*
X185270479Y-103489200D01*
X190040480Y-103489200D02*
X214290000Y-103489200D01*
X134210000Y-103692400D02*
X142047620Y-103692400D01*
X158307906Y-103692400D02*
X162284160Y-103692400D01*
X165579040Y-103692400D02*
X185270302Y-103692400D01*
X190040303Y-103692400D02*
X214290000Y-103692400D01*
X134210000Y-103895600D02*
X142250820Y-103895600D01*
X158056636Y-103895600D02*
X162284160Y-103895600D01*
X165579040Y-103895600D02*
X185270125Y-103895600D01*
X190040125Y-103895600D02*
X214290000Y-103895600D01*
X134210000Y-104098800D02*
X142454020Y-104098800D01*
X156152779Y-104098800D02*
X162284160Y-104098800D01*
X165579040Y-104098800D02*
X185269947Y-104098800D01*
X190039948Y-104098800D02*
X214290000Y-104098800D01*
X134210000Y-104302000D02*
X142657220Y-104302000D01*
X155949579Y-104302000D02*
X162284160Y-104302000D01*
X165579040Y-104302000D02*
X185277999Y-104302000D01*
X190033260Y-104302000D02*
X214290000Y-104302000D01*
X134210000Y-104505200D02*
X142860420Y-104505200D01*
X155746379Y-104505200D02*
X162284160Y-104505200D01*
X165579040Y-104505200D02*
X185361959Y-104505200D01*
X189948884Y-104505200D02*
X214290000Y-104505200D01*
X134210000Y-104708400D02*
X143063620Y-104708400D01*
X155543179Y-104708400D02*
X162284160Y-104708400D01*
X165579040Y-104708400D02*
X185445920Y-104708400D01*
X189864508Y-104708400D02*
X214290000Y-104708400D01*
X134210000Y-104911600D02*
X143266820Y-104911600D01*
X155339979Y-104911600D02*
X162303315Y-104911600D01*
X165558424Y-104911600D02*
X185529880Y-104911600D01*
X189780132Y-104911600D02*
X214290000Y-104911600D01*
X134210000Y-105114800D02*
X143470020Y-105114800D01*
X155136779Y-105114800D02*
X162373277Y-105114800D01*
X165491742Y-105114800D02*
X185613840Y-105114800D01*
X189695756Y-105114800D02*
X214290000Y-105114800D01*
X134210000Y-105318000D02*
X143673220Y-105318000D01*
X154933579Y-105318000D02*
X162550579Y-105318000D01*
X165314492Y-105318000D02*
X185790809Y-105318000D01*
X189520212Y-105318000D02*
X214290000Y-105318000D01*
X134210000Y-105521200D02*
X143876420Y-105521200D01*
X154730379Y-105521200D02*
X185993655Y-105521200D01*
X189316657Y-105521200D02*
X214290000Y-105521200D01*
X134210000Y-105724400D02*
X144079620Y-105724400D01*
X154527179Y-105724400D02*
X186196501Y-105724400D01*
X189113102Y-105724400D02*
X214290000Y-105724400D01*
X134210000Y-105927600D02*
X144282820Y-105927600D01*
X154323979Y-105927600D02*
X186536222Y-105927600D01*
X188775198Y-105927600D02*
X214290000Y-105927600D01*
X134210000Y-106130800D02*
X144486020Y-106130800D01*
X154120779Y-106130800D02*
X187025583Y-106130800D01*
X188283416Y-106130800D02*
X214290000Y-106130800D01*
X134210000Y-106334000D02*
X144689220Y-106334000D01*
X153917579Y-106334000D02*
X214290000Y-106334000D01*
X134210000Y-106537200D02*
X144892420Y-106537200D01*
X153714379Y-106537200D02*
X214290000Y-106537200D01*
X134210000Y-106740400D02*
X145095620Y-106740400D01*
X153511179Y-106740400D02*
X214290000Y-106740400D01*
X134210000Y-106943600D02*
X145298820Y-106943600D01*
X153307979Y-106943600D02*
X214290000Y-106943600D01*
X134210000Y-107146800D02*
X145502020Y-107146800D01*
X154261744Y-107146800D02*
X157738095Y-107146800D01*
X159261744Y-107146800D02*
X214290000Y-107146800D01*
X134210000Y-107350000D02*
X145705220Y-107350000D01*
X154651221Y-107350000D02*
X157349465Y-107350000D01*
X159651221Y-107350000D02*
X214290000Y-107350000D01*
X134210000Y-107553200D02*
X145908420Y-107553200D01*
X154854066Y-107553200D02*
X157145910Y-107553200D01*
X159854066Y-107553200D02*
X214290000Y-107553200D01*
X134210000Y-107756400D02*
X146111620Y-107756400D01*
X155056912Y-107756400D02*
X156942355Y-107756400D01*
X160056912Y-107756400D02*
X214290000Y-107756400D01*
X134210000Y-107959600D02*
X146314820Y-107959600D01*
X155175458Y-107959600D02*
X156824961Y-107959600D01*
X160175458Y-107959600D02*
X214290000Y-107959600D01*
X134210000Y-108162800D02*
X146491546Y-108162800D01*
X155259418Y-108162800D02*
X156740586Y-108162800D01*
X160259418Y-108162800D02*
X214290000Y-108162800D01*
X134210000Y-108366000D02*
X146407170Y-108366000D01*
X155343379Y-108366000D02*
X156656210Y-108366000D01*
X160343379Y-108366000D02*
X214290000Y-108366000D01*
X134210000Y-108569200D02*
X146365283Y-108569200D01*
X155405283Y-108569200D02*
X156595283Y-108569200D01*
X160405283Y-108569200D02*
X214290000Y-108569200D01*
X134210000Y-108772400D02*
X146365105Y-108772400D01*
X155405105Y-108772400D02*
X156595106Y-108772400D01*
X160405105Y-108772400D02*
X214290000Y-108772400D01*
X134210000Y-108975600D02*
X146364928Y-108975600D01*
X155404927Y-108975600D02*
X156594928Y-108975600D01*
X160404928Y-108975600D02*
X214290000Y-108975600D01*
X134210000Y-109178800D02*
X146364750Y-109178800D01*
X155404750Y-109178800D02*
X156594751Y-109178800D01*
X160404750Y-109178800D02*
X214290000Y-109178800D01*
X134210000Y-109382000D02*
X146391894Y-109382000D01*
X155359735Y-109382000D02*
X156640755Y-109382000D01*
X160359735Y-109382000D02*
X214290000Y-109382000D01*
X134210000Y-109585200D02*
X146475855Y-109585200D01*
X155275359Y-109585200D02*
X156724715Y-109585200D01*
X160275359Y-109585200D02*
X214290000Y-109585200D01*
X134210000Y-109788400D02*
X146559815Y-109788400D01*
X155190984Y-109788400D02*
X156808676Y-109788400D01*
X160190984Y-109788400D02*
X214290000Y-109788400D01*
X134210000Y-109991600D02*
X146643776Y-109991600D01*
X155096112Y-109991600D02*
X156904755Y-109991600D01*
X160096112Y-109991600D02*
X214290000Y-109991600D01*
X134210000Y-110194800D02*
X146782616Y-110194800D01*
X152079473Y-110194800D02*
X152107601Y-110194800D01*
X154892557Y-110194800D02*
X157107601Y-110194800D01*
X159892557Y-110194800D02*
X214290000Y-110194800D01*
X134210000Y-110398000D02*
X146985462Y-110398000D01*
X152039054Y-110398000D02*
X152310446Y-110398000D01*
X154689002Y-110398000D02*
X157310446Y-110398000D01*
X159689002Y-110398000D02*
X214290000Y-110398000D01*
X134210000Y-110601200D02*
X147188307Y-110601200D01*
X151955095Y-110601200D02*
X152645779Y-110601200D01*
X154354840Y-110601200D02*
X157645779Y-110601200D01*
X159354840Y-110601200D02*
X214290000Y-110601200D01*
X134210000Y-110804400D02*
X135961090Y-110804400D01*
X137040469Y-110804400D02*
X147535384Y-110804400D01*
X151816379Y-110804400D02*
X211461090Y-110804400D01*
X212540469Y-110804400D02*
X214290000Y-110804400D01*
X134210000Y-111007600D02*
X135469309Y-111007600D01*
X137529829Y-111007600D02*
X147600373Y-111007600D01*
X151613179Y-111007600D02*
X158074985Y-111007600D01*
X158926512Y-111007600D02*
X210969309Y-111007600D01*
X213029829Y-111007600D02*
X214290000Y-111007600D01*
X134210000Y-111210800D02*
X135128797Y-111210800D01*
X137871933Y-111210800D02*
X147139542Y-111210800D01*
X151409979Y-111210800D02*
X152841679Y-111210800D01*
X154158669Y-111210800D02*
X157583204Y-111210800D01*
X159415873Y-111210800D02*
X210628797Y-111210800D01*
X213371933Y-111210800D02*
X214290000Y-111210800D01*
X134210000Y-111414000D02*
X134925242Y-111414000D01*
X138074779Y-111414000D02*
X146935988Y-111414000D01*
X151206779Y-111414000D02*
X152392340Y-111414000D01*
X154608496Y-111414000D02*
X157285353Y-111414000D01*
X159715109Y-111414000D02*
X210425242Y-111414000D01*
X213574779Y-111414000D02*
X214290000Y-111414000D01*
X134210000Y-111617200D02*
X134721687Y-111617200D01*
X138277624Y-111617200D02*
X146732433Y-111617200D01*
X151003579Y-111617200D02*
X152188785Y-111617200D01*
X154811341Y-111617200D02*
X157081798Y-111617200D01*
X159917955Y-111617200D02*
X210221687Y-111617200D01*
X213777624Y-111617200D02*
X214290000Y-111617200D01*
X134210000Y-111820400D02*
X134569791Y-111820400D01*
X138430873Y-111820400D02*
X146547270Y-111820400D01*
X150800379Y-111820400D02*
X151985230Y-111820400D01*
X155014186Y-111820400D02*
X156882762Y-111820400D01*
X160117941Y-111820400D02*
X210069791Y-111820400D01*
X213930873Y-111820400D02*
X214290000Y-111820400D01*
X134210000Y-112023600D02*
X134485415Y-112023600D01*
X138514833Y-112023600D02*
X146462894Y-112023600D01*
X150597179Y-112023600D02*
X151842733Y-112023600D01*
X155157773Y-112023600D02*
X156798386Y-112023600D01*
X160201902Y-112023600D02*
X209985415Y-112023600D01*
X214014833Y-112023600D02*
X214290000Y-112023600D01*
X134210000Y-112226800D02*
X134401039Y-112226800D01*
X138598794Y-112226800D02*
X146378518Y-112226800D01*
X150393979Y-112226800D02*
X151758358Y-112226800D01*
X155241734Y-112226800D02*
X156714011Y-112226800D01*
X160285862Y-112226800D02*
X209901039Y-112226800D01*
X214098794Y-112226800D02*
X214290000Y-112226800D01*
X134210000Y-112430000D02*
X134316663Y-112430000D01*
X138682755Y-112430000D02*
X146294142Y-112430000D01*
X150443755Y-112430000D02*
X151673982Y-112430000D01*
X155325694Y-112430000D02*
X156629635Y-112430000D01*
X160369823Y-112430000D02*
X209816663Y-112430000D01*
X214182755Y-112430000D02*
X214290000Y-112430000D01*
X134210000Y-112633200D02*
X134265320Y-112633200D01*
X138735320Y-112633200D02*
X146234520Y-112633200D01*
X150504521Y-112633200D02*
X151595320Y-112633200D01*
X155405320Y-112633200D02*
X156595227Y-112633200D01*
X160405227Y-112633200D02*
X209765320Y-112633200D01*
X214235320Y-112633200D02*
X214290000Y-112633200D01*
X134210000Y-112836400D02*
X134265143Y-112836400D01*
X138735143Y-112836400D02*
X146234343Y-112836400D01*
X150504343Y-112836400D02*
X151595143Y-112836400D01*
X155405143Y-112836400D02*
X156595050Y-112836400D01*
X160405050Y-112836400D02*
X209765143Y-112836400D01*
X214235143Y-112836400D02*
X214290000Y-112836400D01*
X134210000Y-113039600D02*
X134264965Y-113039600D01*
X138734966Y-113039600D02*
X146234165Y-113039600D01*
X150504166Y-113039600D02*
X151594965Y-113039600D01*
X155404965Y-113039600D02*
X156594872Y-113039600D01*
X160404872Y-113039600D02*
X209764965Y-113039600D01*
X214234966Y-113039600D02*
X214290000Y-113039600D01*
X134210000Y-113242800D02*
X134264788Y-113242800D01*
X138734788Y-113242800D02*
X146233988Y-113242800D01*
X150503988Y-113242800D02*
X151594788Y-113242800D01*
X155404788Y-113242800D02*
X156594695Y-113242800D01*
X160404695Y-113242800D02*
X209764788Y-113242800D01*
X214234788Y-113242800D02*
X214290000Y-113242800D01*
X134210000Y-113446000D02*
X134266010Y-113446000D01*
X138734611Y-113446000D02*
X146243409Y-113446000D01*
X150495747Y-113446000D02*
X151623070Y-113446000D01*
X155377507Y-113446000D02*
X156667199Y-113446000D01*
X160333160Y-113446000D02*
X209766010Y-113446000D01*
X214234611Y-113446000D02*
X214290000Y-113446000D01*
X134210000Y-113649200D02*
X134349970Y-113649200D01*
X138650450Y-113649200D02*
X146327370Y-113649200D01*
X150411371Y-113649200D02*
X151707031Y-113649200D01*
X155293131Y-113649200D02*
X156751160Y-113649200D01*
X160248784Y-113649200D02*
X209849970Y-113649200D01*
X214150450Y-113649200D02*
X214290000Y-113649200D01*
X134210000Y-113852400D02*
X134433931Y-113852400D01*
X138566074Y-113852400D02*
X146411331Y-113852400D01*
X150326995Y-113852400D02*
X151790991Y-113852400D01*
X155208756Y-113852400D02*
X156835120Y-113852400D01*
X160164408Y-113852400D02*
X209933931Y-113852400D01*
X214066074Y-113852400D02*
X214290000Y-113852400D01*
X134210000Y-114055600D02*
X134517892Y-114055600D01*
X138481698Y-114055600D02*
X146495292Y-114055600D01*
X150242619Y-114055600D02*
X151874952Y-114055600D01*
X155124380Y-114055600D02*
X156968644Y-114055600D01*
X160032000Y-114055600D02*
X210017892Y-114055600D01*
X213981698Y-114055600D02*
X214290000Y-114055600D01*
X134210000Y-114258800D02*
X134601852Y-114258800D01*
X138397322Y-114258800D02*
X146609091Y-114258800D01*
X150130184Y-114258800D02*
X152064875Y-114258800D01*
X154935432Y-114258800D02*
X157171489Y-114258800D01*
X159828445Y-114258800D02*
X210101852Y-114258800D01*
X213897322Y-114258800D02*
X214290000Y-114258800D01*
X134210000Y-114462000D02*
X134801438Y-114462000D01*
X138198975Y-114462000D02*
X146811936Y-114462000D01*
X149926629Y-114462000D02*
X152267721Y-114462000D01*
X154731877Y-114462000D02*
X157374334Y-114462000D01*
X159624890Y-114462000D02*
X210301438Y-114462000D01*
X213698975Y-114462000D02*
X214290000Y-114462000D01*
X134210000Y-114665200D02*
X135004283Y-114665200D01*
X137995420Y-114665200D02*
X147014782Y-114665200D01*
X149723074Y-114665200D02*
X152542704Y-114665200D01*
X154458424Y-114665200D02*
X157799908Y-114665200D01*
X159199948Y-114665200D02*
X210504283Y-114665200D01*
X213495420Y-114665200D02*
X214290000Y-114665200D01*
X134210000Y-114868400D02*
X135207129Y-114868400D01*
X137791864Y-114868400D02*
X147301511Y-114868400D01*
X149438130Y-114868400D02*
X153032066Y-114868400D01*
X153966642Y-114868400D02*
X210707129Y-114868400D01*
X213291864Y-114868400D02*
X214290000Y-114868400D01*
X134238153Y-115071600D02*
X135660906Y-115071600D01*
X137339013Y-115071600D02*
X147790870Y-115071600D01*
X148946349Y-115071600D02*
X211160906Y-115071600D01*
X212839013Y-115071600D02*
X214261848Y-115071600D01*
X134493515Y-115274800D02*
X214006486Y-115274800D01*
X144406579Y-94345000D02*
X148068554Y-94345000D01*
X144203379Y-94548200D02*
X148130867Y-94548200D01*
X144002948Y-94751400D02*
X148294391Y-94751400D01*
X144038600Y-94954600D02*
X148503138Y-94954600D01*
X144005095Y-95157800D02*
X148341930Y-95157800D01*
X143964676Y-95361000D02*
X148206156Y-95361000D01*
X143923622Y-95564200D02*
X148123574Y-95564200D01*
X143787848Y-95767400D02*
X148083155Y-95767400D01*
X143652074Y-95970600D02*
X148042736Y-95970600D01*
X143412937Y-96173800D02*
X148071457Y-96173800D01*
X143548829Y-96377000D02*
X148111877Y-96377000D01*
X143712746Y-96580200D02*
X148166866Y-96580200D01*
X144676638Y-96783400D02*
X148302640Y-96783400D01*
X144924935Y-96986600D02*
X148438414Y-96986600D01*
X145128135Y-97189800D02*
X148719247Y-97189800D01*
X145331335Y-97393000D02*
X148655193Y-97393000D01*
X145534535Y-97596200D02*
X148409817Y-97596200D01*
X145737735Y-97799400D02*
X148274043Y-97799400D01*
X145940935Y-98002600D02*
X148143783Y-98002600D01*
X146144135Y-98205800D02*
X148103364Y-98205800D01*
X146347335Y-98409000D02*
X148062945Y-98409000D01*
X146550535Y-98612200D02*
X148051248Y-98612200D01*
X146753735Y-98815400D02*
X148091667Y-98815400D01*
X146956935Y-99018600D02*
X148132086Y-99018600D01*
X147155430Y-99221800D02*
X148234753Y-99221800D01*
X147291203Y-99425000D02*
X148370527Y-99425000D01*
X147364346Y-99628200D02*
X148250561Y-99628200D01*
X147404766Y-99831400D02*
X148057716Y-99831400D01*
X147405164Y-100034600D02*
X147864870Y-100034600D01*
X147405164Y-100237800D02*
X147776150Y-100237800D01*
X147405164Y-100441000D02*
X147691984Y-100441000D01*
X147405164Y-100644200D02*
X147607818Y-100644200D01*
X147405164Y-100847400D02*
X147762674Y-100847400D01*
X147405164Y-101050600D02*
X149647000Y-101050600D01*
X147405164Y-101253800D02*
X147809976Y-101253800D01*
X147541976Y-101457000D02*
X147646514Y-101457000D01*
X147064837Y-80686742D02*
X147064837Y-80686742D01*
X146861637Y-80889942D02*
X147108449Y-80889942D01*
X146658437Y-81093142D02*
X147192409Y-81093142D01*
X146647440Y-81296342D02*
X147276369Y-81296342D01*
X146647440Y-81499542D02*
X147470171Y-81499542D01*
X146647440Y-81702742D02*
X147673017Y-81702742D01*
X146647440Y-81905942D02*
X148143931Y-81905942D01*
X146647440Y-82109142D02*
X148857563Y-82109142D01*
X146647440Y-82312342D02*
X149060763Y-82312342D01*
X146647440Y-82515542D02*
X149263963Y-82515542D01*
X146647440Y-82718742D02*
X149467163Y-82718742D01*
X146647440Y-82921942D02*
X149670363Y-82921942D01*
X146647440Y-83125142D02*
X149873563Y-83125142D01*
X146647440Y-83328342D02*
X150076763Y-83328342D01*
X146641052Y-83531542D02*
X150115000Y-83531542D01*
X146599903Y-83734742D02*
X150115000Y-83734742D01*
X146469307Y-83937942D02*
X150115000Y-83937942D01*
X146757589Y-84141142D02*
X150115000Y-84141142D01*
X146960789Y-84344342D02*
X150115000Y-84344342D01*
X147049761Y-84547542D02*
X150115000Y-84547542D01*
X147133929Y-84750742D02*
X150115000Y-84750742D01*
X147143000Y-84953942D02*
X150115000Y-84953942D01*
X147143000Y-85157142D02*
X150115000Y-85157142D01*
X147143000Y-85360342D02*
X150115000Y-85360342D01*
X147143000Y-85563542D02*
X150115000Y-85563542D01*
X147143000Y-85766742D02*
X147784287Y-85766742D01*
X149215714Y-85766742D02*
X150115000Y-85766742D01*
X147143000Y-85969942D02*
X147480177Y-85969942D01*
X149519824Y-85969942D02*
X150115000Y-85969942D01*
X147057108Y-86173142D02*
X147331679Y-86173142D01*
X149668322Y-86173142D02*
X150115000Y-86173142D01*
X147143000Y-86376342D02*
X147195905Y-86376342D01*
X149804096Y-86376342D02*
X150115000Y-86376342D01*
X149879479Y-86579542D02*
X150115000Y-86579542D01*
X149919898Y-86782742D02*
X150115000Y-86782742D01*
X149960317Y-86985942D02*
X150115000Y-86985942D01*
X149925490Y-87189142D02*
X150115000Y-87189142D01*
X149885071Y-87392342D02*
X150115000Y-87392342D01*
X149822882Y-87595542D02*
X150115000Y-87595542D01*
X149687108Y-87798742D02*
X150115000Y-87798742D01*
X149551334Y-88001942D02*
X150115000Y-88001942D01*
X149257791Y-88205142D02*
X150115000Y-88205142D01*
X148662131Y-88408342D02*
X150115000Y-88408342D01*
X148140037Y-88611542D02*
X150115000Y-88611542D01*
X147936837Y-88814742D02*
X150115000Y-88814742D01*
X147733637Y-89017942D02*
X150115000Y-89017942D01*
X147530437Y-89221142D02*
X150115000Y-89221142D01*
X147327237Y-89424342D02*
X150115000Y-89424342D01*
X147124037Y-89627542D02*
X150115000Y-89627542D01*
X146920837Y-89830742D02*
X150115000Y-89830742D01*
X146717637Y-90033942D02*
X150115000Y-90033942D01*
X146514437Y-90237142D02*
X150115000Y-90237142D01*
X146311237Y-90440342D02*
X150115000Y-90440342D01*
X146108037Y-90643542D02*
X150115000Y-90643542D01*
X145904837Y-90846742D02*
X150115000Y-90846742D01*
X145701637Y-91049942D02*
X150115000Y-91049942D01*
X145498437Y-91253142D02*
X150115000Y-91253142D01*
X145295237Y-91456342D02*
X150115000Y-91456342D01*
X145092037Y-91659542D02*
X150027660Y-91659542D01*
X144888837Y-91862742D02*
X149824460Y-91862742D01*
X144685637Y-92065942D02*
X148450535Y-92065942D01*
X144482437Y-92269142D02*
X148198522Y-92269142D01*
X144223004Y-92472342D02*
X148090562Y-92472342D01*
X139076037Y-92675542D02*
X143651675Y-92675542D01*
X138872837Y-92878742D02*
X143369679Y-92878742D01*
X138669637Y-93081942D02*
X139368157Y-93081942D01*
X139664376Y-93081942D02*
X140335625Y-93081942D01*
X140631844Y-93081942D02*
X143166479Y-93081942D01*
X138466437Y-93285142D02*
X138904758Y-93285142D01*
X139873000Y-93285142D02*
X140127000Y-93285142D01*
X141095243Y-93285142D02*
X142963279Y-93285142D01*
X138263237Y-93488342D02*
X138691536Y-93488342D01*
X139873000Y-93488342D02*
X140127000Y-93488342D01*
X141308465Y-93488342D02*
X142256956Y-93488342D01*
X138060037Y-93691542D02*
X138478314Y-93691542D01*
X139873000Y-93691542D02*
X140127000Y-93691542D01*
X141521687Y-93691542D02*
X141748865Y-93691542D01*
X137885000Y-93894742D02*
X138319309Y-93894742D01*
X139873000Y-93894742D02*
X140127000Y-93894742D01*
X137885000Y-94097942D02*
X138229353Y-94097942D01*
X139873000Y-94097942D02*
X140127000Y-94097942D01*
X137885000Y-94301142D02*
X138139397Y-94301142D01*
X139873000Y-94301142D02*
X140127000Y-94301142D01*
X137885000Y-94504342D02*
X138049441Y-94504342D01*
X139873000Y-94504342D02*
X140127000Y-94504342D01*
X137885000Y-94707542D02*
X138186075Y-94707542D01*
X139873000Y-94707542D02*
X140127000Y-94707542D01*
X137885000Y-94910742D02*
X140147000Y-94910742D01*
X137885000Y-95113942D02*
X138262316Y-95113942D01*
X137885000Y-95317142D02*
X138105063Y-95317142D01*
X137885000Y-95520342D02*
X138095783Y-95520342D01*
X137885000Y-95723542D02*
X138185739Y-95723542D01*
X137885000Y-95926742D02*
X138275695Y-95926742D01*
X137885000Y-96129942D02*
X138374938Y-96129942D01*
X138084722Y-96333142D02*
X138588160Y-96333142D01*
X138287922Y-96536342D02*
X138801383Y-96536342D01*
X214105655Y-66744926D02*
X214195225Y-66804774D01*
X214255074Y-66894345D01*
X214290000Y-67069930D01*
X214290000Y-114930070D01*
X214255074Y-115105655D01*
X214195225Y-115195226D01*
X214105655Y-115255074D01*
X213930070Y-115290000D01*
X134569930Y-115290000D01*
X134394345Y-115255074D01*
X134304774Y-115195225D01*
X134244926Y-115105655D01*
X134210000Y-114930070D01*
X134210000Y-113442619D01*
X134264613Y-113442619D01*
X134604155Y-114264372D01*
X135232321Y-114893636D01*
X136053481Y-115234611D01*
X136942619Y-115235387D01*
X137764372Y-114895845D01*
X138393636Y-114267679D01*
X138734611Y-113446519D01*
X138735387Y-112557381D01*
X138395845Y-111735628D01*
X137767679Y-111106364D01*
X136946519Y-110765389D01*
X136057381Y-110764613D01*
X135235628Y-111104155D01*
X134606364Y-111732321D01*
X134265389Y-112553481D01*
X134264613Y-113442619D01*
X134210000Y-113442619D01*
X134210000Y-86912750D01*
X139857000Y-86912750D01*
X139857000Y-88227357D01*
X140031011Y-88647458D01*
X140352543Y-88968989D01*
X140772643Y-89143000D01*
X143087250Y-89143000D01*
X143373000Y-88857250D01*
X143373000Y-86627000D01*
X140142750Y-86627000D01*
X139857000Y-86912750D01*
X134210000Y-86912750D01*
X134210000Y-80984862D01*
X134252956Y-81049151D01*
X134324209Y-81155789D01*
X134965247Y-81796826D01*
X134964735Y-82383991D01*
X135197932Y-82948371D01*
X135629357Y-83380551D01*
X136193330Y-83614733D01*
X136803991Y-83615265D01*
X137368371Y-83382068D01*
X137800551Y-82950643D01*
X138034733Y-82386670D01*
X138035265Y-81776009D01*
X137802068Y-81211629D01*
X137653628Y-81062930D01*
X137677886Y-80897491D01*
X136500000Y-79719605D01*
X136485858Y-79733748D01*
X136306253Y-79554143D01*
X136320395Y-79540000D01*
X136306253Y-79525858D01*
X136485858Y-79346253D01*
X136500000Y-79360395D01*
X136514143Y-79346253D01*
X136693748Y-79525858D01*
X136679605Y-79540000D01*
X137857491Y-80717886D01*
X138256716Y-80659349D01*
X138551350Y-79901877D01*
X138533684Y-79089313D01*
X138256716Y-78420651D01*
X137857494Y-78362114D01*
X138060966Y-78158642D01*
X138006162Y-78103838D01*
X138047440Y-77900000D01*
X138047440Y-76100000D01*
X138003162Y-75864683D01*
X137864090Y-75648559D01*
X137651890Y-75503569D01*
X137400000Y-75452560D01*
X135834999Y-75452560D01*
X135834999Y-75416581D01*
X137366579Y-73885000D01*
X140352560Y-73885000D01*
X140352560Y-74500000D01*
X140396838Y-74735317D01*
X140535910Y-74951441D01*
X140748110Y-75096431D01*
X141000000Y-75147440D01*
X145315841Y-75147440D01*
X145520961Y-75352560D01*
X141000000Y-75352560D01*
X140764683Y-75396838D01*
X140548559Y-75535910D01*
X140403569Y-75748110D01*
X140352560Y-76000000D01*
X140352560Y-79000000D01*
X140396838Y-79235317D01*
X140535910Y-79451441D01*
X140748110Y-79596431D01*
X141000000Y-79647440D01*
X145600981Y-79647440D01*
X145395860Y-79852560D01*
X141000000Y-79852560D01*
X140764683Y-79896838D01*
X140548559Y-80035910D01*
X140403569Y-80248110D01*
X140352560Y-80500000D01*
X140352560Y-83500000D01*
X140396838Y-83735317D01*
X140535910Y-83951441D01*
X140539206Y-83953693D01*
X140352543Y-84031011D01*
X140031011Y-84352542D01*
X139857000Y-84772643D01*
X139857000Y-86087250D01*
X140142750Y-86373000D01*
X143373000Y-86373000D01*
X143373000Y-86353000D01*
X143627000Y-86353000D01*
X143627000Y-86373000D01*
X143647000Y-86373000D01*
X143647000Y-86627000D01*
X143627000Y-86627000D01*
X143627000Y-88857250D01*
X143912750Y-89143000D01*
X145105420Y-89143000D01*
X143400102Y-90848318D01*
X138766687Y-90848318D01*
X138766682Y-90848317D01*
X138484198Y-90904508D01*
X138428007Y-90915685D01*
X138140892Y-91107528D01*
X138140890Y-91107531D01*
X136374210Y-92874210D01*
X136182367Y-93161325D01*
X136182367Y-93161326D01*
X136114999Y-93500000D01*
X136115000Y-93500005D01*
X136115000Y-96499995D01*
X136114999Y-96500000D01*
X136150040Y-96676157D01*
X136182367Y-96838675D01*
X136213321Y-96885001D01*
X136374210Y-97125790D01*
X137374208Y-98125787D01*
X137374210Y-98125790D01*
X137566054Y-98253975D01*
X137661326Y-98317634D01*
X138000000Y-98385001D01*
X138000005Y-98385000D01*
X138804002Y-98385000D01*
X138940330Y-98589029D01*
X139211172Y-98770000D01*
X138940330Y-98950971D01*
X138615474Y-99437152D01*
X138501400Y-100010641D01*
X138501400Y-100069359D01*
X138615474Y-100642848D01*
X138940330Y-101129029D01*
X139426511Y-101453885D01*
X140000000Y-101567959D01*
X140573489Y-101453885D01*
X141059670Y-101129029D01*
X141068805Y-101115358D01*
X141073238Y-101138917D01*
X141212310Y-101355041D01*
X141424510Y-101500031D01*
X141655000Y-101546706D01*
X141655000Y-102933195D01*
X141654999Y-102933200D01*
X141666729Y-102992167D01*
X141722367Y-103271875D01*
X141882604Y-103511688D01*
X141914210Y-103558990D01*
X146499313Y-108144093D01*
X146365372Y-108466659D01*
X146364630Y-109316015D01*
X146688980Y-110101000D01*
X147289041Y-110702109D01*
X147813082Y-110919710D01*
X147161400Y-111188980D01*
X146560291Y-111789041D01*
X146234572Y-112573459D01*
X146233830Y-113422815D01*
X146558180Y-114207800D01*
X147158241Y-114808909D01*
X147942659Y-115134628D01*
X148792015Y-115135370D01*
X149577000Y-114811020D01*
X150178109Y-114210959D01*
X150503828Y-113426541D01*
X150503871Y-113377265D01*
X151594670Y-113377265D01*
X151884078Y-114077686D01*
X152419495Y-114614039D01*
X153119410Y-114904668D01*
X153877265Y-114905330D01*
X154577686Y-114615922D01*
X155114039Y-114080505D01*
X155404668Y-113380590D01*
X155404764Y-113270465D01*
X156594670Y-113270465D01*
X156884078Y-113970886D01*
X157419495Y-114507239D01*
X158119410Y-114797868D01*
X158877265Y-114798530D01*
X159577686Y-114509122D01*
X160114039Y-113973705D01*
X160334564Y-113442619D01*
X209764613Y-113442619D01*
X210104155Y-114264372D01*
X210732321Y-114893636D01*
X211553481Y-115234611D01*
X212442619Y-115235387D01*
X213264372Y-114895845D01*
X213893636Y-114267679D01*
X214234611Y-113446519D01*
X214235387Y-112557381D01*
X213895845Y-111735628D01*
X213267679Y-111106364D01*
X212446519Y-110765389D01*
X211557381Y-110764613D01*
X210735628Y-111104155D01*
X210106364Y-111732321D01*
X209765389Y-112553481D01*
X209764613Y-113442619D01*
X160334564Y-113442619D01*
X160404668Y-113273790D01*
X160405330Y-112515935D01*
X160115922Y-111815514D01*
X159580505Y-111279161D01*
X158880590Y-110988532D01*
X158122735Y-110987870D01*
X157422314Y-111277278D01*
X156885961Y-111812695D01*
X156595332Y-112512610D01*
X156594670Y-113270465D01*
X155404764Y-113270465D01*
X155405330Y-112622735D01*
X155115922Y-111922314D01*
X154580505Y-111385961D01*
X153880590Y-111095332D01*
X153122735Y-111094670D01*
X152422314Y-111384078D01*
X151885961Y-111919495D01*
X151595332Y-112619410D01*
X151594670Y-113377265D01*
X150503871Y-113377265D01*
X150504570Y-112577185D01*
X150369789Y-112250990D01*
X150494986Y-112125793D01*
X150494989Y-112125791D01*
X151825245Y-110795534D01*
X151825248Y-110795532D01*
X152017091Y-110508417D01*
X152084147Y-110171305D01*
X152419495Y-110507239D01*
X153119410Y-110797868D01*
X153877265Y-110798530D01*
X154577686Y-110509122D01*
X155114039Y-109973705D01*
X155404668Y-109273790D01*
X155404670Y-109270465D01*
X156594670Y-109270465D01*
X156884078Y-109970886D01*
X157419495Y-110507239D01*
X158119410Y-110797868D01*
X158877265Y-110798530D01*
X159577686Y-110509122D01*
X160114039Y-109973705D01*
X160404668Y-109273790D01*
X160405330Y-108515935D01*
X160115922Y-107815514D01*
X159580505Y-107279161D01*
X158880590Y-106988532D01*
X158122735Y-106987870D01*
X157422314Y-107277278D01*
X156885961Y-107812695D01*
X156595332Y-108512610D01*
X156594670Y-109270465D01*
X155404670Y-109270465D01*
X155405330Y-108515935D01*
X155115922Y-107815514D01*
X154580505Y-107279161D01*
X153880590Y-106988532D01*
X153263587Y-106987993D01*
X156193565Y-104058014D01*
X157575708Y-104058014D01*
X157575713Y-104058015D01*
X157858197Y-104001824D01*
X157914388Y-103990647D01*
X158201503Y-103798804D01*
X158201504Y-103798803D01*
X159285787Y-102714519D01*
X159285790Y-102714517D01*
X159477633Y-102427402D01*
X159545000Y-102088727D01*
X159545000Y-92539558D01*
X162681447Y-92539558D01*
X162752214Y-92949149D01*
X163545878Y-93260469D01*
X164398265Y-93244369D01*
X165110986Y-92949149D01*
X165181753Y-92539558D01*
X163931600Y-91289405D01*
X162681447Y-92539558D01*
X159545000Y-92539558D01*
X159545000Y-90724078D01*
X161780931Y-90724078D01*
X161797031Y-91576465D01*
X162092251Y-92289186D01*
X162501842Y-92359953D01*
X163751995Y-91109800D01*
X164111205Y-91109800D01*
X165361358Y-92359953D01*
X165770949Y-92289186D01*
X166082269Y-91495522D01*
X166066169Y-90643135D01*
X165770949Y-89930414D01*
X165361358Y-89859647D01*
X164111205Y-91109800D01*
X163751995Y-91109800D01*
X162501842Y-89859647D01*
X162092251Y-89930414D01*
X161780931Y-90724078D01*
X159545000Y-90724078D01*
X159545000Y-89680042D01*
X162681447Y-89680042D01*
X163931600Y-90930195D01*
X165181753Y-89680042D01*
X165110986Y-89270451D01*
X164317322Y-88959131D01*
X163464935Y-88975231D01*
X162752214Y-89270451D01*
X162681447Y-89680042D01*
X159545000Y-89680042D01*
X159545000Y-88144171D01*
X159875824Y-87813923D01*
X160094750Y-87286691D01*
X160095248Y-86715813D01*
X159877243Y-86188200D01*
X159473923Y-85784176D01*
X158946691Y-85565250D01*
X158375813Y-85564752D01*
X158005000Y-85717969D01*
X158005000Y-82500790D01*
X158580926Y-81924863D01*
X158631887Y-81935000D01*
X158688113Y-81935000D01*
X159237264Y-81825767D01*
X159702811Y-81514698D01*
X160013880Y-81049151D01*
X160123113Y-80500000D01*
X160013880Y-79950849D01*
X159702811Y-79485302D01*
X159545000Y-79379856D01*
X159545000Y-75747440D01*
X159760000Y-75747440D01*
X159995317Y-75703162D01*
X160211441Y-75564090D01*
X160356431Y-75351890D01*
X160407440Y-75100000D01*
X160407440Y-72900000D01*
X160363162Y-72664683D01*
X160224090Y-72448559D01*
X160011890Y-72303569D01*
X159760000Y-72252560D01*
X157560000Y-72252560D01*
X157324683Y-72296838D01*
X157108559Y-72435910D01*
X156963569Y-72648110D01*
X156912560Y-72900000D01*
X156912560Y-73115000D01*
X154548791Y-73115000D01*
X154548786Y-73114999D01*
X154210111Y-73182367D01*
X153922996Y-73374210D01*
X153922994Y-73374213D01*
X152432205Y-74865001D01*
X150002588Y-74865001D01*
X150136922Y-74663956D01*
X150268991Y-74000000D01*
X150183147Y-73568433D01*
X154366579Y-69385000D01*
X160869522Y-69385000D01*
X161167630Y-69683629D01*
X161680900Y-69896757D01*
X162236661Y-69897242D01*
X162750303Y-69685010D01*
X163143629Y-69292370D01*
X163229949Y-69084488D01*
X163314990Y-69290303D01*
X163707630Y-69683629D01*
X164220900Y-69896757D01*
X164645548Y-69897128D01*
X167115000Y-72366579D01*
X167115000Y-99416837D01*
X164369476Y-102162360D01*
X162931600Y-102162360D01*
X162696283Y-102206638D01*
X162480159Y-102345710D01*
X162335169Y-102557910D01*
X162284160Y-102809800D01*
X162284160Y-104809800D01*
X162328438Y-105045117D01*
X162467510Y-105261241D01*
X162679710Y-105406231D01*
X162931600Y-105457240D01*
X164931600Y-105457240D01*
X165166917Y-105412962D01*
X165383041Y-105273890D01*
X165528031Y-105061690D01*
X165579040Y-104809800D01*
X165579040Y-104282125D01*
X185269787Y-104282125D01*
X185632116Y-105159029D01*
X186302442Y-105830526D01*
X187178713Y-106194385D01*
X188127525Y-106195213D01*
X189004429Y-105832884D01*
X189675926Y-105162558D01*
X190039785Y-104286287D01*
X190040613Y-103337475D01*
X189678284Y-102460571D01*
X189007958Y-101789074D01*
X188131687Y-101425215D01*
X187182875Y-101424387D01*
X186305971Y-101786716D01*
X185634474Y-102457042D01*
X185270615Y-103333313D01*
X185269787Y-104282125D01*
X165579040Y-104282125D01*
X165579040Y-103455956D01*
X168625787Y-100409208D01*
X168625790Y-100409206D01*
X168817633Y-100122091D01*
X168839802Y-100010641D01*
X168885001Y-99783416D01*
X168885000Y-99783411D01*
X168885000Y-80787125D01*
X185269787Y-80787125D01*
X185632116Y-81664029D01*
X186302442Y-82335526D01*
X187178713Y-82699385D01*
X188127525Y-82700213D01*
X189004429Y-82337884D01*
X189675926Y-81667558D01*
X190039785Y-80791287D01*
X190040613Y-79842475D01*
X189678284Y-78965571D01*
X189007958Y-78294074D01*
X188131687Y-77930215D01*
X187182875Y-77929387D01*
X186305971Y-78291716D01*
X185634474Y-78962042D01*
X185270615Y-79838313D01*
X185269787Y-80787125D01*
X168885000Y-80787125D01*
X168885000Y-72000000D01*
X168817633Y-71661325D01*
X168625790Y-71374210D01*
X168625787Y-71374208D01*
X167148675Y-69897095D01*
X167316661Y-69897242D01*
X167830303Y-69685010D01*
X168073117Y-69442619D01*
X209764613Y-69442619D01*
X210104155Y-70264372D01*
X210732321Y-70893636D01*
X211553481Y-71234611D01*
X212442619Y-71235387D01*
X213264372Y-70895845D01*
X213893636Y-70267679D01*
X214234611Y-69446519D01*
X214235387Y-68557381D01*
X213895845Y-67735628D01*
X213267679Y-67106364D01*
X212446519Y-66765389D01*
X211557381Y-66764613D01*
X210735628Y-67104155D01*
X210106364Y-67732321D01*
X209765389Y-68553481D01*
X209764613Y-69442619D01*
X168073117Y-69442619D01*
X168223629Y-69292370D01*
X168436757Y-68779100D01*
X168437242Y-68223339D01*
X168225010Y-67709697D01*
X167832370Y-67316371D01*
X167319100Y-67103243D01*
X166763339Y-67102758D01*
X166249697Y-67314990D01*
X165856371Y-67707630D01*
X165770051Y-67915512D01*
X165685010Y-67709697D01*
X165292370Y-67316371D01*
X164779100Y-67103243D01*
X164223339Y-67102758D01*
X163709697Y-67314990D01*
X163316371Y-67707630D01*
X163230051Y-67915512D01*
X163145010Y-67709697D01*
X162752370Y-67316371D01*
X162239100Y-67103243D01*
X161683339Y-67102758D01*
X161169697Y-67314990D01*
X160869163Y-67615000D01*
X154000005Y-67615000D01*
X154000000Y-67614999D01*
X153661326Y-67682366D01*
X153586563Y-67732321D01*
X153374210Y-67874210D01*
X153374208Y-67874213D01*
X148908855Y-72339565D01*
X148533991Y-72265000D01*
X148466009Y-72265000D01*
X147802053Y-72397069D01*
X147239179Y-72773170D01*
X146863078Y-73336044D01*
X146731009Y-74000000D01*
X146745771Y-74074211D01*
X146647440Y-73975881D01*
X146647440Y-71500000D01*
X146603162Y-71264683D01*
X146464090Y-71048559D01*
X146251890Y-70903569D01*
X146000000Y-70852560D01*
X141000000Y-70852560D01*
X140764683Y-70896838D01*
X140548559Y-71035910D01*
X140403569Y-71248110D01*
X140352560Y-71500000D01*
X140352560Y-72115000D01*
X137000005Y-72115000D01*
X137000000Y-72114999D01*
X136661325Y-72182367D01*
X136374210Y-72374210D01*
X136374208Y-72374213D01*
X134324209Y-74424211D01*
X134210000Y-74595138D01*
X134210000Y-69442619D01*
X134264613Y-69442619D01*
X134604155Y-70264372D01*
X135232321Y-70893636D01*
X136053481Y-71234611D01*
X136942619Y-71235387D01*
X137764372Y-70895845D01*
X138393636Y-70267679D01*
X138734611Y-69446519D01*
X138735387Y-68557381D01*
X138395845Y-67735628D01*
X137767679Y-67106364D01*
X136946519Y-66765389D01*
X136057381Y-66764613D01*
X135235628Y-67104155D01*
X134606364Y-67732321D01*
X134265389Y-68553481D01*
X134264613Y-69442619D01*
X134210000Y-69442619D01*
X134210000Y-67069930D01*
X134244926Y-66894345D01*
X134304774Y-66804775D01*
X134394345Y-66744926D01*
X134569930Y-66710000D01*
X213930070Y-66710000D01*
X214105655Y-66744926D01*
X134569930Y-66710000D02*
X213930070Y-66710000D01*
X134241175Y-66913200D02*
X135697774Y-66913200D01*
X137302488Y-66913200D02*
X211197774Y-66913200D01*
X212802488Y-66913200D02*
X214258824Y-66913200D01*
X134210000Y-67116400D02*
X135223362Y-67116400D01*
X137777698Y-67116400D02*
X161650323Y-67116400D01*
X162270786Y-67116400D02*
X164190323Y-67116400D01*
X164810786Y-67116400D02*
X166730323Y-67116400D01*
X167350786Y-67116400D02*
X210723362Y-67116400D01*
X213277698Y-67116400D02*
X214290000Y-67116400D01*
X134210000Y-67319600D02*
X135019807Y-67319600D01*
X137980543Y-67319600D02*
X161165079Y-67319600D01*
X162755594Y-67319600D02*
X163705079Y-67319600D01*
X165295594Y-67319600D02*
X166245079Y-67319600D01*
X167835594Y-67319600D02*
X210519807Y-67319600D01*
X213480543Y-67319600D02*
X214290000Y-67319600D01*
X134210000Y-67522800D02*
X134816252Y-67522800D01*
X138183389Y-67522800D02*
X160961525Y-67522800D01*
X162958439Y-67522800D02*
X163501524Y-67522800D01*
X165498439Y-67522800D02*
X166041524Y-67522800D01*
X168038439Y-67522800D02*
X210316252Y-67522800D01*
X213683389Y-67522800D02*
X214290000Y-67522800D01*
X134210000Y-67726000D02*
X134612697Y-67726000D01*
X138386234Y-67726000D02*
X153596024Y-67726000D01*
X163151747Y-67726000D02*
X163308744Y-67726000D01*
X165691747Y-67726000D02*
X165848744Y-67726000D01*
X168231747Y-67726000D02*
X210112697Y-67726000D01*
X213886234Y-67726000D02*
X214290000Y-67726000D01*
X134210000Y-67929200D02*
X134524613Y-67929200D01*
X138475828Y-67929200D02*
X153319221Y-67929200D01*
X168315707Y-67929200D02*
X210024613Y-67929200D01*
X213975828Y-67929200D02*
X214290000Y-67929200D01*
X134210000Y-68132400D02*
X134440237Y-68132400D01*
X138559789Y-68132400D02*
X153116021Y-68132400D01*
X168399667Y-68132400D02*
X209940237Y-68132400D01*
X214059789Y-68132400D02*
X214290000Y-68132400D01*
X134210000Y-68335600D02*
X134355861Y-68335600D01*
X138643749Y-68335600D02*
X152912821Y-68335600D01*
X168437144Y-68335600D02*
X209855861Y-68335600D01*
X214143749Y-68335600D02*
X214290000Y-68335600D01*
X134210000Y-68538800D02*
X134271486Y-68538800D01*
X138727710Y-68538800D02*
X152709621Y-68538800D01*
X168436966Y-68538800D02*
X209771486Y-68538800D01*
X214227710Y-68538800D02*
X214290000Y-68538800D01*
X134210000Y-68742000D02*
X134265225Y-68742000D01*
X138735225Y-68742000D02*
X152506421Y-68742000D01*
X168436789Y-68742000D02*
X209765225Y-68742000D01*
X214235225Y-68742000D02*
X214290000Y-68742000D01*
X134210000Y-68945200D02*
X134265048Y-68945200D01*
X138735048Y-68945200D02*
X152303221Y-68945200D01*
X168367786Y-68945200D02*
X209765048Y-68945200D01*
X214235048Y-68945200D02*
X214290000Y-68945200D01*
X134210000Y-69148400D02*
X134264870Y-69148400D01*
X138734871Y-69148400D02*
X152100021Y-69148400D01*
X163203410Y-69148400D02*
X163256356Y-69148400D01*
X168283410Y-69148400D02*
X209764870Y-69148400D01*
X214234871Y-69148400D02*
X214290000Y-69148400D01*
X134210000Y-69351600D02*
X134264693Y-69351600D01*
X138734693Y-69351600D02*
X151896821Y-69351600D01*
X163084295Y-69351600D02*
X163376180Y-69351600D01*
X168164295Y-69351600D02*
X209764693Y-69351600D01*
X214234693Y-69351600D02*
X214290000Y-69351600D01*
X134210000Y-69554800D02*
X134310965Y-69554800D01*
X138689648Y-69554800D02*
X151693621Y-69554800D01*
X154196779Y-69554800D02*
X161039025Y-69554800D01*
X162880740Y-69554800D02*
X163579025Y-69554800D01*
X167960740Y-69554800D02*
X209810965Y-69554800D01*
X214189648Y-69554800D02*
X214290000Y-69554800D01*
X134210000Y-69758000D02*
X134394925Y-69758000D01*
X138605272Y-69758000D02*
X151490421Y-69758000D01*
X153993579Y-69758000D02*
X161346735Y-69758000D01*
X162573653Y-69758000D02*
X163886735Y-69758000D01*
X167653653Y-69758000D02*
X209894925Y-69758000D01*
X214105272Y-69758000D02*
X214290000Y-69758000D01*
X134210000Y-69961200D02*
X134478886Y-69961200D01*
X138520897Y-69961200D02*
X151287221Y-69961200D01*
X153790379Y-69961200D02*
X164709620Y-69961200D01*
X167212780Y-69961200D02*
X209978886Y-69961200D01*
X214020897Y-69961200D02*
X214290000Y-69961200D01*
X134210000Y-70164400D02*
X134562847Y-70164400D01*
X138436521Y-70164400D02*
X151084021Y-70164400D01*
X153587179Y-70164400D02*
X164912820Y-70164400D01*
X167415980Y-70164400D02*
X210062847Y-70164400D01*
X213936521Y-70164400D02*
X214290000Y-70164400D01*
X134210000Y-70367600D02*
X134707202Y-70367600D01*
X138293540Y-70367600D02*
X150880821Y-70367600D01*
X153383979Y-70367600D02*
X165116020Y-70367600D01*
X167619180Y-70367600D02*
X210207202Y-70367600D01*
X213793540Y-70367600D02*
X214290000Y-70367600D01*
X134210000Y-70570800D02*
X134910048Y-70570800D01*
X138089985Y-70570800D02*
X150677621Y-70570800D01*
X153180779Y-70570800D02*
X165319220Y-70570800D01*
X167822380Y-70570800D02*
X210410048Y-70570800D01*
X213589985Y-70570800D02*
X214290000Y-70570800D01*
X134210000Y-70774000D02*
X135112893Y-70774000D01*
X137886429Y-70774000D02*
X150474421Y-70774000D01*
X152977579Y-70774000D02*
X165522420Y-70774000D01*
X168025580Y-70774000D02*
X210612893Y-70774000D01*
X213386429Y-70774000D02*
X214290000Y-70774000D01*
X134210000Y-70977200D02*
X135433565Y-70977200D01*
X137567478Y-70977200D02*
X140639797Y-70977200D01*
X146359653Y-70977200D02*
X150271221Y-70977200D01*
X152774379Y-70977200D02*
X165725620Y-70977200D01*
X168228780Y-70977200D02*
X210933565Y-70977200D01*
X213067478Y-70977200D02*
X214290000Y-70977200D01*
X134210000Y-71180400D02*
X135922926Y-71180400D01*
X137075697Y-71180400D02*
X140449834Y-71180400D01*
X146548928Y-71180400D02*
X150068021Y-71180400D01*
X152571179Y-71180400D02*
X165928820Y-71180400D01*
X168431980Y-71180400D02*
X211422926Y-71180400D01*
X212575697Y-71180400D02*
X214290000Y-71180400D01*
X134210000Y-71383600D02*
X140376132Y-71383600D01*
X146625538Y-71383600D02*
X149864821Y-71383600D01*
X152367979Y-71383600D02*
X166132020Y-71383600D01*
X168632065Y-71383600D02*
X214290000Y-71383600D01*
X134210000Y-71586800D02*
X140352560Y-71586800D01*
X146647440Y-71586800D02*
X149661621Y-71586800D01*
X152164779Y-71586800D02*
X166335220Y-71586800D01*
X168767838Y-71586800D02*
X214290000Y-71586800D01*
X134210000Y-71790000D02*
X140352560Y-71790000D01*
X146647440Y-71790000D02*
X149458421Y-71790000D01*
X151961579Y-71790000D02*
X166538420Y-71790000D01*
X168843229Y-71790000D02*
X214290000Y-71790000D01*
X134210000Y-71993200D02*
X140352560Y-71993200D01*
X146647440Y-71993200D02*
X149255221Y-71993200D01*
X151758379Y-71993200D02*
X166741620Y-71993200D01*
X168883648Y-71993200D02*
X214290000Y-71993200D01*
X134210000Y-72196400D02*
X136640324Y-72196400D01*
X146647440Y-72196400D02*
X149052021Y-72196400D01*
X151555179Y-72196400D02*
X166944820Y-72196400D01*
X168885000Y-72196400D02*
X214290000Y-72196400D01*
X134210000Y-72399600D02*
X136348821Y-72399600D01*
X146647440Y-72399600D02*
X147798266Y-72399600D01*
X151351979Y-72399600D02*
X157164987Y-72399600D01*
X160152437Y-72399600D02*
X167115000Y-72399600D01*
X168885000Y-72399600D02*
X214290000Y-72399600D01*
X134210000Y-72602800D02*
X136145621Y-72602800D01*
X146647440Y-72602800D02*
X147494156Y-72602800D01*
X151148779Y-72602800D02*
X156994528Y-72602800D01*
X160323342Y-72602800D02*
X167115000Y-72602800D01*
X168885000Y-72602800D02*
X214290000Y-72602800D01*
X134210000Y-72806000D02*
X135942421Y-72806000D01*
X146647440Y-72806000D02*
X147217243Y-72806000D01*
X150945579Y-72806000D02*
X156931596Y-72806000D01*
X160389753Y-72806000D02*
X167115000Y-72806000D01*
X168885000Y-72806000D02*
X214290000Y-72806000D01*
X134210000Y-73009200D02*
X135739221Y-73009200D01*
X146647440Y-73009200D02*
X147081469Y-73009200D01*
X150742379Y-73009200D02*
X156912560Y-73009200D01*
X160407440Y-73009200D02*
X167115000Y-73009200D01*
X168885000Y-73009200D02*
X214290000Y-73009200D01*
X134210000Y-73212400D02*
X135536021Y-73212400D01*
X146647440Y-73212400D02*
X146945695Y-73212400D01*
X150539179Y-73212400D02*
X154165164Y-73212400D01*
X160407440Y-73212400D02*
X167115000Y-73212400D01*
X168885000Y-73212400D02*
X214290000Y-73212400D01*
X134210000Y-73415600D02*
X135332821Y-73415600D01*
X146647440Y-73415600D02*
X146847254Y-73415600D01*
X150335979Y-73415600D02*
X153881607Y-73415600D01*
X160407440Y-73415600D02*
X167115000Y-73415600D01*
X168885000Y-73415600D02*
X214290000Y-73415600D01*
X134210000Y-73618800D02*
X135129621Y-73618800D01*
X146647440Y-73618800D02*
X146806835Y-73618800D01*
X150193166Y-73618800D02*
X153678407Y-73618800D01*
X160407440Y-73618800D02*
X167115000Y-73618800D01*
X168885000Y-73618800D02*
X214290000Y-73618800D01*
X134210000Y-73822000D02*
X134926421Y-73822000D01*
X146647440Y-73822000D02*
X146766416Y-73822000D01*
X150233585Y-73822000D02*
X153475207Y-73822000D01*
X160407440Y-73822000D02*
X167115000Y-73822000D01*
X168885000Y-73822000D02*
X214290000Y-73822000D01*
X134210000Y-74025200D02*
X134723221Y-74025200D01*
X137226379Y-74025200D02*
X140352560Y-74025200D01*
X146696760Y-74025200D02*
X146736021Y-74025200D01*
X150263978Y-74025200D02*
X153272007Y-74025200D01*
X160407440Y-74025200D02*
X167115000Y-74025200D01*
X168885000Y-74025200D02*
X214290000Y-74025200D01*
X134210000Y-74228400D02*
X134520021Y-74228400D01*
X137023179Y-74228400D02*
X140352560Y-74228400D01*
X150223559Y-74228400D02*
X153068807Y-74228400D01*
X160407440Y-74228400D02*
X167115000Y-74228400D01*
X168885000Y-74228400D02*
X214290000Y-74228400D01*
X134210000Y-74431600D02*
X134319272Y-74431600D01*
X136819979Y-74431600D02*
X140352560Y-74431600D01*
X150183140Y-74431600D02*
X152865607Y-74431600D01*
X160407440Y-74431600D02*
X167115000Y-74431600D01*
X168885000Y-74431600D02*
X214290000Y-74431600D01*
X136616779Y-74634800D02*
X140377924Y-74634800D01*
X150142721Y-74634800D02*
X152662407Y-74634800D01*
X160407440Y-74634800D02*
X167115000Y-74634800D01*
X168885000Y-74634800D02*
X214290000Y-74634800D01*
X136413579Y-74838000D02*
X140462912Y-74838000D01*
X150020629Y-74838000D02*
X152459207Y-74838000D01*
X160407440Y-74838000D02*
X167115000Y-74838000D01*
X168885000Y-74838000D02*
X214290000Y-74838000D01*
X136210379Y-75041200D02*
X140667276Y-75041200D01*
X160407440Y-75041200D02*
X167115000Y-75041200D01*
X168885000Y-75041200D02*
X214290000Y-75041200D01*
X136007179Y-75244400D02*
X145412801Y-75244400D01*
X160378198Y-75244400D02*
X167115000Y-75244400D01*
X168885000Y-75244400D02*
X214290000Y-75244400D01*
X135834999Y-75447600D02*
X140685797Y-75447600D01*
X160291035Y-75447600D02*
X167115000Y-75447600D01*
X168885000Y-75447600D02*
X214290000Y-75447600D01*
X137865533Y-75650800D02*
X140470059Y-75650800D01*
X160076689Y-75650800D02*
X167115000Y-75650800D01*
X168885000Y-75650800D02*
X214290000Y-75650800D01*
X137996288Y-75854000D02*
X140382126Y-75854000D01*
X159545000Y-75854000D02*
X167115000Y-75854000D01*
X168885000Y-75854000D02*
X214290000Y-75854000D01*
X138039387Y-76057200D02*
X140352560Y-76057200D01*
X159545000Y-76057200D02*
X167115000Y-76057200D01*
X168885000Y-76057200D02*
X214290000Y-76057200D01*
X138047440Y-76260400D02*
X140352560Y-76260400D01*
X159545000Y-76260400D02*
X167115000Y-76260400D01*
X168885000Y-76260400D02*
X214290000Y-76260400D01*
X138047440Y-76463600D02*
X140352560Y-76463600D01*
X159545000Y-76463600D02*
X167115000Y-76463600D01*
X168885000Y-76463600D02*
X214290000Y-76463600D01*
X138047440Y-76666800D02*
X140352560Y-76666800D01*
X159545000Y-76666800D02*
X167115000Y-76666800D01*
X168885000Y-76666800D02*
X214290000Y-76666800D01*
X138047440Y-76870000D02*
X140352560Y-76870000D01*
X159545000Y-76870000D02*
X167115000Y-76870000D01*
X168885000Y-76870000D02*
X214290000Y-76870000D01*
X138047440Y-77073200D02*
X140352560Y-77073200D01*
X159545000Y-77073200D02*
X167115000Y-77073200D01*
X168885000Y-77073200D02*
X214290000Y-77073200D01*
X138047440Y-77276400D02*
X140352560Y-77276400D01*
X159545000Y-77276400D02*
X167115000Y-77276400D01*
X168885000Y-77276400D02*
X214290000Y-77276400D01*
X138047440Y-77479600D02*
X140352560Y-77479600D01*
X159545000Y-77479600D02*
X167115000Y-77479600D01*
X168885000Y-77479600D02*
X214290000Y-77479600D01*
X138047440Y-77682800D02*
X140352560Y-77682800D01*
X159545000Y-77682800D02*
X167115000Y-77682800D01*
X168885000Y-77682800D02*
X214290000Y-77682800D01*
X138047440Y-77886000D02*
X140352560Y-77886000D01*
X159545000Y-77886000D02*
X167115000Y-77886000D01*
X168885000Y-77886000D02*
X214290000Y-77886000D01*
X138009126Y-78089200D02*
X140352560Y-78089200D01*
X159545000Y-78089200D02*
X167115000Y-78089200D01*
X168885000Y-78089200D02*
X186796098Y-78089200D01*
X188514566Y-78089200D02*
X214290000Y-78089200D01*
X137927208Y-78292400D02*
X140352560Y-78292400D01*
X159545000Y-78292400D02*
X167115000Y-78292400D01*
X168885000Y-78292400D02*
X186305286Y-78292400D01*
X189003927Y-78292400D02*
X214290000Y-78292400D01*
X138287761Y-78495600D02*
X140352560Y-78495600D01*
X159545000Y-78495600D02*
X167115000Y-78495600D01*
X168885000Y-78495600D02*
X186101731Y-78495600D01*
X189209133Y-78495600D02*
X214290000Y-78495600D01*
X138371929Y-78698800D02*
X140352560Y-78698800D01*
X159545000Y-78698800D02*
X167115000Y-78698800D01*
X168885000Y-78698800D02*
X185898176Y-78698800D01*
X189411979Y-78698800D02*
X214290000Y-78698800D01*
X138456097Y-78902000D02*
X140352560Y-78902000D01*
X159545000Y-78902000D02*
X167115000Y-78902000D01*
X168885000Y-78902000D02*
X185694621Y-78902000D01*
X189614824Y-78902000D02*
X214290000Y-78902000D01*
X138534030Y-79105200D02*
X140372354Y-79105200D01*
X159545000Y-79105200D02*
X167115000Y-79105200D01*
X168885000Y-79105200D02*
X185575030Y-79105200D01*
X189735978Y-79105200D02*
X214290000Y-79105200D01*
X138538448Y-79308400D02*
X140443865Y-79308400D01*
X159545000Y-79308400D02*
X167115000Y-79308400D01*
X168885000Y-79308400D02*
X185490654Y-79308400D01*
X189819938Y-79308400D02*
X214290000Y-79308400D01*
X136320511Y-79511600D02*
X136679490Y-79511600D01*
X138542865Y-79511600D02*
X140623955Y-79511600D01*
X159720383Y-79511600D02*
X167115000Y-79511600D01*
X168885000Y-79511600D02*
X185406278Y-79511600D01*
X189903899Y-79511600D02*
X214290000Y-79511600D01*
X136466910Y-79714800D02*
X136854405Y-79714800D01*
X138547283Y-79714800D02*
X145533621Y-79714800D01*
X159856157Y-79714800D02*
X167115000Y-79714800D01*
X168885000Y-79714800D02*
X185321903Y-79714800D01*
X189987859Y-79714800D02*
X214290000Y-79714800D01*
X136698395Y-79918000D02*
X137057605Y-79918000D01*
X138545078Y-79918000D02*
X140731797Y-79918000D01*
X159991931Y-79918000D02*
X167115000Y-79918000D01*
X168885000Y-79918000D02*
X185270546Y-79918000D01*
X190040547Y-79918000D02*
X214290000Y-79918000D01*
X136901595Y-80121200D02*
X137260805Y-80121200D01*
X138466039Y-80121200D02*
X140490283Y-80121200D01*
X160047765Y-80121200D02*
X167115000Y-80121200D01*
X168885000Y-80121200D02*
X185270369Y-80121200D01*
X190040369Y-80121200D02*
X214290000Y-80121200D01*
X137104795Y-80324400D02*
X137464005Y-80324400D01*
X138387001Y-80324400D02*
X140388120Y-80324400D01*
X160088184Y-80324400D02*
X167115000Y-80324400D01*
X168885000Y-80324400D02*
X185270191Y-80324400D01*
X190040192Y-80324400D02*
X214290000Y-80324400D01*
X137307995Y-80527600D02*
X137667205Y-80527600D01*
X138307962Y-80527600D02*
X140352560Y-80527600D01*
X160117623Y-80527600D02*
X167115000Y-80527600D01*
X168885000Y-80527600D02*
X185270014Y-80527600D01*
X190040015Y-80527600D02*
X214290000Y-80527600D01*
X137511195Y-80730800D02*
X140352560Y-80730800D01*
X160077203Y-80730800D02*
X167115000Y-80730800D01*
X168885000Y-80730800D02*
X185269837Y-80730800D01*
X190039837Y-80730800D02*
X214290000Y-80730800D01*
X137672532Y-80934000D02*
X140352560Y-80934000D01*
X160036784Y-80934000D02*
X167115000Y-80934000D01*
X168885000Y-80934000D02*
X185330474Y-80934000D01*
X189980525Y-80934000D02*
X214290000Y-80934000D01*
X134210000Y-81137200D02*
X134311788Y-81137200D01*
X137727769Y-81137200D02*
X140352560Y-81137200D01*
X159955047Y-81137200D02*
X167115000Y-81137200D01*
X168885000Y-81137200D02*
X185414434Y-81137200D01*
X189896149Y-81137200D02*
X214290000Y-81137200D01*
X134210000Y-81340400D02*
X134508820Y-81340400D01*
X137855276Y-81340400D02*
X140352560Y-81340400D01*
X159819273Y-81340400D02*
X167115000Y-81340400D01*
X168885000Y-81340400D02*
X185498395Y-81340400D01*
X189811773Y-81340400D02*
X214290000Y-81340400D01*
X134210000Y-81543600D02*
X134712020Y-81543600D01*
X137939236Y-81543600D02*
X140352560Y-81543600D01*
X159659556Y-81543600D02*
X167115000Y-81543600D01*
X168885000Y-81543600D02*
X185582355Y-81543600D01*
X189727397Y-81543600D02*
X214290000Y-81543600D01*
X134210000Y-81746800D02*
X134915220Y-81746800D01*
X138023197Y-81746800D02*
X140352560Y-81746800D01*
X159355446Y-81746800D02*
X167115000Y-81746800D01*
X168885000Y-81746800D02*
X185714742Y-81746800D01*
X189596545Y-81746800D02*
X214290000Y-81746800D01*
X134210000Y-81950000D02*
X134965114Y-81950000D01*
X138035113Y-81950000D02*
X140352560Y-81950000D01*
X158555789Y-81950000D02*
X167115000Y-81950000D01*
X168885000Y-81950000D02*
X185917588Y-81950000D01*
X189392990Y-81950000D02*
X214290000Y-81950000D01*
X134210000Y-82153200D02*
X134964937Y-82153200D01*
X138034936Y-82153200D02*
X140352560Y-82153200D01*
X158352589Y-82153200D02*
X167115000Y-82153200D01*
X168885000Y-82153200D02*
X186120433Y-82153200D01*
X189189435Y-82153200D02*
X214290000Y-82153200D01*
X134210000Y-82356400D02*
X134964760Y-82356400D01*
X138034759Y-82356400D02*
X140352560Y-82356400D01*
X158149389Y-82356400D02*
X167115000Y-82356400D01*
X168885000Y-82356400D02*
X186352712Y-82356400D01*
X188959616Y-82356400D02*
X214290000Y-82356400D01*
X134210000Y-82559600D02*
X135037295Y-82559600D01*
X137962926Y-82559600D02*
X140352560Y-82559600D01*
X158005000Y-82559600D02*
X167115000Y-82559600D01*
X168885000Y-82559600D02*
X186842072Y-82559600D01*
X188467834Y-82559600D02*
X214290000Y-82559600D01*
X134210000Y-82762800D02*
X135121255Y-82762800D01*
X137878550Y-82762800D02*
X140352560Y-82762800D01*
X158005000Y-82762800D02*
X167115000Y-82762800D01*
X168885000Y-82762800D02*
X214290000Y-82762800D01*
X134210000Y-82966000D02*
X135215530Y-82966000D01*
X137785167Y-82966000D02*
X140352560Y-82966000D01*
X158005000Y-82966000D02*
X167115000Y-82966000D01*
X168885000Y-82966000D02*
X214290000Y-82966000D01*
X134210000Y-83169200D02*
X135418375Y-83169200D01*
X137581611Y-83169200D02*
X140352560Y-83169200D01*
X158005000Y-83169200D02*
X167115000Y-83169200D01*
X168885000Y-83169200D02*
X214290000Y-83169200D01*
X134210000Y-83372400D02*
X135621220Y-83372400D01*
X137378055Y-83372400D02*
X140352560Y-83372400D01*
X158005000Y-83372400D02*
X167115000Y-83372400D01*
X168885000Y-83372400D02*
X214290000Y-83372400D01*
X134210000Y-83575600D02*
X136099087Y-83575600D01*
X136899987Y-83575600D02*
X140366785Y-83575600D01*
X158005000Y-83575600D02*
X167115000Y-83575600D01*
X168885000Y-83575600D02*
X214290000Y-83575600D01*
X134210000Y-83778800D02*
X140424818Y-83778800D01*
X158005000Y-83778800D02*
X167115000Y-83778800D01*
X168885000Y-83778800D02*
X214290000Y-83778800D01*
X134210000Y-83982000D02*
X140470867Y-83982000D01*
X158005000Y-83982000D02*
X167115000Y-83982000D01*
X168885000Y-83982000D02*
X214290000Y-83982000D01*
X134210000Y-84185200D02*
X140198354Y-84185200D01*
X158005000Y-84185200D02*
X167115000Y-84185200D01*
X168885000Y-84185200D02*
X214290000Y-84185200D01*
X134210000Y-84388400D02*
X140016159Y-84388400D01*
X158005000Y-84388400D02*
X167115000Y-84388400D01*
X168885000Y-84388400D02*
X214290000Y-84388400D01*
X134210000Y-84591600D02*
X139931991Y-84591600D01*
X158005000Y-84591600D02*
X167115000Y-84591600D01*
X168885000Y-84591600D02*
X214290000Y-84591600D01*
X134210000Y-84794800D02*
X139857000Y-84794800D01*
X158005000Y-84794800D02*
X167115000Y-84794800D01*
X168885000Y-84794800D02*
X214290000Y-84794800D01*
X134210000Y-84998000D02*
X139857000Y-84998000D01*
X158005000Y-84998000D02*
X167115000Y-84998000D01*
X168885000Y-84998000D02*
X214290000Y-84998000D01*
X134210000Y-85201200D02*
X139857000Y-85201200D01*
X158005000Y-85201200D02*
X167115000Y-85201200D01*
X168885000Y-85201200D02*
X214290000Y-85201200D01*
X134210000Y-85404400D02*
X139857000Y-85404400D01*
X158005000Y-85404400D02*
X167115000Y-85404400D01*
X168885000Y-85404400D02*
X214290000Y-85404400D01*
X134210000Y-85607600D02*
X139857000Y-85607600D01*
X158005000Y-85607600D02*
X158272114Y-85607600D01*
X159048682Y-85607600D02*
X167115000Y-85607600D01*
X168885000Y-85607600D02*
X214290000Y-85607600D01*
X134210000Y-85810800D02*
X139857000Y-85810800D01*
X159500501Y-85810800D02*
X167115000Y-85810800D01*
X168885000Y-85810800D02*
X214290000Y-85810800D01*
X134210000Y-86014000D02*
X139857000Y-86014000D01*
X159703347Y-86014000D02*
X167115000Y-86014000D01*
X168885000Y-86014000D02*
X214290000Y-86014000D01*
X134210000Y-86217200D02*
X139986950Y-86217200D01*
X159889226Y-86217200D02*
X167115000Y-86217200D01*
X168885000Y-86217200D02*
X214290000Y-86217200D01*
X134210000Y-86420400D02*
X143647000Y-86420400D01*
X159973186Y-86420400D02*
X167115000Y-86420400D01*
X168885000Y-86420400D02*
X214290000Y-86420400D01*
X134210000Y-86623600D02*
X143647000Y-86623600D01*
X160057147Y-86623600D02*
X167115000Y-86623600D01*
X168885000Y-86623600D02*
X214290000Y-86623600D01*
X134210000Y-86826800D02*
X139942950Y-86826800D01*
X143373000Y-86826800D02*
X143627000Y-86826800D01*
X160095151Y-86826800D02*
X167115000Y-86826800D01*
X168885000Y-86826800D02*
X214290000Y-86826800D01*
X134210000Y-87030000D02*
X139857000Y-87030000D01*
X143373000Y-87030000D02*
X143627000Y-87030000D01*
X160094973Y-87030000D02*
X167115000Y-87030000D01*
X168885000Y-87030000D02*
X214290000Y-87030000D01*
X134210000Y-87233200D02*
X139857000Y-87233200D01*
X143373000Y-87233200D02*
X143627000Y-87233200D01*
X160094796Y-87233200D02*
X167115000Y-87233200D01*
X168885000Y-87233200D02*
X214290000Y-87233200D01*
X134210000Y-87436400D02*
X139857000Y-87436400D01*
X143373000Y-87436400D02*
X143627000Y-87436400D01*
X160032585Y-87436400D02*
X167115000Y-87436400D01*
X168885000Y-87436400D02*
X214290000Y-87436400D01*
X134210000Y-87639600D02*
X139857000Y-87639600D01*
X143373000Y-87639600D02*
X143627000Y-87639600D01*
X159948209Y-87639600D02*
X167115000Y-87639600D01*
X168885000Y-87639600D02*
X214290000Y-87639600D01*
X134210000Y-87842800D02*
X139857000Y-87842800D01*
X143373000Y-87842800D02*
X143627000Y-87842800D01*
X159846896Y-87842800D02*
X167115000Y-87842800D01*
X168885000Y-87842800D02*
X214290000Y-87842800D01*
X134210000Y-88046000D02*
X139857000Y-88046000D01*
X143373000Y-88046000D02*
X143627000Y-88046000D01*
X159643342Y-88046000D02*
X167115000Y-88046000D01*
X168885000Y-88046000D02*
X214290000Y-88046000D01*
X134210000Y-88249200D02*
X139866047Y-88249200D01*
X143373000Y-88249200D02*
X143627000Y-88249200D01*
X159545000Y-88249200D02*
X167115000Y-88249200D01*
X168885000Y-88249200D02*
X214290000Y-88249200D01*
X134210000Y-88452400D02*
X139950215Y-88452400D01*
X143373000Y-88452400D02*
X143627000Y-88452400D01*
X159545000Y-88452400D02*
X167115000Y-88452400D01*
X168885000Y-88452400D02*
X214290000Y-88452400D01*
X134210000Y-88655600D02*
X140039153Y-88655600D01*
X143373000Y-88655600D02*
X143627000Y-88655600D01*
X159545000Y-88655600D02*
X167115000Y-88655600D01*
X168885000Y-88655600D02*
X214290000Y-88655600D01*
X134210000Y-88858800D02*
X140242353Y-88858800D01*
X143371450Y-88858800D02*
X143628550Y-88858800D01*
X159545000Y-88858800D02*
X167115000Y-88858800D01*
X168885000Y-88858800D02*
X214290000Y-88858800D01*
X134210000Y-89062000D02*
X140577091Y-89062000D01*
X143168250Y-89062000D02*
X143831750Y-89062000D01*
X159545000Y-89062000D02*
X163255458Y-89062000D01*
X164579572Y-89062000D02*
X167115000Y-89062000D01*
X168885000Y-89062000D02*
X214290000Y-89062000D01*
X134210000Y-89265200D02*
X144983220Y-89265200D01*
X159545000Y-89265200D02*
X162764891Y-89265200D01*
X165097600Y-89265200D02*
X167115000Y-89265200D01*
X168885000Y-89265200D02*
X214290000Y-89265200D01*
X134210000Y-89468400D02*
X144780020Y-89468400D01*
X159545000Y-89468400D02*
X162718014Y-89468400D01*
X165145187Y-89468400D02*
X167115000Y-89468400D01*
X168885000Y-89468400D02*
X214290000Y-89468400D01*
X134210000Y-89671600D02*
X144576820Y-89671600D01*
X159545000Y-89671600D02*
X162682906Y-89671600D01*
X165180295Y-89671600D02*
X167115000Y-89671600D01*
X168885000Y-89671600D02*
X214290000Y-89671600D01*
X134210000Y-89874800D02*
X144373620Y-89874800D01*
X159545000Y-89874800D02*
X162414139Y-89874800D01*
X162516995Y-89874800D02*
X162876205Y-89874800D01*
X164986995Y-89874800D02*
X165346205Y-89874800D01*
X165449062Y-89874800D02*
X167115000Y-89874800D01*
X168885000Y-89874800D02*
X214290000Y-89874800D01*
X134210000Y-90078000D02*
X144170420Y-90078000D01*
X159545000Y-90078000D02*
X162034360Y-90078000D01*
X162720195Y-90078000D02*
X163079405Y-90078000D01*
X164783795Y-90078000D02*
X165143005Y-90078000D01*
X165832082Y-90078000D02*
X167115000Y-90078000D01*
X168885000Y-90078000D02*
X214290000Y-90078000D01*
X134210000Y-90281200D02*
X143967220Y-90281200D01*
X159545000Y-90281200D02*
X161954653Y-90281200D01*
X162923395Y-90281200D02*
X163282605Y-90281200D01*
X164580595Y-90281200D02*
X164939805Y-90281200D01*
X165916250Y-90281200D02*
X167115000Y-90281200D01*
X168885000Y-90281200D02*
X214290000Y-90281200D01*
X134210000Y-90484400D02*
X143764020Y-90484400D01*
X159545000Y-90484400D02*
X161874947Y-90484400D01*
X163126595Y-90484400D02*
X163485805Y-90484400D01*
X164377395Y-90484400D02*
X164736605Y-90484400D01*
X166000419Y-90484400D02*
X167115000Y-90484400D01*
X168885000Y-90484400D02*
X214290000Y-90484400D01*
X134210000Y-90687600D02*
X143560820Y-90687600D01*
X159545000Y-90687600D02*
X161795240Y-90687600D01*
X163329795Y-90687600D02*
X163689005Y-90687600D01*
X164174195Y-90687600D02*
X164533405Y-90687600D01*
X166067009Y-90687600D02*
X167115000Y-90687600D01*
X168885000Y-90687600D02*
X214290000Y-90687600D01*
X134210000Y-90890800D02*
X138553112Y-90890800D01*
X159545000Y-90890800D02*
X161784080Y-90890800D01*
X163532995Y-90890800D02*
X163892205Y-90890800D01*
X163970995Y-90890800D02*
X164330205Y-90890800D01*
X166070847Y-90890800D02*
X167115000Y-90890800D01*
X168885000Y-90890800D02*
X214290000Y-90890800D01*
X134210000Y-91094000D02*
X138161139Y-91094000D01*
X159545000Y-91094000D02*
X161787918Y-91094000D01*
X163736195Y-91094000D02*
X164127005Y-91094000D01*
X166074685Y-91094000D02*
X167115000Y-91094000D01*
X168885000Y-91094000D02*
X214290000Y-91094000D01*
X134210000Y-91297200D02*
X137951221Y-91297200D01*
X159545000Y-91297200D02*
X161791756Y-91297200D01*
X163564595Y-91297200D02*
X163923805Y-91297200D01*
X163939395Y-91297200D02*
X164298605Y-91297200D01*
X166078524Y-91297200D02*
X167115000Y-91297200D01*
X168885000Y-91297200D02*
X214290000Y-91297200D01*
X134210000Y-91500400D02*
X137748021Y-91500400D01*
X159545000Y-91500400D02*
X161795594Y-91500400D01*
X163361395Y-91500400D02*
X163720605Y-91500400D01*
X164142595Y-91500400D02*
X164501805Y-91500400D01*
X166080355Y-91500400D02*
X167115000Y-91500400D01*
X168885000Y-91500400D02*
X214290000Y-91500400D01*
X134210000Y-91703600D02*
X137544821Y-91703600D01*
X159545000Y-91703600D02*
X161849692Y-91703600D01*
X163158195Y-91703600D02*
X163517405Y-91703600D01*
X164345795Y-91703600D02*
X164705005Y-91703600D01*
X166000649Y-91703600D02*
X167115000Y-91703600D01*
X168885000Y-91703600D02*
X214290000Y-91703600D01*
X134210000Y-91906800D02*
X137341621Y-91906800D01*
X159545000Y-91906800D02*
X161933860Y-91906800D01*
X162954995Y-91906800D02*
X163314205Y-91906800D01*
X164548995Y-91906800D02*
X164908205Y-91906800D01*
X165920942Y-91906800D02*
X167115000Y-91906800D01*
X168885000Y-91906800D02*
X214290000Y-91906800D01*
X134210000Y-92110000D02*
X137138421Y-92110000D01*
X159545000Y-92110000D02*
X162018029Y-92110000D01*
X162751795Y-92110000D02*
X163111005Y-92110000D01*
X164752195Y-92110000D02*
X165111405Y-92110000D01*
X165841235Y-92110000D02*
X167115000Y-92110000D01*
X168885000Y-92110000D02*
X214290000Y-92110000D01*
X134210000Y-92313200D02*
X136935221Y-92313200D01*
X159545000Y-92313200D02*
X162231241Y-92313200D01*
X162548595Y-92313200D02*
X162907805Y-92313200D01*
X164955395Y-92313200D02*
X165314605Y-92313200D01*
X165631958Y-92313200D02*
X167115000Y-92313200D01*
X168885000Y-92313200D02*
X214290000Y-92313200D01*
X134210000Y-92516400D02*
X136732021Y-92516400D01*
X159545000Y-92516400D02*
X162704605Y-92516400D01*
X165158595Y-92516400D02*
X167115000Y-92516400D01*
X168885000Y-92516400D02*
X214290000Y-92516400D01*
X134210000Y-92719600D02*
X136528821Y-92719600D01*
X159545000Y-92719600D02*
X162712553Y-92719600D01*
X165150646Y-92719600D02*
X167115000Y-92719600D01*
X168885000Y-92719600D02*
X214290000Y-92719600D01*
X134210000Y-92922800D02*
X136341744Y-92922800D01*
X159545000Y-92922800D02*
X162747661Y-92922800D01*
X165115538Y-92922800D02*
X167115000Y-92922800D01*
X168885000Y-92922800D02*
X214290000Y-92922800D01*
X134210000Y-93126000D02*
X136205971Y-93126000D01*
X159545000Y-93126000D02*
X163203069Y-93126000D01*
X164684031Y-93126000D02*
X167115000Y-93126000D01*
X168885000Y-93126000D02*
X214290000Y-93126000D01*
X134210000Y-93329200D02*
X136148975Y-93329200D01*
X159545000Y-93329200D02*
X167115000Y-93329200D01*
X168885000Y-93329200D02*
X214290000Y-93329200D01*
X134210000Y-93532400D02*
X136115000Y-93532400D01*
X159545000Y-93532400D02*
X167115000Y-93532400D01*
X168885000Y-93532400D02*
X214290000Y-93532400D01*
X134210000Y-93735600D02*
X136115000Y-93735600D01*
X159545000Y-93735600D02*
X167115000Y-93735600D01*
X168885000Y-93735600D02*
X214290000Y-93735600D01*
X134210000Y-93938800D02*
X136115000Y-93938800D01*
X159545000Y-93938800D02*
X167115000Y-93938800D01*
X168885000Y-93938800D02*
X214290000Y-93938800D01*
X134210000Y-94142000D02*
X136115000Y-94142000D01*
X159545000Y-94142000D02*
X167115000Y-94142000D01*
X168885000Y-94142000D02*
X214290000Y-94142000D01*
X134210000Y-94345200D02*
X136115000Y-94345200D01*
X159545000Y-94345200D02*
X167115000Y-94345200D01*
X168885000Y-94345200D02*
X214290000Y-94345200D01*
X134210000Y-94548400D02*
X136115000Y-94548400D01*
X159545000Y-94548400D02*
X167115000Y-94548400D01*
X168885000Y-94548400D02*
X214290000Y-94548400D01*
X134210000Y-94751600D02*
X136115000Y-94751600D01*
X159545000Y-94751600D02*
X167115000Y-94751600D01*
X168885000Y-94751600D02*
X214290000Y-94751600D01*
X134210000Y-94954800D02*
X136115000Y-94954800D01*
X159545000Y-94954800D02*
X167115000Y-94954800D01*
X168885000Y-94954800D02*
X214290000Y-94954800D01*
X134210000Y-95158000D02*
X136115000Y-95158000D01*
X159545000Y-95158000D02*
X167115000Y-95158000D01*
X168885000Y-95158000D02*
X214290000Y-95158000D01*
X134210000Y-95361200D02*
X136115000Y-95361200D01*
X159545000Y-95361200D02*
X167115000Y-95361200D01*
X168885000Y-95361200D02*
X214290000Y-95361200D01*
X134210000Y-95564400D02*
X136115000Y-95564400D01*
X159545000Y-95564400D02*
X167115000Y-95564400D01*
X168885000Y-95564400D02*
X214290000Y-95564400D01*
X134210000Y-95767600D02*
X136115000Y-95767600D01*
X159545000Y-95767600D02*
X167115000Y-95767600D01*
X168885000Y-95767600D02*
X214290000Y-95767600D01*
X134210000Y-95970800D02*
X136115000Y-95970800D01*
X159545000Y-95970800D02*
X167115000Y-95970800D01*
X168885000Y-95970800D02*
X214290000Y-95970800D01*
X134210000Y-96174000D02*
X136115000Y-96174000D01*
X159545000Y-96174000D02*
X167115000Y-96174000D01*
X168885000Y-96174000D02*
X214290000Y-96174000D01*
X134210000Y-96377200D02*
X136115000Y-96377200D01*
X159545000Y-96377200D02*
X167115000Y-96377200D01*
X168885000Y-96377200D02*
X214290000Y-96377200D01*
X134210000Y-96580400D02*
X136130992Y-96580400D01*
X159545000Y-96580400D02*
X167115000Y-96580400D01*
X168885000Y-96580400D02*
X214290000Y-96580400D01*
X134210000Y-96783600D02*
X136171411Y-96783600D01*
X159545000Y-96783600D02*
X167115000Y-96783600D01*
X168885000Y-96783600D02*
X214290000Y-96783600D01*
X134210000Y-96986800D02*
X136281340Y-96986800D01*
X159545000Y-96986800D02*
X167115000Y-96986800D01*
X168885000Y-96986800D02*
X214290000Y-96986800D01*
X134210000Y-97190000D02*
X136438420Y-97190000D01*
X159545000Y-97190000D02*
X167115000Y-97190000D01*
X168885000Y-97190000D02*
X214290000Y-97190000D01*
X134210000Y-97393200D02*
X136641620Y-97393200D01*
X159545000Y-97393200D02*
X167115000Y-97393200D01*
X168885000Y-97393200D02*
X214290000Y-97393200D01*
X134210000Y-97596400D02*
X136844820Y-97596400D01*
X159545000Y-97596400D02*
X167115000Y-97596400D01*
X168885000Y-97596400D02*
X214290000Y-97596400D01*
X134210000Y-97799600D02*
X137048020Y-97799600D01*
X159545000Y-97799600D02*
X167115000Y-97799600D01*
X168885000Y-97799600D02*
X214290000Y-97799600D01*
X134210000Y-98002800D02*
X137251220Y-98002800D01*
X159545000Y-98002800D02*
X167115000Y-98002800D01*
X168885000Y-98002800D02*
X214290000Y-98002800D01*
X134210000Y-98206000D02*
X137494253Y-98206000D01*
X159545000Y-98206000D02*
X167115000Y-98206000D01*
X168885000Y-98206000D02*
X214290000Y-98206000D01*
X134210000Y-98409200D02*
X138820171Y-98409200D01*
X159545000Y-98409200D02*
X167115000Y-98409200D01*
X168885000Y-98409200D02*
X214290000Y-98409200D01*
X134210000Y-98612400D02*
X138975307Y-98612400D01*
X159545000Y-98612400D02*
X167115000Y-98612400D01*
X168885000Y-98612400D02*
X214290000Y-98612400D01*
X134210000Y-98815600D02*
X139142927Y-98815600D01*
X159545000Y-98815600D02*
X167115000Y-98815600D01*
X168885000Y-98815600D02*
X214290000Y-98815600D01*
X134210000Y-99018800D02*
X138895009Y-99018800D01*
X159545000Y-99018800D02*
X167115000Y-99018800D01*
X168885000Y-99018800D02*
X214290000Y-99018800D01*
X134210000Y-99222000D02*
X138759235Y-99222000D01*
X159545000Y-99222000D02*
X167115000Y-99222000D01*
X168885000Y-99222000D02*
X214290000Y-99222000D01*
X134210000Y-99425200D02*
X138623461Y-99425200D01*
X159545000Y-99425200D02*
X167106637Y-99425200D01*
X168885000Y-99425200D02*
X214290000Y-99425200D01*
X134210000Y-99628400D02*
X138577433Y-99628400D01*
X159545000Y-99628400D02*
X166903437Y-99628400D01*
X168885000Y-99628400D02*
X214290000Y-99628400D01*
X134210000Y-99831600D02*
X138537014Y-99831600D01*
X159545000Y-99831600D02*
X166700237Y-99831600D01*
X168875416Y-99831600D02*
X214290000Y-99831600D01*
X134210000Y-100034800D02*
X138501400Y-100034800D01*
X159545000Y-100034800D02*
X166497037Y-100034800D01*
X168834996Y-100034800D02*
X214290000Y-100034800D01*
X134210000Y-100238000D02*
X138534944Y-100238000D01*
X159545000Y-100238000D02*
X166293837Y-100238000D01*
X168740185Y-100238000D02*
X214290000Y-100238000D01*
X134210000Y-100441200D02*
X138575363Y-100441200D01*
X159545000Y-100441200D02*
X166090637Y-100441200D01*
X168593795Y-100441200D02*
X214290000Y-100441200D01*
X134210000Y-100644400D02*
X138616511Y-100644400D01*
X159545000Y-100644400D02*
X165887437Y-100644400D01*
X168390595Y-100644400D02*
X214290000Y-100644400D01*
X134210000Y-100847600D02*
X138752285Y-100847600D01*
X159545000Y-100847600D02*
X165684237Y-100847600D01*
X168187395Y-100847600D02*
X214290000Y-100847600D01*
X134210000Y-101050800D02*
X138888059Y-101050800D01*
X159545000Y-101050800D02*
X165481037Y-101050800D01*
X167984195Y-101050800D02*
X214290000Y-101050800D01*
X134210000Y-101254000D02*
X139127362Y-101254000D01*
X140872637Y-101254000D02*
X141147291Y-101254000D01*
X159545000Y-101254000D02*
X165277837Y-101254000D01*
X167780995Y-101254000D02*
X214290000Y-101254000D01*
X134210000Y-101457200D02*
X139443176Y-101457200D01*
X140556823Y-101457200D02*
X141361824Y-101457200D01*
X159545000Y-101457200D02*
X165074637Y-101457200D01*
X167577795Y-101457200D02*
X187103462Y-101457200D01*
X188208716Y-101457200D02*
X214290000Y-101457200D01*
X134210000Y-101660400D02*
X141655000Y-101660400D01*
X159545000Y-101660400D02*
X164871437Y-101660400D01*
X167374595Y-101660400D02*
X186611680Y-101660400D01*
X188698077Y-101660400D02*
X214290000Y-101660400D01*
X134210000Y-101863600D02*
X141655000Y-101863600D01*
X159545000Y-101863600D02*
X164668237Y-101863600D01*
X167171395Y-101863600D02*
X186228953Y-101863600D01*
X189082355Y-101863600D02*
X214290000Y-101863600D01*
X134210000Y-102066800D02*
X141655000Y-102066800D01*
X159545000Y-102066800D02*
X164465037Y-102066800D01*
X166968195Y-102066800D02*
X186025398Y-102066800D01*
X189285200Y-102066800D02*
X214290000Y-102066800D01*
X134210000Y-102270000D02*
X141655000Y-102270000D01*
X159508942Y-102270000D02*
X162597816Y-102270000D01*
X166764995Y-102270000D02*
X185821843Y-102270000D01*
X189488046Y-102270000D02*
X214290000Y-102270000D01*
X134210000Y-102473200D02*
X141655000Y-102473200D01*
X159447031Y-102473200D02*
X162393049Y-102473200D01*
X166561795Y-102473200D02*
X185627765Y-102473200D01*
X189683503Y-102473200D02*
X214290000Y-102473200D01*
X134210000Y-102676400D02*
X141655000Y-102676400D01*
X159311258Y-102676400D02*
X162311175Y-102676400D01*
X166358595Y-102676400D02*
X185543389Y-102676400D01*
X189767463Y-102676400D02*
X214290000Y-102676400D01*
X134210000Y-102879600D02*
X141655000Y-102879600D01*
X159120706Y-102879600D02*
X162284160Y-102879600D01*
X166155395Y-102879600D02*
X185459013Y-102879600D01*
X189851424Y-102879600D02*
X214290000Y-102879600D01*
X134210000Y-103082800D02*
X141684757Y-103082800D01*
X158917506Y-103082800D02*
X162284160Y-103082800D01*
X165952195Y-103082800D02*
X185374637Y-103082800D01*
X189935384Y-103082800D02*
X214290000Y-103082800D01*
X134210000Y-103286000D02*
X141731804Y-103286000D01*
X158714306Y-103286000D02*
X162284160Y-103286000D01*
X165748995Y-103286000D02*
X185290262Y-103286000D01*
X190019344Y-103286000D02*
X214290000Y-103286000D01*
X134210000Y-103489200D02*
X141867578Y-103489200D01*
X158511106Y-103489200D02*
X162284160Y-103489200D01*
X165579040Y-103489200D02*
X185270479Y-103489200D01*
X190040480Y-103489200D02*
X214290000Y-103489200D01*
X134210000Y-103692400D02*
X142047620Y-103692400D01*
X158307906Y-103692400D02*
X162284160Y-103692400D01*
X165579040Y-103692400D02*
X185270302Y-103692400D01*
X190040303Y-103692400D02*
X214290000Y-103692400D01*
X134210000Y-103895600D02*
X142250820Y-103895600D01*
X158056636Y-103895600D02*
X162284160Y-103895600D01*
X165579040Y-103895600D02*
X185270125Y-103895600D01*
X190040125Y-103895600D02*
X214290000Y-103895600D01*
X134210000Y-104098800D02*
X142454020Y-104098800D01*
X156152779Y-104098800D02*
X162284160Y-104098800D01*
X165579040Y-104098800D02*
X185269947Y-104098800D01*
X190039948Y-104098800D02*
X214290000Y-104098800D01*
X134210000Y-104302000D02*
X142657220Y-104302000D01*
X155949579Y-104302000D02*
X162284160Y-104302000D01*
X165579040Y-104302000D02*
X185277999Y-104302000D01*
X190033260Y-104302000D02*
X214290000Y-104302000D01*
X134210000Y-104505200D02*
X142860420Y-104505200D01*
X155746379Y-104505200D02*
X162284160Y-104505200D01*
X165579040Y-104505200D02*
X185361959Y-104505200D01*
X189948884Y-104505200D02*
X214290000Y-104505200D01*
X134210000Y-104708400D02*
X143063620Y-104708400D01*
X155543179Y-104708400D02*
X162284160Y-104708400D01*
X165579040Y-104708400D02*
X185445920Y-104708400D01*
X189864508Y-104708400D02*
X214290000Y-104708400D01*
X134210000Y-104911600D02*
X143266820Y-104911600D01*
X155339979Y-104911600D02*
X162303315Y-104911600D01*
X165558424Y-104911600D02*
X185529880Y-104911600D01*
X189780132Y-104911600D02*
X214290000Y-104911600D01*
X134210000Y-105114800D02*
X143470020Y-105114800D01*
X155136779Y-105114800D02*
X162373277Y-105114800D01*
X165491742Y-105114800D02*
X185613840Y-105114800D01*
X189695756Y-105114800D02*
X214290000Y-105114800D01*
X134210000Y-105318000D02*
X143673220Y-105318000D01*
X154933579Y-105318000D02*
X162550579Y-105318000D01*
X165314492Y-105318000D02*
X185790809Y-105318000D01*
X189520212Y-105318000D02*
X214290000Y-105318000D01*
X134210000Y-105521200D02*
X143876420Y-105521200D01*
X154730379Y-105521200D02*
X185993655Y-105521200D01*
X189316657Y-105521200D02*
X214290000Y-105521200D01*
X134210000Y-105724400D02*
X144079620Y-105724400D01*
X154527179Y-105724400D02*
X186196501Y-105724400D01*
X189113102Y-105724400D02*
X214290000Y-105724400D01*
X134210000Y-105927600D02*
X144282820Y-105927600D01*
X154323979Y-105927600D02*
X186536222Y-105927600D01*
X188775198Y-105927600D02*
X214290000Y-105927600D01*
X134210000Y-106130800D02*
X144486020Y-106130800D01*
X154120779Y-106130800D02*
X187025583Y-106130800D01*
X188283416Y-106130800D02*
X214290000Y-106130800D01*
X134210000Y-106334000D02*
X144689220Y-106334000D01*
X153917579Y-106334000D02*
X214290000Y-106334000D01*
X134210000Y-106537200D02*
X144892420Y-106537200D01*
X153714379Y-106537200D02*
X214290000Y-106537200D01*
X134210000Y-106740400D02*
X145095620Y-106740400D01*
X153511179Y-106740400D02*
X214290000Y-106740400D01*
X134210000Y-106943600D02*
X145298820Y-106943600D01*
X153307979Y-106943600D02*
X214290000Y-106943600D01*
X134210000Y-107146800D02*
X145502020Y-107146800D01*
X154261744Y-107146800D02*
X157738095Y-107146800D01*
X159261744Y-107146800D02*
X214290000Y-107146800D01*
X134210000Y-107350000D02*
X145705220Y-107350000D01*
X154651221Y-107350000D02*
X157349465Y-107350000D01*
X159651221Y-107350000D02*
X214290000Y-107350000D01*
X134210000Y-107553200D02*
X145908420Y-107553200D01*
X154854066Y-107553200D02*
X157145910Y-107553200D01*
X159854066Y-107553200D02*
X214290000Y-107553200D01*
X134210000Y-107756400D02*
X146111620Y-107756400D01*
X155056912Y-107756400D02*
X156942355Y-107756400D01*
X160056912Y-107756400D02*
X214290000Y-107756400D01*
X134210000Y-107959600D02*
X146314820Y-107959600D01*
X155175458Y-107959600D02*
X156824961Y-107959600D01*
X160175458Y-107959600D02*
X214290000Y-107959600D01*
X134210000Y-108162800D02*
X146491546Y-108162800D01*
X155259418Y-108162800D02*
X156740586Y-108162800D01*
X160259418Y-108162800D02*
X214290000Y-108162800D01*
X134210000Y-108366000D02*
X146407170Y-108366000D01*
X155343379Y-108366000D02*
X156656210Y-108366000D01*
X160343379Y-108366000D02*
X214290000Y-108366000D01*
X134210000Y-108569200D02*
X146365283Y-108569200D01*
X155405283Y-108569200D02*
X156595283Y-108569200D01*
X160405283Y-108569200D02*
X214290000Y-108569200D01*
X134210000Y-108772400D02*
X146365105Y-108772400D01*
X155405105Y-108772400D02*
X156595106Y-108772400D01*
X160405105Y-108772400D02*
X214290000Y-108772400D01*
X134210000Y-108975600D02*
X146364928Y-108975600D01*
X155404927Y-108975600D02*
X156594928Y-108975600D01*
X160404928Y-108975600D02*
X214290000Y-108975600D01*
X134210000Y-109178800D02*
X146364750Y-109178800D01*
X155404750Y-109178800D02*
X156594751Y-109178800D01*
X160404750Y-109178800D02*
X214290000Y-109178800D01*
X134210000Y-109382000D02*
X146391894Y-109382000D01*
X155359735Y-109382000D02*
X156640755Y-109382000D01*
X160359735Y-109382000D02*
X214290000Y-109382000D01*
X134210000Y-109585200D02*
X146475855Y-109585200D01*
X155275359Y-109585200D02*
X156724715Y-109585200D01*
X160275359Y-109585200D02*
X214290000Y-109585200D01*
X134210000Y-109788400D02*
X146559815Y-109788400D01*
X155190984Y-109788400D02*
X156808676Y-109788400D01*
X160190984Y-109788400D02*
X214290000Y-109788400D01*
X134210000Y-109991600D02*
X146643776Y-109991600D01*
X155096112Y-109991600D02*
X156904755Y-109991600D01*
X160096112Y-109991600D02*
X214290000Y-109991600D01*
X134210000Y-110194800D02*
X146782616Y-110194800D01*
X152079473Y-110194800D02*
X152107601Y-110194800D01*
X154892557Y-110194800D02*
X157107601Y-110194800D01*
X159892557Y-110194800D02*
X214290000Y-110194800D01*
X134210000Y-110398000D02*
X146985462Y-110398000D01*
X152039054Y-110398000D02*
X152310446Y-110398000D01*
X154689002Y-110398000D02*
X157310446Y-110398000D01*
X159689002Y-110398000D02*
X214290000Y-110398000D01*
X134210000Y-110601200D02*
X147188307Y-110601200D01*
X151955095Y-110601200D02*
X152645779Y-110601200D01*
X154354840Y-110601200D02*
X157645779Y-110601200D01*
X159354840Y-110601200D02*
X214290000Y-110601200D01*
X134210000Y-110804400D02*
X135961090Y-110804400D01*
X137040469Y-110804400D02*
X147535384Y-110804400D01*
X151816379Y-110804400D02*
X211461090Y-110804400D01*
X212540469Y-110804400D02*
X214290000Y-110804400D01*
X134210000Y-111007600D02*
X135469309Y-111007600D01*
X137529829Y-111007600D02*
X147600373Y-111007600D01*
X151613179Y-111007600D02*
X158074985Y-111007600D01*
X158926512Y-111007600D02*
X210969309Y-111007600D01*
X213029829Y-111007600D02*
X214290000Y-111007600D01*
X134210000Y-111210800D02*
X135128797Y-111210800D01*
X137871933Y-111210800D02*
X147139542Y-111210800D01*
X151409979Y-111210800D02*
X152841679Y-111210800D01*
X154158669Y-111210800D02*
X157583204Y-111210800D01*
X159415873Y-111210800D02*
X210628797Y-111210800D01*
X213371933Y-111210800D02*
X214290000Y-111210800D01*
X134210000Y-111414000D02*
X134925242Y-111414000D01*
X138074779Y-111414000D02*
X146935988Y-111414000D01*
X151206779Y-111414000D02*
X152392340Y-111414000D01*
X154608496Y-111414000D02*
X157285353Y-111414000D01*
X159715109Y-111414000D02*
X210425242Y-111414000D01*
X213574779Y-111414000D02*
X214290000Y-111414000D01*
X134210000Y-111617200D02*
X134721687Y-111617200D01*
X138277624Y-111617200D02*
X146732433Y-111617200D01*
X151003579Y-111617200D02*
X152188785Y-111617200D01*
X154811341Y-111617200D02*
X157081798Y-111617200D01*
X159917955Y-111617200D02*
X210221687Y-111617200D01*
X213777624Y-111617200D02*
X214290000Y-111617200D01*
X134210000Y-111820400D02*
X134569791Y-111820400D01*
X138430873Y-111820400D02*
X146547270Y-111820400D01*
X150800379Y-111820400D02*
X151985230Y-111820400D01*
X155014186Y-111820400D02*
X156882762Y-111820400D01*
X160117941Y-111820400D02*
X210069791Y-111820400D01*
X213930873Y-111820400D02*
X214290000Y-111820400D01*
X134210000Y-112023600D02*
X134485415Y-112023600D01*
X138514833Y-112023600D02*
X146462894Y-112023600D01*
X150597179Y-112023600D02*
X151842733Y-112023600D01*
X155157773Y-112023600D02*
X156798386Y-112023600D01*
X160201902Y-112023600D02*
X209985415Y-112023600D01*
X214014833Y-112023600D02*
X214290000Y-112023600D01*
X134210000Y-112226800D02*
X134401039Y-112226800D01*
X138598794Y-112226800D02*
X146378518Y-112226800D01*
X150393979Y-112226800D02*
X151758358Y-112226800D01*
X155241734Y-112226800D02*
X156714011Y-112226800D01*
X160285862Y-112226800D02*
X209901039Y-112226800D01*
X214098794Y-112226800D02*
X214290000Y-112226800D01*
X134210000Y-112430000D02*
X134316663Y-112430000D01*
X138682755Y-112430000D02*
X146294142Y-112430000D01*
X150443755Y-112430000D02*
X151673982Y-112430000D01*
X155325694Y-112430000D02*
X156629635Y-112430000D01*
X160369823Y-112430000D02*
X209816663Y-112430000D01*
X214182755Y-112430000D02*
X214290000Y-112430000D01*
X134210000Y-112633200D02*
X134265320Y-112633200D01*
X138735320Y-112633200D02*
X146234520Y-112633200D01*
X150504521Y-112633200D02*
X151595320Y-112633200D01*
X155405320Y-112633200D02*
X156595227Y-112633200D01*
X160405227Y-112633200D02*
X209765320Y-112633200D01*
X214235320Y-112633200D02*
X214290000Y-112633200D01*
X134210000Y-112836400D02*
X134265143Y-112836400D01*
X138735143Y-112836400D02*
X146234343Y-112836400D01*
X150504343Y-112836400D02*
X151595143Y-112836400D01*
X155405143Y-112836400D02*
X156595050Y-112836400D01*
X160405050Y-112836400D02*
X209765143Y-112836400D01*
X214235143Y-112836400D02*
X214290000Y-112836400D01*
X134210000Y-113039600D02*
X134264965Y-113039600D01*
X138734966Y-113039600D02*
X146234165Y-113039600D01*
X150504166Y-113039600D02*
X151594965Y-113039600D01*
X155404965Y-113039600D02*
X156594872Y-113039600D01*
X160404872Y-113039600D02*
X209764965Y-113039600D01*
X214234966Y-113039600D02*
X214290000Y-113039600D01*
X134210000Y-113242800D02*
X134264788Y-113242800D01*
X138734788Y-113242800D02*
X146233988Y-113242800D01*
X150503988Y-113242800D02*
X151594788Y-113242800D01*
X155404788Y-113242800D02*
X156594695Y-113242800D01*
X160404695Y-113242800D02*
X209764788Y-113242800D01*
X214234788Y-113242800D02*
X214290000Y-113242800D01*
X134210000Y-113446000D02*
X134266010Y-113446000D01*
X138734611Y-113446000D02*
X146243409Y-113446000D01*
X150495747Y-113446000D02*
X151623070Y-113446000D01*
X155377507Y-113446000D02*
X156667199Y-113446000D01*
X160333160Y-113446000D02*
X209766010Y-113446000D01*
X214234611Y-113446000D02*
X214290000Y-113446000D01*
X134210000Y-113649200D02*
X134349970Y-113649200D01*
X138650450Y-113649200D02*
X146327370Y-113649200D01*
X150411371Y-113649200D02*
X151707031Y-113649200D01*
X155293131Y-113649200D02*
X156751160Y-113649200D01*
X160248784Y-113649200D02*
X209849970Y-113649200D01*
X214150450Y-113649200D02*
X214290000Y-113649200D01*
X134210000Y-113852400D02*
X134433931Y-113852400D01*
X138566074Y-113852400D02*
X146411331Y-113852400D01*
X150326995Y-113852400D02*
X151790991Y-113852400D01*
X155208756Y-113852400D02*
X156835120Y-113852400D01*
X160164408Y-113852400D02*
X209933931Y-113852400D01*
X214066074Y-113852400D02*
X214290000Y-113852400D01*
X134210000Y-114055600D02*
X134517892Y-114055600D01*
X138481698Y-114055600D02*
X146495292Y-114055600D01*
X150242619Y-114055600D02*
X151874952Y-114055600D01*
X155124380Y-114055600D02*
X156968644Y-114055600D01*
X160032000Y-114055600D02*
X210017892Y-114055600D01*
X213981698Y-114055600D02*
X214290000Y-114055600D01*
X134210000Y-114258800D02*
X134601852Y-114258800D01*
X138397322Y-114258800D02*
X146609091Y-114258800D01*
X150130184Y-114258800D02*
X152064875Y-114258800D01*
X154935432Y-114258800D02*
X157171489Y-114258800D01*
X159828445Y-114258800D02*
X210101852Y-114258800D01*
X213897322Y-114258800D02*
X214290000Y-114258800D01*
X134210000Y-114462000D02*
X134801438Y-114462000D01*
X138198975Y-114462000D02*
X146811936Y-114462000D01*
X149926629Y-114462000D02*
X152267721Y-114462000D01*
X154731877Y-114462000D02*
X157374334Y-114462000D01*
X159624890Y-114462000D02*
X210301438Y-114462000D01*
X213698975Y-114462000D02*
X214290000Y-114462000D01*
X134210000Y-114665200D02*
X135004283Y-114665200D01*
X137995420Y-114665200D02*
X147014782Y-114665200D01*
X149723074Y-114665200D02*
X152542704Y-114665200D01*
X154458424Y-114665200D02*
X157799908Y-114665200D01*
X159199948Y-114665200D02*
X210504283Y-114665200D01*
X213495420Y-114665200D02*
X214290000Y-114665200D01*
X134210000Y-114868400D02*
X135207129Y-114868400D01*
X137791864Y-114868400D02*
X147301511Y-114868400D01*
X149438130Y-114868400D02*
X153032066Y-114868400D01*
X153966642Y-114868400D02*
X210707129Y-114868400D01*
X213291864Y-114868400D02*
X214290000Y-114868400D01*
X134238153Y-115071600D02*
X135660906Y-115071600D01*
X137339013Y-115071600D02*
X147790870Y-115071600D01*
X148946349Y-115071600D02*
X211160906Y-115071600D01*
X212839013Y-115071600D02*
X214261848Y-115071600D01*
X134493515Y-115274800D02*
X214006486Y-115274800D01*
X144406579Y-94345000D02*
X148068554Y-94345000D01*
X144203379Y-94548200D02*
X148130867Y-94548200D01*
X144002948Y-94751400D02*
X148294391Y-94751400D01*
X144038600Y-94954600D02*
X148503138Y-94954600D01*
X144005095Y-95157800D02*
X148341930Y-95157800D01*
X143964676Y-95361000D02*
X148206156Y-95361000D01*
X143923622Y-95564200D02*
X148123574Y-95564200D01*
X143787848Y-95767400D02*
X148083155Y-95767400D01*
X143652074Y-95970600D02*
X148042736Y-95970600D01*
X143412937Y-96173800D02*
X148071457Y-96173800D01*
X143548829Y-96377000D02*
X148111877Y-96377000D01*
X143712746Y-96580200D02*
X148166866Y-96580200D01*
X144676638Y-96783400D02*
X148302640Y-96783400D01*
X144924935Y-96986600D02*
X148438414Y-96986600D01*
X145128135Y-97189800D02*
X148719247Y-97189800D01*
X145331335Y-97393000D02*
X148655193Y-97393000D01*
X145534535Y-97596200D02*
X148409817Y-97596200D01*
X145737735Y-97799400D02*
X148274043Y-97799400D01*
X145940935Y-98002600D02*
X148143783Y-98002600D01*
X146144135Y-98205800D02*
X148103364Y-98205800D01*
X146347335Y-98409000D02*
X148062945Y-98409000D01*
X146550535Y-98612200D02*
X148051248Y-98612200D01*
X146753735Y-98815400D02*
X148091667Y-98815400D01*
X146956935Y-99018600D02*
X148132086Y-99018600D01*
X147155430Y-99221800D02*
X148234753Y-99221800D01*
X147291203Y-99425000D02*
X148370527Y-99425000D01*
X147364346Y-99628200D02*
X148250561Y-99628200D01*
X147404766Y-99831400D02*
X148057716Y-99831400D01*
X147405164Y-100034600D02*
X147864870Y-100034600D01*
X147405164Y-100237800D02*
X147776150Y-100237800D01*
X147405164Y-100441000D02*
X147691984Y-100441000D01*
X147405164Y-100644200D02*
X147607818Y-100644200D01*
X147405164Y-100847400D02*
X147762674Y-100847400D01*
X147405164Y-101050600D02*
X149647000Y-101050600D01*
X147405164Y-101253800D02*
X147809976Y-101253800D01*
X147541976Y-101457000D02*
X147646514Y-101457000D01*
X147064837Y-80686742D02*
X147064837Y-80686742D01*
X146861637Y-80889942D02*
X147108449Y-80889942D01*
X146658437Y-81093142D02*
X147192409Y-81093142D01*
X146647440Y-81296342D02*
X147276369Y-81296342D01*
X146647440Y-81499542D02*
X147470171Y-81499542D01*
X146647440Y-81702742D02*
X147673017Y-81702742D01*
X146647440Y-81905942D02*
X148143931Y-81905942D01*
X146647440Y-82109142D02*
X148857563Y-82109142D01*
X146647440Y-82312342D02*
X149060763Y-82312342D01*
X146647440Y-82515542D02*
X149263963Y-82515542D01*
X146647440Y-82718742D02*
X149467163Y-82718742D01*
X146647440Y-82921942D02*
X149670363Y-82921942D01*
X146647440Y-83125142D02*
X149873563Y-83125142D01*
X146647440Y-83328342D02*
X150076763Y-83328342D01*
X146641052Y-83531542D02*
X150115000Y-83531542D01*
X146599903Y-83734742D02*
X150115000Y-83734742D01*
X146469307Y-83937942D02*
X150115000Y-83937942D01*
X146757589Y-84141142D02*
X150115000Y-84141142D01*
X146960789Y-84344342D02*
X150115000Y-84344342D01*
X147049761Y-84547542D02*
X150115000Y-84547542D01*
X147133929Y-84750742D02*
X150115000Y-84750742D01*
X147143000Y-84953942D02*
X150115000Y-84953942D01*
X147143000Y-85157142D02*
X150115000Y-85157142D01*
X147143000Y-85360342D02*
X150115000Y-85360342D01*
X147143000Y-85563542D02*
X150115000Y-85563542D01*
X147143000Y-85766742D02*
X147784287Y-85766742D01*
X149215714Y-85766742D02*
X150115000Y-85766742D01*
X147143000Y-85969942D02*
X147480177Y-85969942D01*
X149519824Y-85969942D02*
X150115000Y-85969942D01*
X147057108Y-86173142D02*
X147331679Y-86173142D01*
X149668322Y-86173142D02*
X150115000Y-86173142D01*
X147143000Y-86376342D02*
X147195905Y-86376342D01*
X149804096Y-86376342D02*
X150115000Y-86376342D01*
X149879479Y-86579542D02*
X150115000Y-86579542D01*
X149919898Y-86782742D02*
X150115000Y-86782742D01*
X149960317Y-86985942D02*
X150115000Y-86985942D01*
X149925490Y-87189142D02*
X150115000Y-87189142D01*
X149885071Y-87392342D02*
X150115000Y-87392342D01*
X149822882Y-87595542D02*
X150115000Y-87595542D01*
X149687108Y-87798742D02*
X150115000Y-87798742D01*
X149551334Y-88001942D02*
X150115000Y-88001942D01*
X149257791Y-88205142D02*
X150115000Y-88205142D01*
X148662131Y-88408342D02*
X150115000Y-88408342D01*
X148140037Y-88611542D02*
X150115000Y-88611542D01*
X147936837Y-88814742D02*
X150115000Y-88814742D01*
X147733637Y-89017942D02*
X150115000Y-89017942D01*
X147530437Y-89221142D02*
X150115000Y-89221142D01*
X147327237Y-89424342D02*
X150115000Y-89424342D01*
X147124037Y-89627542D02*
X150115000Y-89627542D01*
X146920837Y-89830742D02*
X150115000Y-89830742D01*
X146717637Y-90033942D02*
X150115000Y-90033942D01*
X146514437Y-90237142D02*
X150115000Y-90237142D01*
X146311237Y-90440342D02*
X150115000Y-90440342D01*
X146108037Y-90643542D02*
X150115000Y-90643542D01*
X145904837Y-90846742D02*
X150115000Y-90846742D01*
X145701637Y-91049942D02*
X150115000Y-91049942D01*
X145498437Y-91253142D02*
X150115000Y-91253142D01*
X145295237Y-91456342D02*
X150115000Y-91456342D01*
X145092037Y-91659542D02*
X150027660Y-91659542D01*
X144888837Y-91862742D02*
X149824460Y-91862742D01*
X144685637Y-92065942D02*
X148450535Y-92065942D01*
X144482437Y-92269142D02*
X148198522Y-92269142D01*
X144223004Y-92472342D02*
X148090562Y-92472342D01*
X139076037Y-92675542D02*
X143651675Y-92675542D01*
X138872837Y-92878742D02*
X143369679Y-92878742D01*
X138669637Y-93081942D02*
X139368157Y-93081942D01*
X139664376Y-93081942D02*
X140335625Y-93081942D01*
X140631844Y-93081942D02*
X143166479Y-93081942D01*
X138466437Y-93285142D02*
X138904758Y-93285142D01*
X139873000Y-93285142D02*
X140127000Y-93285142D01*
X141095243Y-93285142D02*
X142963279Y-93285142D01*
X138263237Y-93488342D02*
X138691536Y-93488342D01*
X139873000Y-93488342D02*
X140127000Y-93488342D01*
X141308465Y-93488342D02*
X142256956Y-93488342D01*
X138060037Y-93691542D02*
X138478314Y-93691542D01*
X139873000Y-93691542D02*
X140127000Y-93691542D01*
X141521687Y-93691542D02*
X141748865Y-93691542D01*
X137885000Y-93894742D02*
X138319309Y-93894742D01*
X139873000Y-93894742D02*
X140127000Y-93894742D01*
X137885000Y-94097942D02*
X138229353Y-94097942D01*
X139873000Y-94097942D02*
X140127000Y-94097942D01*
X137885000Y-94301142D02*
X138139397Y-94301142D01*
X139873000Y-94301142D02*
X140127000Y-94301142D01*
X137885000Y-94504342D02*
X138049441Y-94504342D01*
X139873000Y-94504342D02*
X140127000Y-94504342D01*
X137885000Y-94707542D02*
X138186075Y-94707542D01*
X139873000Y-94707542D02*
X140127000Y-94707542D01*
X137885000Y-94910742D02*
X140147000Y-94910742D01*
X137885000Y-95113942D02*
X138262316Y-95113942D01*
X137885000Y-95317142D02*
X138105063Y-95317142D01*
X137885000Y-95520342D02*
X138095783Y-95520342D01*
X137885000Y-95723542D02*
X138185739Y-95723542D01*
X137885000Y-95926742D02*
X138275695Y-95926742D01*
X137885000Y-96129942D02*
X138374938Y-96129942D01*
X138084722Y-96333142D02*
X138588160Y-96333142D01*
X138287922Y-96536342D02*
X138801383Y-96536342D01*
X148096838Y-94495317D02*
X148235910Y-94711441D01*
X148448110Y-94856431D01*
X148603089Y-94887815D01*
X148457189Y-94985302D01*
X148146120Y-95450849D01*
X148036887Y-96000000D01*
X148146120Y-96549151D01*
X148457189Y-97014698D01*
X148839275Y-97270000D01*
X148457189Y-97525302D01*
X148146120Y-97990849D01*
X148036887Y-98540000D01*
X148146120Y-99089151D01*
X148407524Y-99480369D01*
X148378667Y-99493215D01*
X147856787Y-100043117D01*
X147604893Y-100651261D01*
X147847623Y-100953000D01*
X149373000Y-100953000D01*
X149373000Y-100933000D01*
X149627000Y-100933000D01*
X149627000Y-100953000D01*
X149647000Y-100953000D01*
X149647000Y-101207000D01*
X149627000Y-101207000D01*
X149627000Y-101227000D01*
X149373000Y-101227000D01*
X149373000Y-101207000D01*
X147847623Y-101207000D01*
X147604893Y-101508739D01*
X147612797Y-101527821D01*
X147405164Y-101320188D01*
X147405164Y-99833414D01*
X147405165Y-99833409D01*
X147337797Y-99494735D01*
X147337797Y-99494734D01*
X147145954Y-99207619D01*
X147145951Y-99207617D01*
X144812545Y-96874210D01*
X144759361Y-96838674D01*
X144525430Y-96682367D01*
X144469239Y-96671190D01*
X144186755Y-96614999D01*
X144186750Y-96615000D01*
X143735998Y-96615000D01*
X143599670Y-96410971D01*
X143328828Y-96230000D01*
X143599670Y-96049029D01*
X143924526Y-95562848D01*
X144038600Y-94989359D01*
X144038600Y-94930641D01*
X144002488Y-94749092D01*
X144406579Y-94345000D01*
X148068554Y-94345000D01*
X148096838Y-94495317D01*
X134569930Y-66710000D02*
X213930070Y-66710000D01*
X134241175Y-66913200D02*
X135697774Y-66913200D01*
X137302488Y-66913200D02*
X211197774Y-66913200D01*
X212802488Y-66913200D02*
X214258824Y-66913200D01*
X134210000Y-67116400D02*
X135223362Y-67116400D01*
X137777698Y-67116400D02*
X161650323Y-67116400D01*
X162270786Y-67116400D02*
X164190323Y-67116400D01*
X164810786Y-67116400D02*
X166730323Y-67116400D01*
X167350786Y-67116400D02*
X210723362Y-67116400D01*
X213277698Y-67116400D02*
X214290000Y-67116400D01*
X134210000Y-67319600D02*
X135019807Y-67319600D01*
X137980543Y-67319600D02*
X161165079Y-67319600D01*
X162755594Y-67319600D02*
X163705079Y-67319600D01*
X165295594Y-67319600D02*
X166245079Y-67319600D01*
X167835594Y-67319600D02*
X210519807Y-67319600D01*
X213480543Y-67319600D02*
X214290000Y-67319600D01*
X134210000Y-67522800D02*
X134816252Y-67522800D01*
X138183389Y-67522800D02*
X160961525Y-67522800D01*
X162958439Y-67522800D02*
X163501524Y-67522800D01*
X165498439Y-67522800D02*
X166041524Y-67522800D01*
X168038439Y-67522800D02*
X210316252Y-67522800D01*
X213683389Y-67522800D02*
X214290000Y-67522800D01*
X134210000Y-67726000D02*
X134612697Y-67726000D01*
X138386234Y-67726000D02*
X153596024Y-67726000D01*
X163151747Y-67726000D02*
X163308744Y-67726000D01*
X165691747Y-67726000D02*
X165848744Y-67726000D01*
X168231747Y-67726000D02*
X210112697Y-67726000D01*
X213886234Y-67726000D02*
X214290000Y-67726000D01*
X134210000Y-67929200D02*
X134524613Y-67929200D01*
X138475828Y-67929200D02*
X153319221Y-67929200D01*
X168315707Y-67929200D02*
X210024613Y-67929200D01*
X213975828Y-67929200D02*
X214290000Y-67929200D01*
X134210000Y-68132400D02*
X134440237Y-68132400D01*
X138559789Y-68132400D02*
X153116021Y-68132400D01*
X168399667Y-68132400D02*
X209940237Y-68132400D01*
X214059789Y-68132400D02*
X214290000Y-68132400D01*
X134210000Y-68335600D02*
X134355861Y-68335600D01*
X138643749Y-68335600D02*
X152912821Y-68335600D01*
X168437144Y-68335600D02*
X209855861Y-68335600D01*
X214143749Y-68335600D02*
X214290000Y-68335600D01*
X134210000Y-68538800D02*
X134271486Y-68538800D01*
X138727710Y-68538800D02*
X152709621Y-68538800D01*
X168436966Y-68538800D02*
X209771486Y-68538800D01*
X214227710Y-68538800D02*
X214290000Y-68538800D01*
X134210000Y-68742000D02*
X134265225Y-68742000D01*
X138735225Y-68742000D02*
X152506421Y-68742000D01*
X168436789Y-68742000D02*
X209765225Y-68742000D01*
X214235225Y-68742000D02*
X214290000Y-68742000D01*
X134210000Y-68945200D02*
X134265048Y-68945200D01*
X138735048Y-68945200D02*
X152303221Y-68945200D01*
X168367786Y-68945200D02*
X209765048Y-68945200D01*
X214235048Y-68945200D02*
X214290000Y-68945200D01*
X134210000Y-69148400D02*
X134264870Y-69148400D01*
X138734871Y-69148400D02*
X152100021Y-69148400D01*
X163203410Y-69148400D02*
X163256356Y-69148400D01*
X168283410Y-69148400D02*
X209764870Y-69148400D01*
X214234871Y-69148400D02*
X214290000Y-69148400D01*
X134210000Y-69351600D02*
X134264693Y-69351600D01*
X138734693Y-69351600D02*
X151896821Y-69351600D01*
X163084295Y-69351600D02*
X163376180Y-69351600D01*
X168164295Y-69351600D02*
X209764693Y-69351600D01*
X214234693Y-69351600D02*
X214290000Y-69351600D01*
X134210000Y-69554800D02*
X134310965Y-69554800D01*
X138689648Y-69554800D02*
X151693621Y-69554800D01*
X154196779Y-69554800D02*
X161039025Y-69554800D01*
X162880740Y-69554800D02*
X163579025Y-69554800D01*
X167960740Y-69554800D02*
X209810965Y-69554800D01*
X214189648Y-69554800D02*
X214290000Y-69554800D01*
X134210000Y-69758000D02*
X134394925Y-69758000D01*
X138605272Y-69758000D02*
X151490421Y-69758000D01*
X153993579Y-69758000D02*
X161346735Y-69758000D01*
X162573653Y-69758000D02*
X163886735Y-69758000D01*
X167653653Y-69758000D02*
X209894925Y-69758000D01*
X214105272Y-69758000D02*
X214290000Y-69758000D01*
X134210000Y-69961200D02*
X134478886Y-69961200D01*
X138520897Y-69961200D02*
X151287221Y-69961200D01*
X153790379Y-69961200D02*
X164709620Y-69961200D01*
X167212780Y-69961200D02*
X209978886Y-69961200D01*
X214020897Y-69961200D02*
X214290000Y-69961200D01*
X134210000Y-70164400D02*
X134562847Y-70164400D01*
X138436521Y-70164400D02*
X151084021Y-70164400D01*
X153587179Y-70164400D02*
X164912820Y-70164400D01*
X167415980Y-70164400D02*
X210062847Y-70164400D01*
X213936521Y-70164400D02*
X214290000Y-70164400D01*
X134210000Y-70367600D02*
X134707202Y-70367600D01*
X138293540Y-70367600D02*
X150880821Y-70367600D01*
X153383979Y-70367600D02*
X165116020Y-70367600D01*
X167619180Y-70367600D02*
X210207202Y-70367600D01*
X213793540Y-70367600D02*
X214290000Y-70367600D01*
X134210000Y-70570800D02*
X134910048Y-70570800D01*
X138089985Y-70570800D02*
X150677621Y-70570800D01*
X153180779Y-70570800D02*
X165319220Y-70570800D01*
X167822380Y-70570800D02*
X210410048Y-70570800D01*
X213589985Y-70570800D02*
X214290000Y-70570800D01*
X134210000Y-70774000D02*
X135112893Y-70774000D01*
X137886429Y-70774000D02*
X150474421Y-70774000D01*
X152977579Y-70774000D02*
X165522420Y-70774000D01*
X168025580Y-70774000D02*
X210612893Y-70774000D01*
X213386429Y-70774000D02*
X214290000Y-70774000D01*
X134210000Y-70977200D02*
X135433565Y-70977200D01*
X137567478Y-70977200D02*
X140639797Y-70977200D01*
X146359653Y-70977200D02*
X150271221Y-70977200D01*
X152774379Y-70977200D02*
X165725620Y-70977200D01*
X168228780Y-70977200D02*
X210933565Y-70977200D01*
X213067478Y-70977200D02*
X214290000Y-70977200D01*
X134210000Y-71180400D02*
X135922926Y-71180400D01*
X137075697Y-71180400D02*
X140449834Y-71180400D01*
X146548928Y-71180400D02*
X150068021Y-71180400D01*
X152571179Y-71180400D02*
X165928820Y-71180400D01*
X168431980Y-71180400D02*
X211422926Y-71180400D01*
X212575697Y-71180400D02*
X214290000Y-71180400D01*
X134210000Y-71383600D02*
X140376132Y-71383600D01*
X146625538Y-71383600D02*
X149864821Y-71383600D01*
X152367979Y-71383600D02*
X166132020Y-71383600D01*
X168632065Y-71383600D02*
X214290000Y-71383600D01*
X134210000Y-71586800D02*
X140352560Y-71586800D01*
X146647440Y-71586800D02*
X149661621Y-71586800D01*
X152164779Y-71586800D02*
X166335220Y-71586800D01*
X168767838Y-71586800D02*
X214290000Y-71586800D01*
X134210000Y-71790000D02*
X140352560Y-71790000D01*
X146647440Y-71790000D02*
X149458421Y-71790000D01*
X151961579Y-71790000D02*
X166538420Y-71790000D01*
X168843229Y-71790000D02*
X214290000Y-71790000D01*
X134210000Y-71993200D02*
X140352560Y-71993200D01*
X146647440Y-71993200D02*
X149255221Y-71993200D01*
X151758379Y-71993200D02*
X166741620Y-71993200D01*
X168883648Y-71993200D02*
X214290000Y-71993200D01*
X134210000Y-72196400D02*
X136640324Y-72196400D01*
X146647440Y-72196400D02*
X149052021Y-72196400D01*
X151555179Y-72196400D02*
X166944820Y-72196400D01*
X168885000Y-72196400D02*
X214290000Y-72196400D01*
X134210000Y-72399600D02*
X136348821Y-72399600D01*
X146647440Y-72399600D02*
X147798266Y-72399600D01*
X151351979Y-72399600D02*
X157164987Y-72399600D01*
X160152437Y-72399600D02*
X167115000Y-72399600D01*
X168885000Y-72399600D02*
X214290000Y-72399600D01*
X134210000Y-72602800D02*
X136145621Y-72602800D01*
X146647440Y-72602800D02*
X147494156Y-72602800D01*
X151148779Y-72602800D02*
X156994528Y-72602800D01*
X160323342Y-72602800D02*
X167115000Y-72602800D01*
X168885000Y-72602800D02*
X214290000Y-72602800D01*
X134210000Y-72806000D02*
X135942421Y-72806000D01*
X146647440Y-72806000D02*
X147217243Y-72806000D01*
X150945579Y-72806000D02*
X156931596Y-72806000D01*
X160389753Y-72806000D02*
X167115000Y-72806000D01*
X168885000Y-72806000D02*
X214290000Y-72806000D01*
X134210000Y-73009200D02*
X135739221Y-73009200D01*
X146647440Y-73009200D02*
X147081469Y-73009200D01*
X150742379Y-73009200D02*
X156912560Y-73009200D01*
X160407440Y-73009200D02*
X167115000Y-73009200D01*
X168885000Y-73009200D02*
X214290000Y-73009200D01*
X134210000Y-73212400D02*
X135536021Y-73212400D01*
X146647440Y-73212400D02*
X146945695Y-73212400D01*
X150539179Y-73212400D02*
X154165164Y-73212400D01*
X160407440Y-73212400D02*
X167115000Y-73212400D01*
X168885000Y-73212400D02*
X214290000Y-73212400D01*
X134210000Y-73415600D02*
X135332821Y-73415600D01*
X146647440Y-73415600D02*
X146847254Y-73415600D01*
X150335979Y-73415600D02*
X153881607Y-73415600D01*
X160407440Y-73415600D02*
X167115000Y-73415600D01*
X168885000Y-73415600D02*
X214290000Y-73415600D01*
X134210000Y-73618800D02*
X135129621Y-73618800D01*
X146647440Y-73618800D02*
X146806835Y-73618800D01*
X150193166Y-73618800D02*
X153678407Y-73618800D01*
X160407440Y-73618800D02*
X167115000Y-73618800D01*
X168885000Y-73618800D02*
X214290000Y-73618800D01*
X134210000Y-73822000D02*
X134926421Y-73822000D01*
X146647440Y-73822000D02*
X146766416Y-73822000D01*
X150233585Y-73822000D02*
X153475207Y-73822000D01*
X160407440Y-73822000D02*
X167115000Y-73822000D01*
X168885000Y-73822000D02*
X214290000Y-73822000D01*
X134210000Y-74025200D02*
X134723221Y-74025200D01*
X137226379Y-74025200D02*
X140352560Y-74025200D01*
X146696760Y-74025200D02*
X146736021Y-74025200D01*
X150263978Y-74025200D02*
X153272007Y-74025200D01*
X160407440Y-74025200D02*
X167115000Y-74025200D01*
X168885000Y-74025200D02*
X214290000Y-74025200D01*
X134210000Y-74228400D02*
X134520021Y-74228400D01*
X137023179Y-74228400D02*
X140352560Y-74228400D01*
X150223559Y-74228400D02*
X153068807Y-74228400D01*
X160407440Y-74228400D02*
X167115000Y-74228400D01*
X168885000Y-74228400D02*
X214290000Y-74228400D01*
X134210000Y-74431600D02*
X134319272Y-74431600D01*
X136819979Y-74431600D02*
X140352560Y-74431600D01*
X150183140Y-74431600D02*
X152865607Y-74431600D01*
X160407440Y-74431600D02*
X167115000Y-74431600D01*
X168885000Y-74431600D02*
X214290000Y-74431600D01*
X136616779Y-74634800D02*
X140377924Y-74634800D01*
X150142721Y-74634800D02*
X152662407Y-74634800D01*
X160407440Y-74634800D02*
X167115000Y-74634800D01*
X168885000Y-74634800D02*
X214290000Y-74634800D01*
X136413579Y-74838000D02*
X140462912Y-74838000D01*
X150020629Y-74838000D02*
X152459207Y-74838000D01*
X160407440Y-74838000D02*
X167115000Y-74838000D01*
X168885000Y-74838000D02*
X214290000Y-74838000D01*
X136210379Y-75041200D02*
X140667276Y-75041200D01*
X160407440Y-75041200D02*
X167115000Y-75041200D01*
X168885000Y-75041200D02*
X214290000Y-75041200D01*
X136007179Y-75244400D02*
X145412801Y-75244400D01*
X160378198Y-75244400D02*
X167115000Y-75244400D01*
X168885000Y-75244400D02*
X214290000Y-75244400D01*
X135834999Y-75447600D02*
X140685797Y-75447600D01*
X160291035Y-75447600D02*
X167115000Y-75447600D01*
X168885000Y-75447600D02*
X214290000Y-75447600D01*
X137865533Y-75650800D02*
X140470059Y-75650800D01*
X160076689Y-75650800D02*
X167115000Y-75650800D01*
X168885000Y-75650800D02*
X214290000Y-75650800D01*
X137996288Y-75854000D02*
X140382126Y-75854000D01*
X159545000Y-75854000D02*
X167115000Y-75854000D01*
X168885000Y-75854000D02*
X214290000Y-75854000D01*
X138039387Y-76057200D02*
X140352560Y-76057200D01*
X159545000Y-76057200D02*
X167115000Y-76057200D01*
X168885000Y-76057200D02*
X214290000Y-76057200D01*
X138047440Y-76260400D02*
X140352560Y-76260400D01*
X159545000Y-76260400D02*
X167115000Y-76260400D01*
X168885000Y-76260400D02*
X214290000Y-76260400D01*
X138047440Y-76463600D02*
X140352560Y-76463600D01*
X159545000Y-76463600D02*
X167115000Y-76463600D01*
X168885000Y-76463600D02*
X214290000Y-76463600D01*
X138047440Y-76666800D02*
X140352560Y-76666800D01*
X159545000Y-76666800D02*
X167115000Y-76666800D01*
X168885000Y-76666800D02*
X214290000Y-76666800D01*
X138047440Y-76870000D02*
X140352560Y-76870000D01*
X159545000Y-76870000D02*
X167115000Y-76870000D01*
X168885000Y-76870000D02*
X214290000Y-76870000D01*
X138047440Y-77073200D02*
X140352560Y-77073200D01*
X159545000Y-77073200D02*
X167115000Y-77073200D01*
X168885000Y-77073200D02*
X214290000Y-77073200D01*
X138047440Y-77276400D02*
X140352560Y-77276400D01*
X159545000Y-77276400D02*
X167115000Y-77276400D01*
X168885000Y-77276400D02*
X214290000Y-77276400D01*
X138047440Y-77479600D02*
X140352560Y-77479600D01*
X159545000Y-77479600D02*
X167115000Y-77479600D01*
X168885000Y-77479600D02*
X214290000Y-77479600D01*
X138047440Y-77682800D02*
X140352560Y-77682800D01*
X159545000Y-77682800D02*
X167115000Y-77682800D01*
X168885000Y-77682800D02*
X214290000Y-77682800D01*
X138047440Y-77886000D02*
X140352560Y-77886000D01*
X159545000Y-77886000D02*
X167115000Y-77886000D01*
X168885000Y-77886000D02*
X214290000Y-77886000D01*
X138009126Y-78089200D02*
X140352560Y-78089200D01*
X159545000Y-78089200D02*
X167115000Y-78089200D01*
X168885000Y-78089200D02*
X186796098Y-78089200D01*
X188514566Y-78089200D02*
X214290000Y-78089200D01*
X137927208Y-78292400D02*
X140352560Y-78292400D01*
X159545000Y-78292400D02*
X167115000Y-78292400D01*
X168885000Y-78292400D02*
X186305286Y-78292400D01*
X189003927Y-78292400D02*
X214290000Y-78292400D01*
X138287761Y-78495600D02*
X140352560Y-78495600D01*
X159545000Y-78495600D02*
X167115000Y-78495600D01*
X168885000Y-78495600D02*
X186101731Y-78495600D01*
X189209133Y-78495600D02*
X214290000Y-78495600D01*
X138371929Y-78698800D02*
X140352560Y-78698800D01*
X159545000Y-78698800D02*
X167115000Y-78698800D01*
X168885000Y-78698800D02*
X185898176Y-78698800D01*
X189411979Y-78698800D02*
X214290000Y-78698800D01*
X138456097Y-78902000D02*
X140352560Y-78902000D01*
X159545000Y-78902000D02*
X167115000Y-78902000D01*
X168885000Y-78902000D02*
X185694621Y-78902000D01*
X189614824Y-78902000D02*
X214290000Y-78902000D01*
X138534030Y-79105200D02*
X140372354Y-79105200D01*
X159545000Y-79105200D02*
X167115000Y-79105200D01*
X168885000Y-79105200D02*
X185575030Y-79105200D01*
X189735978Y-79105200D02*
X214290000Y-79105200D01*
X138538448Y-79308400D02*
X140443865Y-79308400D01*
X159545000Y-79308400D02*
X167115000Y-79308400D01*
X168885000Y-79308400D02*
X185490654Y-79308400D01*
X189819938Y-79308400D02*
X214290000Y-79308400D01*
X136320511Y-79511600D02*
X136679490Y-79511600D01*
X138542865Y-79511600D02*
X140623955Y-79511600D01*
X159720383Y-79511600D02*
X167115000Y-79511600D01*
X168885000Y-79511600D02*
X185406278Y-79511600D01*
X189903899Y-79511600D02*
X214290000Y-79511600D01*
X136466910Y-79714800D02*
X136854405Y-79714800D01*
X138547283Y-79714800D02*
X145533621Y-79714800D01*
X159856157Y-79714800D02*
X167115000Y-79714800D01*
X168885000Y-79714800D02*
X185321903Y-79714800D01*
X189987859Y-79714800D02*
X214290000Y-79714800D01*
X136698395Y-79918000D02*
X137057605Y-79918000D01*
X138545078Y-79918000D02*
X140731797Y-79918000D01*
X159991931Y-79918000D02*
X167115000Y-79918000D01*
X168885000Y-79918000D02*
X185270546Y-79918000D01*
X190040547Y-79918000D02*
X214290000Y-79918000D01*
X136901595Y-80121200D02*
X137260805Y-80121200D01*
X138466039Y-80121200D02*
X140490283Y-80121200D01*
X160047765Y-80121200D02*
X167115000Y-80121200D01*
X168885000Y-80121200D02*
X185270369Y-80121200D01*
X190040369Y-80121200D02*
X214290000Y-80121200D01*
X137104795Y-80324400D02*
X137464005Y-80324400D01*
X138387001Y-80324400D02*
X140388120Y-80324400D01*
X160088184Y-80324400D02*
X167115000Y-80324400D01*
X168885000Y-80324400D02*
X185270191Y-80324400D01*
X190040192Y-80324400D02*
X214290000Y-80324400D01*
X137307995Y-80527600D02*
X137667205Y-80527600D01*
X138307962Y-80527600D02*
X140352560Y-80527600D01*
X160117623Y-80527600D02*
X167115000Y-80527600D01*
X168885000Y-80527600D02*
X185270014Y-80527600D01*
X190040015Y-80527600D02*
X214290000Y-80527600D01*
X137511195Y-80730800D02*
X140352560Y-80730800D01*
X160077203Y-80730800D02*
X167115000Y-80730800D01*
X168885000Y-80730800D02*
X185269837Y-80730800D01*
X190039837Y-80730800D02*
X214290000Y-80730800D01*
X137672532Y-80934000D02*
X140352560Y-80934000D01*
X160036784Y-80934000D02*
X167115000Y-80934000D01*
X168885000Y-80934000D02*
X185330474Y-80934000D01*
X189980525Y-80934000D02*
X214290000Y-80934000D01*
X134210000Y-81137200D02*
X134311788Y-81137200D01*
X137727769Y-81137200D02*
X140352560Y-81137200D01*
X159955047Y-81137200D02*
X167115000Y-81137200D01*
X168885000Y-81137200D02*
X185414434Y-81137200D01*
X189896149Y-81137200D02*
X214290000Y-81137200D01*
X134210000Y-81340400D02*
X134508820Y-81340400D01*
X137855276Y-81340400D02*
X140352560Y-81340400D01*
X159819273Y-81340400D02*
X167115000Y-81340400D01*
X168885000Y-81340400D02*
X185498395Y-81340400D01*
X189811773Y-81340400D02*
X214290000Y-81340400D01*
X134210000Y-81543600D02*
X134712020Y-81543600D01*
X137939236Y-81543600D02*
X140352560Y-81543600D01*
X159659556Y-81543600D02*
X167115000Y-81543600D01*
X168885000Y-81543600D02*
X185582355Y-81543600D01*
X189727397Y-81543600D02*
X214290000Y-81543600D01*
X134210000Y-81746800D02*
X134915220Y-81746800D01*
X138023197Y-81746800D02*
X140352560Y-81746800D01*
X159355446Y-81746800D02*
X167115000Y-81746800D01*
X168885000Y-81746800D02*
X185714742Y-81746800D01*
X189596545Y-81746800D02*
X214290000Y-81746800D01*
X134210000Y-81950000D02*
X134965114Y-81950000D01*
X138035113Y-81950000D02*
X140352560Y-81950000D01*
X158555789Y-81950000D02*
X167115000Y-81950000D01*
X168885000Y-81950000D02*
X185917588Y-81950000D01*
X189392990Y-81950000D02*
X214290000Y-81950000D01*
X134210000Y-82153200D02*
X134964937Y-82153200D01*
X138034936Y-82153200D02*
X140352560Y-82153200D01*
X158352589Y-82153200D02*
X167115000Y-82153200D01*
X168885000Y-82153200D02*
X186120433Y-82153200D01*
X189189435Y-82153200D02*
X214290000Y-82153200D01*
X134210000Y-82356400D02*
X134964760Y-82356400D01*
X138034759Y-82356400D02*
X140352560Y-82356400D01*
X158149389Y-82356400D02*
X167115000Y-82356400D01*
X168885000Y-82356400D02*
X186352712Y-82356400D01*
X188959616Y-82356400D02*
X214290000Y-82356400D01*
X134210000Y-82559600D02*
X135037295Y-82559600D01*
X137962926Y-82559600D02*
X140352560Y-82559600D01*
X158005000Y-82559600D02*
X167115000Y-82559600D01*
X168885000Y-82559600D02*
X186842072Y-82559600D01*
X188467834Y-82559600D02*
X214290000Y-82559600D01*
X134210000Y-82762800D02*
X135121255Y-82762800D01*
X137878550Y-82762800D02*
X140352560Y-82762800D01*
X158005000Y-82762800D02*
X167115000Y-82762800D01*
X168885000Y-82762800D02*
X214290000Y-82762800D01*
X134210000Y-82966000D02*
X135215530Y-82966000D01*
X137785167Y-82966000D02*
X140352560Y-82966000D01*
X158005000Y-82966000D02*
X167115000Y-82966000D01*
X168885000Y-82966000D02*
X214290000Y-82966000D01*
X134210000Y-83169200D02*
X135418375Y-83169200D01*
X137581611Y-83169200D02*
X140352560Y-83169200D01*
X158005000Y-83169200D02*
X167115000Y-83169200D01*
X168885000Y-83169200D02*
X214290000Y-83169200D01*
X134210000Y-83372400D02*
X135621220Y-83372400D01*
X137378055Y-83372400D02*
X140352560Y-83372400D01*
X158005000Y-83372400D02*
X167115000Y-83372400D01*
X168885000Y-83372400D02*
X214290000Y-83372400D01*
X134210000Y-83575600D02*
X136099087Y-83575600D01*
X136899987Y-83575600D02*
X140366785Y-83575600D01*
X158005000Y-83575600D02*
X167115000Y-83575600D01*
X168885000Y-83575600D02*
X214290000Y-83575600D01*
X134210000Y-83778800D02*
X140424818Y-83778800D01*
X158005000Y-83778800D02*
X167115000Y-83778800D01*
X168885000Y-83778800D02*
X214290000Y-83778800D01*
X134210000Y-83982000D02*
X140470867Y-83982000D01*
X158005000Y-83982000D02*
X167115000Y-83982000D01*
X168885000Y-83982000D02*
X214290000Y-83982000D01*
X134210000Y-84185200D02*
X140198354Y-84185200D01*
X158005000Y-84185200D02*
X167115000Y-84185200D01*
X168885000Y-84185200D02*
X214290000Y-84185200D01*
X134210000Y-84388400D02*
X140016159Y-84388400D01*
X158005000Y-84388400D02*
X167115000Y-84388400D01*
X168885000Y-84388400D02*
X214290000Y-84388400D01*
X134210000Y-84591600D02*
X139931991Y-84591600D01*
X158005000Y-84591600D02*
X167115000Y-84591600D01*
X168885000Y-84591600D02*
X214290000Y-84591600D01*
X134210000Y-84794800D02*
X139857000Y-84794800D01*
X158005000Y-84794800D02*
X167115000Y-84794800D01*
X168885000Y-84794800D02*
X214290000Y-84794800D01*
X134210000Y-84998000D02*
X139857000Y-84998000D01*
X158005000Y-84998000D02*
X167115000Y-84998000D01*
X168885000Y-84998000D02*
X214290000Y-84998000D01*
X134210000Y-85201200D02*
X139857000Y-85201200D01*
X158005000Y-85201200D02*
X167115000Y-85201200D01*
X168885000Y-85201200D02*
X214290000Y-85201200D01*
X134210000Y-85404400D02*
X139857000Y-85404400D01*
X158005000Y-85404400D02*
X167115000Y-85404400D01*
X168885000Y-85404400D02*
X214290000Y-85404400D01*
X134210000Y-85607600D02*
X139857000Y-85607600D01*
X158005000Y-85607600D02*
X158272114Y-85607600D01*
X159048682Y-85607600D02*
X167115000Y-85607600D01*
X168885000Y-85607600D02*
X214290000Y-85607600D01*
X134210000Y-85810800D02*
X139857000Y-85810800D01*
X159500501Y-85810800D02*
X167115000Y-85810800D01*
X168885000Y-85810800D02*
X214290000Y-85810800D01*
X134210000Y-86014000D02*
X139857000Y-86014000D01*
X159703347Y-86014000D02*
X167115000Y-86014000D01*
X168885000Y-86014000D02*
X214290000Y-86014000D01*
X134210000Y-86217200D02*
X139986950Y-86217200D01*
X159889226Y-86217200D02*
X167115000Y-86217200D01*
X168885000Y-86217200D02*
X214290000Y-86217200D01*
X134210000Y-86420400D02*
X143647000Y-86420400D01*
X159973186Y-86420400D02*
X167115000Y-86420400D01*
X168885000Y-86420400D02*
X214290000Y-86420400D01*
X134210000Y-86623600D02*
X143647000Y-86623600D01*
X160057147Y-86623600D02*
X167115000Y-86623600D01*
X168885000Y-86623600D02*
X214290000Y-86623600D01*
X134210000Y-86826800D02*
X139942950Y-86826800D01*
X143373000Y-86826800D02*
X143627000Y-86826800D01*
X160095151Y-86826800D02*
X167115000Y-86826800D01*
X168885000Y-86826800D02*
X214290000Y-86826800D01*
X134210000Y-87030000D02*
X139857000Y-87030000D01*
X143373000Y-87030000D02*
X143627000Y-87030000D01*
X160094973Y-87030000D02*
X167115000Y-87030000D01*
X168885000Y-87030000D02*
X214290000Y-87030000D01*
X134210000Y-87233200D02*
X139857000Y-87233200D01*
X143373000Y-87233200D02*
X143627000Y-87233200D01*
X160094796Y-87233200D02*
X167115000Y-87233200D01*
X168885000Y-87233200D02*
X214290000Y-87233200D01*
X134210000Y-87436400D02*
X139857000Y-87436400D01*
X143373000Y-87436400D02*
X143627000Y-87436400D01*
X160032585Y-87436400D02*
X167115000Y-87436400D01*
X168885000Y-87436400D02*
X214290000Y-87436400D01*
X134210000Y-87639600D02*
X139857000Y-87639600D01*
X143373000Y-87639600D02*
X143627000Y-87639600D01*
X159948209Y-87639600D02*
X167115000Y-87639600D01*
X168885000Y-87639600D02*
X214290000Y-87639600D01*
X134210000Y-87842800D02*
X139857000Y-87842800D01*
X143373000Y-87842800D02*
X143627000Y-87842800D01*
X159846896Y-87842800D02*
X167115000Y-87842800D01*
X168885000Y-87842800D02*
X214290000Y-87842800D01*
X134210000Y-88046000D02*
X139857000Y-88046000D01*
X143373000Y-88046000D02*
X143627000Y-88046000D01*
X159643342Y-88046000D02*
X167115000Y-88046000D01*
X168885000Y-88046000D02*
X214290000Y-88046000D01*
X134210000Y-88249200D02*
X139866047Y-88249200D01*
X143373000Y-88249200D02*
X143627000Y-88249200D01*
X159545000Y-88249200D02*
X167115000Y-88249200D01*
X168885000Y-88249200D02*
X214290000Y-88249200D01*
X134210000Y-88452400D02*
X139950215Y-88452400D01*
X143373000Y-88452400D02*
X143627000Y-88452400D01*
X159545000Y-88452400D02*
X167115000Y-88452400D01*
X168885000Y-88452400D02*
X214290000Y-88452400D01*
X134210000Y-88655600D02*
X140039153Y-88655600D01*
X143373000Y-88655600D02*
X143627000Y-88655600D01*
X159545000Y-88655600D02*
X167115000Y-88655600D01*
X168885000Y-88655600D02*
X214290000Y-88655600D01*
X134210000Y-88858800D02*
X140242353Y-88858800D01*
X143371450Y-88858800D02*
X143628550Y-88858800D01*
X159545000Y-88858800D02*
X167115000Y-88858800D01*
X168885000Y-88858800D02*
X214290000Y-88858800D01*
X134210000Y-89062000D02*
X140577091Y-89062000D01*
X143168250Y-89062000D02*
X143831750Y-89062000D01*
X159545000Y-89062000D02*
X163255458Y-89062000D01*
X164579572Y-89062000D02*
X167115000Y-89062000D01*
X168885000Y-89062000D02*
X214290000Y-89062000D01*
X134210000Y-89265200D02*
X144983220Y-89265200D01*
X159545000Y-89265200D02*
X162764891Y-89265200D01*
X165097600Y-89265200D02*
X167115000Y-89265200D01*
X168885000Y-89265200D02*
X214290000Y-89265200D01*
X134210000Y-89468400D02*
X144780020Y-89468400D01*
X159545000Y-89468400D02*
X162718014Y-89468400D01*
X165145187Y-89468400D02*
X167115000Y-89468400D01*
X168885000Y-89468400D02*
X214290000Y-89468400D01*
X134210000Y-89671600D02*
X144576820Y-89671600D01*
X159545000Y-89671600D02*
X162682906Y-89671600D01*
X165180295Y-89671600D02*
X167115000Y-89671600D01*
X168885000Y-89671600D02*
X214290000Y-89671600D01*
X134210000Y-89874800D02*
X144373620Y-89874800D01*
X159545000Y-89874800D02*
X162414139Y-89874800D01*
X162516995Y-89874800D02*
X162876205Y-89874800D01*
X164986995Y-89874800D02*
X165346205Y-89874800D01*
X165449062Y-89874800D02*
X167115000Y-89874800D01*
X168885000Y-89874800D02*
X214290000Y-89874800D01*
X134210000Y-90078000D02*
X144170420Y-90078000D01*
X159545000Y-90078000D02*
X162034360Y-90078000D01*
X162720195Y-90078000D02*
X163079405Y-90078000D01*
X164783795Y-90078000D02*
X165143005Y-90078000D01*
X165832082Y-90078000D02*
X167115000Y-90078000D01*
X168885000Y-90078000D02*
X214290000Y-90078000D01*
X134210000Y-90281200D02*
X143967220Y-90281200D01*
X159545000Y-90281200D02*
X161954653Y-90281200D01*
X162923395Y-90281200D02*
X163282605Y-90281200D01*
X164580595Y-90281200D02*
X164939805Y-90281200D01*
X165916250Y-90281200D02*
X167115000Y-90281200D01*
X168885000Y-90281200D02*
X214290000Y-90281200D01*
X134210000Y-90484400D02*
X143764020Y-90484400D01*
X159545000Y-90484400D02*
X161874947Y-90484400D01*
X163126595Y-90484400D02*
X163485805Y-90484400D01*
X164377395Y-90484400D02*
X164736605Y-90484400D01*
X166000419Y-90484400D02*
X167115000Y-90484400D01*
X168885000Y-90484400D02*
X214290000Y-90484400D01*
X134210000Y-90687600D02*
X143560820Y-90687600D01*
X159545000Y-90687600D02*
X161795240Y-90687600D01*
X163329795Y-90687600D02*
X163689005Y-90687600D01*
X164174195Y-90687600D02*
X164533405Y-90687600D01*
X166067009Y-90687600D02*
X167115000Y-90687600D01*
X168885000Y-90687600D02*
X214290000Y-90687600D01*
X134210000Y-90890800D02*
X138553112Y-90890800D01*
X159545000Y-90890800D02*
X161784080Y-90890800D01*
X163532995Y-90890800D02*
X163892205Y-90890800D01*
X163970995Y-90890800D02*
X164330205Y-90890800D01*
X166070847Y-90890800D02*
X167115000Y-90890800D01*
X168885000Y-90890800D02*
X214290000Y-90890800D01*
X134210000Y-91094000D02*
X138161139Y-91094000D01*
X159545000Y-91094000D02*
X161787918Y-91094000D01*
X163736195Y-91094000D02*
X164127005Y-91094000D01*
X166074685Y-91094000D02*
X167115000Y-91094000D01*
X168885000Y-91094000D02*
X214290000Y-91094000D01*
X134210000Y-91297200D02*
X137951221Y-91297200D01*
X159545000Y-91297200D02*
X161791756Y-91297200D01*
X163564595Y-91297200D02*
X163923805Y-91297200D01*
X163939395Y-91297200D02*
X164298605Y-91297200D01*
X166078524Y-91297200D02*
X167115000Y-91297200D01*
X168885000Y-91297200D02*
X214290000Y-91297200D01*
X134210000Y-91500400D02*
X137748021Y-91500400D01*
X159545000Y-91500400D02*
X161795594Y-91500400D01*
X163361395Y-91500400D02*
X163720605Y-91500400D01*
X164142595Y-91500400D02*
X164501805Y-91500400D01*
X166080355Y-91500400D02*
X167115000Y-91500400D01*
X168885000Y-91500400D02*
X214290000Y-91500400D01*
X134210000Y-91703600D02*
X137544821Y-91703600D01*
X159545000Y-91703600D02*
X161849692Y-91703600D01*
X163158195Y-91703600D02*
X163517405Y-91703600D01*
X164345795Y-91703600D02*
X164705005Y-91703600D01*
X166000649Y-91703600D02*
X167115000Y-91703600D01*
X168885000Y-91703600D02*
X214290000Y-91703600D01*
X134210000Y-91906800D02*
X137341621Y-91906800D01*
X159545000Y-91906800D02*
X161933860Y-91906800D01*
X162954995Y-91906800D02*
X163314205Y-91906800D01*
X164548995Y-91906800D02*
X164908205Y-91906800D01*
X165920942Y-91906800D02*
X167115000Y-91906800D01*
X168885000Y-91906800D02*
X214290000Y-91906800D01*
X134210000Y-92110000D02*
X137138421Y-92110000D01*
X159545000Y-92110000D02*
X162018029Y-92110000D01*
X162751795Y-92110000D02*
X163111005Y-92110000D01*
X164752195Y-92110000D02*
X165111405Y-92110000D01*
X165841235Y-92110000D02*
X167115000Y-92110000D01*
X168885000Y-92110000D02*
X214290000Y-92110000D01*
X134210000Y-92313200D02*
X136935221Y-92313200D01*
X159545000Y-92313200D02*
X162231241Y-92313200D01*
X162548595Y-92313200D02*
X162907805Y-92313200D01*
X164955395Y-92313200D02*
X165314605Y-92313200D01*
X165631958Y-92313200D02*
X167115000Y-92313200D01*
X168885000Y-92313200D02*
X214290000Y-92313200D01*
X134210000Y-92516400D02*
X136732021Y-92516400D01*
X159545000Y-92516400D02*
X162704605Y-92516400D01*
X165158595Y-92516400D02*
X167115000Y-92516400D01*
X168885000Y-92516400D02*
X214290000Y-92516400D01*
X134210000Y-92719600D02*
X136528821Y-92719600D01*
X159545000Y-92719600D02*
X162712553Y-92719600D01*
X165150646Y-92719600D02*
X167115000Y-92719600D01*
X168885000Y-92719600D02*
X214290000Y-92719600D01*
X134210000Y-92922800D02*
X136341744Y-92922800D01*
X159545000Y-92922800D02*
X162747661Y-92922800D01*
X165115538Y-92922800D02*
X167115000Y-92922800D01*
X168885000Y-92922800D02*
X214290000Y-92922800D01*
X134210000Y-93126000D02*
X136205971Y-93126000D01*
X159545000Y-93126000D02*
X163203069Y-93126000D01*
X164684031Y-93126000D02*
X167115000Y-93126000D01*
X168885000Y-93126000D02*
X214290000Y-93126000D01*
X134210000Y-93329200D02*
X136148975Y-93329200D01*
X159545000Y-93329200D02*
X167115000Y-93329200D01*
X168885000Y-93329200D02*
X214290000Y-93329200D01*
X134210000Y-93532400D02*
X136115000Y-93532400D01*
X159545000Y-93532400D02*
X167115000Y-93532400D01*
X168885000Y-93532400D02*
X214290000Y-93532400D01*
X134210000Y-93735600D02*
X136115000Y-93735600D01*
X159545000Y-93735600D02*
X167115000Y-93735600D01*
X168885000Y-93735600D02*
X214290000Y-93735600D01*
X134210000Y-93938800D02*
X136115000Y-93938800D01*
X159545000Y-93938800D02*
X167115000Y-93938800D01*
X168885000Y-93938800D02*
X214290000Y-93938800D01*
X134210000Y-94142000D02*
X136115000Y-94142000D01*
X159545000Y-94142000D02*
X167115000Y-94142000D01*
X168885000Y-94142000D02*
X214290000Y-94142000D01*
X134210000Y-94345200D02*
X136115000Y-94345200D01*
X159545000Y-94345200D02*
X167115000Y-94345200D01*
X168885000Y-94345200D02*
X214290000Y-94345200D01*
X134210000Y-94548400D02*
X136115000Y-94548400D01*
X159545000Y-94548400D02*
X167115000Y-94548400D01*
X168885000Y-94548400D02*
X214290000Y-94548400D01*
X134210000Y-94751600D02*
X136115000Y-94751600D01*
X159545000Y-94751600D02*
X167115000Y-94751600D01*
X168885000Y-94751600D02*
X214290000Y-94751600D01*
X134210000Y-94954800D02*
X136115000Y-94954800D01*
X159545000Y-94954800D02*
X167115000Y-94954800D01*
X168885000Y-94954800D02*
X214290000Y-94954800D01*
X134210000Y-95158000D02*
X136115000Y-95158000D01*
X159545000Y-95158000D02*
X167115000Y-95158000D01*
X168885000Y-95158000D02*
X214290000Y-95158000D01*
X134210000Y-95361200D02*
X136115000Y-95361200D01*
X159545000Y-95361200D02*
X167115000Y-95361200D01*
X168885000Y-95361200D02*
X214290000Y-95361200D01*
X134210000Y-95564400D02*
X136115000Y-95564400D01*
X159545000Y-95564400D02*
X167115000Y-95564400D01*
X168885000Y-95564400D02*
X214290000Y-95564400D01*
X134210000Y-95767600D02*
X136115000Y-95767600D01*
X159545000Y-95767600D02*
X167115000Y-95767600D01*
X168885000Y-95767600D02*
X214290000Y-95767600D01*
X134210000Y-95970800D02*
X136115000Y-95970800D01*
X159545000Y-95970800D02*
X167115000Y-95970800D01*
X168885000Y-95970800D02*
X214290000Y-95970800D01*
X134210000Y-96174000D02*
X136115000Y-96174000D01*
X159545000Y-96174000D02*
X167115000Y-96174000D01*
X168885000Y-96174000D02*
X214290000Y-96174000D01*
X134210000Y-96377200D02*
X136115000Y-96377200D01*
X159545000Y-96377200D02*
X167115000Y-96377200D01*
X168885000Y-96377200D02*
X214290000Y-96377200D01*
X134210000Y-96580400D02*
X136130992Y-96580400D01*
X159545000Y-96580400D02*
X167115000Y-96580400D01*
X168885000Y-96580400D02*
X214290000Y-96580400D01*
X134210000Y-96783600D02*
X136171411Y-96783600D01*
X159545000Y-96783600D02*
X167115000Y-96783600D01*
X168885000Y-96783600D02*
X214290000Y-96783600D01*
X134210000Y-96986800D02*
X136281340Y-96986800D01*
X159545000Y-96986800D02*
X167115000Y-96986800D01*
X168885000Y-96986800D02*
X214290000Y-96986800D01*
X134210000Y-97190000D02*
X136438420Y-97190000D01*
X159545000Y-97190000D02*
X167115000Y-97190000D01*
X168885000Y-97190000D02*
X214290000Y-97190000D01*
X134210000Y-97393200D02*
X136641620Y-97393200D01*
X159545000Y-97393200D02*
X167115000Y-97393200D01*
X168885000Y-97393200D02*
X214290000Y-97393200D01*
X134210000Y-97596400D02*
X136844820Y-97596400D01*
X159545000Y-97596400D02*
X167115000Y-97596400D01*
X168885000Y-97596400D02*
X214290000Y-97596400D01*
X134210000Y-97799600D02*
X137048020Y-97799600D01*
X159545000Y-97799600D02*
X167115000Y-97799600D01*
X168885000Y-97799600D02*
X214290000Y-97799600D01*
X134210000Y-98002800D02*
X137251220Y-98002800D01*
X159545000Y-98002800D02*
X167115000Y-98002800D01*
X168885000Y-98002800D02*
X214290000Y-98002800D01*
X134210000Y-98206000D02*
X137494253Y-98206000D01*
X159545000Y-98206000D02*
X167115000Y-98206000D01*
X168885000Y-98206000D02*
X214290000Y-98206000D01*
X134210000Y-98409200D02*
X138820171Y-98409200D01*
X159545000Y-98409200D02*
X167115000Y-98409200D01*
X168885000Y-98409200D02*
X214290000Y-98409200D01*
X134210000Y-98612400D02*
X138975307Y-98612400D01*
X159545000Y-98612400D02*
X167115000Y-98612400D01*
X168885000Y-98612400D02*
X214290000Y-98612400D01*
X134210000Y-98815600D02*
X139142927Y-98815600D01*
X159545000Y-98815600D02*
X167115000Y-98815600D01*
X168885000Y-98815600D02*
X214290000Y-98815600D01*
X134210000Y-99018800D02*
X138895009Y-99018800D01*
X159545000Y-99018800D02*
X167115000Y-99018800D01*
X168885000Y-99018800D02*
X214290000Y-99018800D01*
X134210000Y-99222000D02*
X138759235Y-99222000D01*
X159545000Y-99222000D02*
X167115000Y-99222000D01*
X168885000Y-99222000D02*
X214290000Y-99222000D01*
X134210000Y-99425200D02*
X138623461Y-99425200D01*
X159545000Y-99425200D02*
X167106637Y-99425200D01*
X168885000Y-99425200D02*
X214290000Y-99425200D01*
X134210000Y-99628400D02*
X138577433Y-99628400D01*
X159545000Y-99628400D02*
X166903437Y-99628400D01*
X168885000Y-99628400D02*
X214290000Y-99628400D01*
X134210000Y-99831600D02*
X138537014Y-99831600D01*
X159545000Y-99831600D02*
X166700237Y-99831600D01*
X168875416Y-99831600D02*
X214290000Y-99831600D01*
X134210000Y-100034800D02*
X138501400Y-100034800D01*
X159545000Y-100034800D02*
X166497037Y-100034800D01*
X168834996Y-100034800D02*
X214290000Y-100034800D01*
X134210000Y-100238000D02*
X138534944Y-100238000D01*
X159545000Y-100238000D02*
X166293837Y-100238000D01*
X168740185Y-100238000D02*
X214290000Y-100238000D01*
X134210000Y-100441200D02*
X138575363Y-100441200D01*
X159545000Y-100441200D02*
X166090637Y-100441200D01*
X168593795Y-100441200D02*
X214290000Y-100441200D01*
X134210000Y-100644400D02*
X138616511Y-100644400D01*
X159545000Y-100644400D02*
X165887437Y-100644400D01*
X168390595Y-100644400D02*
X214290000Y-100644400D01*
X134210000Y-100847600D02*
X138752285Y-100847600D01*
X159545000Y-100847600D02*
X165684237Y-100847600D01*
X168187395Y-100847600D02*
X214290000Y-100847600D01*
X134210000Y-101050800D02*
X138888059Y-101050800D01*
X159545000Y-101050800D02*
X165481037Y-101050800D01*
X167984195Y-101050800D02*
X214290000Y-101050800D01*
X134210000Y-101254000D02*
X139127362Y-101254000D01*
X140872637Y-101254000D02*
X141147291Y-101254000D01*
X159545000Y-101254000D02*
X165277837Y-101254000D01*
X167780995Y-101254000D02*
X214290000Y-101254000D01*
X134210000Y-101457200D02*
X139443176Y-101457200D01*
X140556823Y-101457200D02*
X141361824Y-101457200D01*
X159545000Y-101457200D02*
X165074637Y-101457200D01*
X167577795Y-101457200D02*
X187103462Y-101457200D01*
X188208716Y-101457200D02*
X214290000Y-101457200D01*
X134210000Y-101660400D02*
X141655000Y-101660400D01*
X159545000Y-101660400D02*
X164871437Y-101660400D01*
X167374595Y-101660400D02*
X186611680Y-101660400D01*
X188698077Y-101660400D02*
X214290000Y-101660400D01*
X134210000Y-101863600D02*
X141655000Y-101863600D01*
X159545000Y-101863600D02*
X164668237Y-101863600D01*
X167171395Y-101863600D02*
X186228953Y-101863600D01*
X189082355Y-101863600D02*
X214290000Y-101863600D01*
X134210000Y-102066800D02*
X141655000Y-102066800D01*
X159545000Y-102066800D02*
X164465037Y-102066800D01*
X166968195Y-102066800D02*
X186025398Y-102066800D01*
X189285200Y-102066800D02*
X214290000Y-102066800D01*
X134210000Y-102270000D02*
X141655000Y-102270000D01*
X159508942Y-102270000D02*
X162597816Y-102270000D01*
X166764995Y-102270000D02*
X185821843Y-102270000D01*
X189488046Y-102270000D02*
X214290000Y-102270000D01*
X134210000Y-102473200D02*
X141655000Y-102473200D01*
X159447031Y-102473200D02*
X162393049Y-102473200D01*
X166561795Y-102473200D02*
X185627765Y-102473200D01*
X189683503Y-102473200D02*
X214290000Y-102473200D01*
X134210000Y-102676400D02*
X141655000Y-102676400D01*
X159311258Y-102676400D02*
X162311175Y-102676400D01*
X166358595Y-102676400D02*
X185543389Y-102676400D01*
X189767463Y-102676400D02*
X214290000Y-102676400D01*
X134210000Y-102879600D02*
X141655000Y-102879600D01*
X159120706Y-102879600D02*
X162284160Y-102879600D01*
X166155395Y-102879600D02*
X185459013Y-102879600D01*
X189851424Y-102879600D02*
X214290000Y-102879600D01*
X134210000Y-103082800D02*
X141684757Y-103082800D01*
X158917506Y-103082800D02*
X162284160Y-103082800D01*
X165952195Y-103082800D02*
X185374637Y-103082800D01*
X189935384Y-103082800D02*
X214290000Y-103082800D01*
X134210000Y-103286000D02*
X141731804Y-103286000D01*
X158714306Y-103286000D02*
X162284160Y-103286000D01*
X165748995Y-103286000D02*
X185290262Y-103286000D01*
X190019344Y-103286000D02*
X214290000Y-103286000D01*
X134210000Y-103489200D02*
X141867578Y-103489200D01*
X158511106Y-103489200D02*
X162284160Y-103489200D01*
X165579040Y-103489200D02*
X185270479Y-103489200D01*
X190040480Y-103489200D02*
X214290000Y-103489200D01*
X134210000Y-103692400D02*
X142047620Y-103692400D01*
X158307906Y-103692400D02*
X162284160Y-103692400D01*
X165579040Y-103692400D02*
X185270302Y-103692400D01*
X190040303Y-103692400D02*
X214290000Y-103692400D01*
X134210000Y-103895600D02*
X142250820Y-103895600D01*
X158056636Y-103895600D02*
X162284160Y-103895600D01*
X165579040Y-103895600D02*
X185270125Y-103895600D01*
X190040125Y-103895600D02*
X214290000Y-103895600D01*
X134210000Y-104098800D02*
X142454020Y-104098800D01*
X156152779Y-104098800D02*
X162284160Y-104098800D01*
X165579040Y-104098800D02*
X185269947Y-104098800D01*
X190039948Y-104098800D02*
X214290000Y-104098800D01*
X134210000Y-104302000D02*
X142657220Y-104302000D01*
X155949579Y-104302000D02*
X162284160Y-104302000D01*
X165579040Y-104302000D02*
X185277999Y-104302000D01*
X190033260Y-104302000D02*
X214290000Y-104302000D01*
X134210000Y-104505200D02*
X142860420Y-104505200D01*
X155746379Y-104505200D02*
X162284160Y-104505200D01*
X165579040Y-104505200D02*
X185361959Y-104505200D01*
X189948884Y-104505200D02*
X214290000Y-104505200D01*
X134210000Y-104708400D02*
X143063620Y-104708400D01*
X155543179Y-104708400D02*
X162284160Y-104708400D01*
X165579040Y-104708400D02*
X185445920Y-104708400D01*
X189864508Y-104708400D02*
X214290000Y-104708400D01*
X134210000Y-104911600D02*
X143266820Y-104911600D01*
X155339979Y-104911600D02*
X162303315Y-104911600D01*
X165558424Y-104911600D02*
X185529880Y-104911600D01*
X189780132Y-104911600D02*
X214290000Y-104911600D01*
X134210000Y-105114800D02*
X143470020Y-105114800D01*
X155136779Y-105114800D02*
X162373277Y-105114800D01*
X165491742Y-105114800D02*
X185613840Y-105114800D01*
X189695756Y-105114800D02*
X214290000Y-105114800D01*
X134210000Y-105318000D02*
X143673220Y-105318000D01*
X154933579Y-105318000D02*
X162550579Y-105318000D01*
X165314492Y-105318000D02*
X185790809Y-105318000D01*
X189520212Y-105318000D02*
X214290000Y-105318000D01*
X134210000Y-105521200D02*
X143876420Y-105521200D01*
X154730379Y-105521200D02*
X185993655Y-105521200D01*
X189316657Y-105521200D02*
X214290000Y-105521200D01*
X134210000Y-105724400D02*
X144079620Y-105724400D01*
X154527179Y-105724400D02*
X186196501Y-105724400D01*
X189113102Y-105724400D02*
X214290000Y-105724400D01*
X134210000Y-105927600D02*
X144282820Y-105927600D01*
X154323979Y-105927600D02*
X186536222Y-105927600D01*
X188775198Y-105927600D02*
X214290000Y-105927600D01*
X134210000Y-106130800D02*
X144486020Y-106130800D01*
X154120779Y-106130800D02*
X187025583Y-106130800D01*
X188283416Y-106130800D02*
X214290000Y-106130800D01*
X134210000Y-106334000D02*
X144689220Y-106334000D01*
X153917579Y-106334000D02*
X214290000Y-106334000D01*
X134210000Y-106537200D02*
X144892420Y-106537200D01*
X153714379Y-106537200D02*
X214290000Y-106537200D01*
X134210000Y-106740400D02*
X145095620Y-106740400D01*
X153511179Y-106740400D02*
X214290000Y-106740400D01*
X134210000Y-106943600D02*
X145298820Y-106943600D01*
X153307979Y-106943600D02*
X214290000Y-106943600D01*
X134210000Y-107146800D02*
X145502020Y-107146800D01*
X154261744Y-107146800D02*
X157738095Y-107146800D01*
X159261744Y-107146800D02*
X214290000Y-107146800D01*
X134210000Y-107350000D02*
X145705220Y-107350000D01*
X154651221Y-107350000D02*
X157349465Y-107350000D01*
X159651221Y-107350000D02*
X214290000Y-107350000D01*
X134210000Y-107553200D02*
X145908420Y-107553200D01*
X154854066Y-107553200D02*
X157145910Y-107553200D01*
X159854066Y-107553200D02*
X214290000Y-107553200D01*
X134210000Y-107756400D02*
X146111620Y-107756400D01*
X155056912Y-107756400D02*
X156942355Y-107756400D01*
X160056912Y-107756400D02*
X214290000Y-107756400D01*
X134210000Y-107959600D02*
X146314820Y-107959600D01*
X155175458Y-107959600D02*
X156824961Y-107959600D01*
X160175458Y-107959600D02*
X214290000Y-107959600D01*
X134210000Y-108162800D02*
X146491546Y-108162800D01*
X155259418Y-108162800D02*
X156740586Y-108162800D01*
X160259418Y-108162800D02*
X214290000Y-108162800D01*
X134210000Y-108366000D02*
X146407170Y-108366000D01*
X155343379Y-108366000D02*
X156656210Y-108366000D01*
X160343379Y-108366000D02*
X214290000Y-108366000D01*
X134210000Y-108569200D02*
X146365283Y-108569200D01*
X155405283Y-108569200D02*
X156595283Y-108569200D01*
X160405283Y-108569200D02*
X214290000Y-108569200D01*
X134210000Y-108772400D02*
X146365105Y-108772400D01*
X155405105Y-108772400D02*
X156595106Y-108772400D01*
X160405105Y-108772400D02*
X214290000Y-108772400D01*
X134210000Y-108975600D02*
X146364928Y-108975600D01*
X155404927Y-108975600D02*
X156594928Y-108975600D01*
X160404928Y-108975600D02*
X214290000Y-108975600D01*
X134210000Y-109178800D02*
X146364750Y-109178800D01*
X155404750Y-109178800D02*
X156594751Y-109178800D01*
X160404750Y-109178800D02*
X214290000Y-109178800D01*
X134210000Y-109382000D02*
X146391894Y-109382000D01*
X155359735Y-109382000D02*
X156640755Y-109382000D01*
X160359735Y-109382000D02*
X214290000Y-109382000D01*
X134210000Y-109585200D02*
X146475855Y-109585200D01*
X155275359Y-109585200D02*
X156724715Y-109585200D01*
X160275359Y-109585200D02*
X214290000Y-109585200D01*
X134210000Y-109788400D02*
X146559815Y-109788400D01*
X155190984Y-109788400D02*
X156808676Y-109788400D01*
X160190984Y-109788400D02*
X214290000Y-109788400D01*
X134210000Y-109991600D02*
X146643776Y-109991600D01*
X155096112Y-109991600D02*
X156904755Y-109991600D01*
X160096112Y-109991600D02*
X214290000Y-109991600D01*
X134210000Y-110194800D02*
X146782616Y-110194800D01*
X152079473Y-110194800D02*
X152107601Y-110194800D01*
X154892557Y-110194800D02*
X157107601Y-110194800D01*
X159892557Y-110194800D02*
X214290000Y-110194800D01*
X134210000Y-110398000D02*
X146985462Y-110398000D01*
X152039054Y-110398000D02*
X152310446Y-110398000D01*
X154689002Y-110398000D02*
X157310446Y-110398000D01*
X159689002Y-110398000D02*
X214290000Y-110398000D01*
X134210000Y-110601200D02*
X147188307Y-110601200D01*
X151955095Y-110601200D02*
X152645779Y-110601200D01*
X154354840Y-110601200D02*
X157645779Y-110601200D01*
X159354840Y-110601200D02*
X214290000Y-110601200D01*
X134210000Y-110804400D02*
X135961090Y-110804400D01*
X137040469Y-110804400D02*
X147535384Y-110804400D01*
X151816379Y-110804400D02*
X211461090Y-110804400D01*
X212540469Y-110804400D02*
X214290000Y-110804400D01*
X134210000Y-111007600D02*
X135469309Y-111007600D01*
X137529829Y-111007600D02*
X147600373Y-111007600D01*
X151613179Y-111007600D02*
X158074985Y-111007600D01*
X158926512Y-111007600D02*
X210969309Y-111007600D01*
X213029829Y-111007600D02*
X214290000Y-111007600D01*
X134210000Y-111210800D02*
X135128797Y-111210800D01*
X137871933Y-111210800D02*
X147139542Y-111210800D01*
X151409979Y-111210800D02*
X152841679Y-111210800D01*
X154158669Y-111210800D02*
X157583204Y-111210800D01*
X159415873Y-111210800D02*
X210628797Y-111210800D01*
X213371933Y-111210800D02*
X214290000Y-111210800D01*
X134210000Y-111414000D02*
X134925242Y-111414000D01*
X138074779Y-111414000D02*
X146935988Y-111414000D01*
X151206779Y-111414000D02*
X152392340Y-111414000D01*
X154608496Y-111414000D02*
X157285353Y-111414000D01*
X159715109Y-111414000D02*
X210425242Y-111414000D01*
X213574779Y-111414000D02*
X214290000Y-111414000D01*
X134210000Y-111617200D02*
X134721687Y-111617200D01*
X138277624Y-111617200D02*
X146732433Y-111617200D01*
X151003579Y-111617200D02*
X152188785Y-111617200D01*
X154811341Y-111617200D02*
X157081798Y-111617200D01*
X159917955Y-111617200D02*
X210221687Y-111617200D01*
X213777624Y-111617200D02*
X214290000Y-111617200D01*
X134210000Y-111820400D02*
X134569791Y-111820400D01*
X138430873Y-111820400D02*
X146547270Y-111820400D01*
X150800379Y-111820400D02*
X151985230Y-111820400D01*
X155014186Y-111820400D02*
X156882762Y-111820400D01*
X160117941Y-111820400D02*
X210069791Y-111820400D01*
X213930873Y-111820400D02*
X214290000Y-111820400D01*
X134210000Y-112023600D02*
X134485415Y-112023600D01*
X138514833Y-112023600D02*
X146462894Y-112023600D01*
X150597179Y-112023600D02*
X151842733Y-112023600D01*
X155157773Y-112023600D02*
X156798386Y-112023600D01*
X160201902Y-112023600D02*
X209985415Y-112023600D01*
X214014833Y-112023600D02*
X214290000Y-112023600D01*
X134210000Y-112226800D02*
X134401039Y-112226800D01*
X138598794Y-112226800D02*
X146378518Y-112226800D01*
X150393979Y-112226800D02*
X151758358Y-112226800D01*
X155241734Y-112226800D02*
X156714011Y-112226800D01*
X160285862Y-112226800D02*
X209901039Y-112226800D01*
X214098794Y-112226800D02*
X214290000Y-112226800D01*
X134210000Y-112430000D02*
X134316663Y-112430000D01*
X138682755Y-112430000D02*
X146294142Y-112430000D01*
X150443755Y-112430000D02*
X151673982Y-112430000D01*
X155325694Y-112430000D02*
X156629635Y-112430000D01*
X160369823Y-112430000D02*
X209816663Y-112430000D01*
X214182755Y-112430000D02*
X214290000Y-112430000D01*
X134210000Y-112633200D02*
X134265320Y-112633200D01*
X138735320Y-112633200D02*
X146234520Y-112633200D01*
X150504521Y-112633200D02*
X151595320Y-112633200D01*
X155405320Y-112633200D02*
X156595227Y-112633200D01*
X160405227Y-112633200D02*
X209765320Y-112633200D01*
X214235320Y-112633200D02*
X214290000Y-112633200D01*
X134210000Y-112836400D02*
X134265143Y-112836400D01*
X138735143Y-112836400D02*
X146234343Y-112836400D01*
X150504343Y-112836400D02*
X151595143Y-112836400D01*
X155405143Y-112836400D02*
X156595050Y-112836400D01*
X160405050Y-112836400D02*
X209765143Y-112836400D01*
X214235143Y-112836400D02*
X214290000Y-112836400D01*
X134210000Y-113039600D02*
X134264965Y-113039600D01*
X138734966Y-113039600D02*
X146234165Y-113039600D01*
X150504166Y-113039600D02*
X151594965Y-113039600D01*
X155404965Y-113039600D02*
X156594872Y-113039600D01*
X160404872Y-113039600D02*
X209764965Y-113039600D01*
X214234966Y-113039600D02*
X214290000Y-113039600D01*
X134210000Y-113242800D02*
X134264788Y-113242800D01*
X138734788Y-113242800D02*
X146233988Y-113242800D01*
X150503988Y-113242800D02*
X151594788Y-113242800D01*
X155404788Y-113242800D02*
X156594695Y-113242800D01*
X160404695Y-113242800D02*
X209764788Y-113242800D01*
X214234788Y-113242800D02*
X214290000Y-113242800D01*
X134210000Y-113446000D02*
X134266010Y-113446000D01*
X138734611Y-113446000D02*
X146243409Y-113446000D01*
X150495747Y-113446000D02*
X151623070Y-113446000D01*
X155377507Y-113446000D02*
X156667199Y-113446000D01*
X160333160Y-113446000D02*
X209766010Y-113446000D01*
X214234611Y-113446000D02*
X214290000Y-113446000D01*
X134210000Y-113649200D02*
X134349970Y-113649200D01*
X138650450Y-113649200D02*
X146327370Y-113649200D01*
X150411371Y-113649200D02*
X151707031Y-113649200D01*
X155293131Y-113649200D02*
X156751160Y-113649200D01*
X160248784Y-113649200D02*
X209849970Y-113649200D01*
X214150450Y-113649200D02*
X214290000Y-113649200D01*
X134210000Y-113852400D02*
X134433931Y-113852400D01*
X138566074Y-113852400D02*
X146411331Y-113852400D01*
X150326995Y-113852400D02*
X151790991Y-113852400D01*
X155208756Y-113852400D02*
X156835120Y-113852400D01*
X160164408Y-113852400D02*
X209933931Y-113852400D01*
X214066074Y-113852400D02*
X214290000Y-113852400D01*
X134210000Y-114055600D02*
X134517892Y-114055600D01*
X138481698Y-114055600D02*
X146495292Y-114055600D01*
X150242619Y-114055600D02*
X151874952Y-114055600D01*
X155124380Y-114055600D02*
X156968644Y-114055600D01*
X160032000Y-114055600D02*
X210017892Y-114055600D01*
X213981698Y-114055600D02*
X214290000Y-114055600D01*
X134210000Y-114258800D02*
X134601852Y-114258800D01*
X138397322Y-114258800D02*
X146609091Y-114258800D01*
X150130184Y-114258800D02*
X152064875Y-114258800D01*
X154935432Y-114258800D02*
X157171489Y-114258800D01*
X159828445Y-114258800D02*
X210101852Y-114258800D01*
X213897322Y-114258800D02*
X214290000Y-114258800D01*
X134210000Y-114462000D02*
X134801438Y-114462000D01*
X138198975Y-114462000D02*
X146811936Y-114462000D01*
X149926629Y-114462000D02*
X152267721Y-114462000D01*
X154731877Y-114462000D02*
X157374334Y-114462000D01*
X159624890Y-114462000D02*
X210301438Y-114462000D01*
X213698975Y-114462000D02*
X214290000Y-114462000D01*
X134210000Y-114665200D02*
X135004283Y-114665200D01*
X137995420Y-114665200D02*
X147014782Y-114665200D01*
X149723074Y-114665200D02*
X152542704Y-114665200D01*
X154458424Y-114665200D02*
X157799908Y-114665200D01*
X159199948Y-114665200D02*
X210504283Y-114665200D01*
X213495420Y-114665200D02*
X214290000Y-114665200D01*
X134210000Y-114868400D02*
X135207129Y-114868400D01*
X137791864Y-114868400D02*
X147301511Y-114868400D01*
X149438130Y-114868400D02*
X153032066Y-114868400D01*
X153966642Y-114868400D02*
X210707129Y-114868400D01*
X213291864Y-114868400D02*
X214290000Y-114868400D01*
X134238153Y-115071600D02*
X135660906Y-115071600D01*
X137339013Y-115071600D02*
X147790870Y-115071600D01*
X148946349Y-115071600D02*
X211160906Y-115071600D01*
X212839013Y-115071600D02*
X214261848Y-115071600D01*
X134493515Y-115274800D02*
X214006486Y-115274800D01*
X144406579Y-94345000D02*
X148068554Y-94345000D01*
X144203379Y-94548200D02*
X148130867Y-94548200D01*
X144002948Y-94751400D02*
X148294391Y-94751400D01*
X144038600Y-94954600D02*
X148503138Y-94954600D01*
X144005095Y-95157800D02*
X148341930Y-95157800D01*
X143964676Y-95361000D02*
X148206156Y-95361000D01*
X143923622Y-95564200D02*
X148123574Y-95564200D01*
X143787848Y-95767400D02*
X148083155Y-95767400D01*
X143652074Y-95970600D02*
X148042736Y-95970600D01*
X143412937Y-96173800D02*
X148071457Y-96173800D01*
X143548829Y-96377000D02*
X148111877Y-96377000D01*
X143712746Y-96580200D02*
X148166866Y-96580200D01*
X144676638Y-96783400D02*
X148302640Y-96783400D01*
X144924935Y-96986600D02*
X148438414Y-96986600D01*
X145128135Y-97189800D02*
X148719247Y-97189800D01*
X145331335Y-97393000D02*
X148655193Y-97393000D01*
X145534535Y-97596200D02*
X148409817Y-97596200D01*
X145737735Y-97799400D02*
X148274043Y-97799400D01*
X145940935Y-98002600D02*
X148143783Y-98002600D01*
X146144135Y-98205800D02*
X148103364Y-98205800D01*
X146347335Y-98409000D02*
X148062945Y-98409000D01*
X146550535Y-98612200D02*
X148051248Y-98612200D01*
X146753735Y-98815400D02*
X148091667Y-98815400D01*
X146956935Y-99018600D02*
X148132086Y-99018600D01*
X147155430Y-99221800D02*
X148234753Y-99221800D01*
X147291203Y-99425000D02*
X148370527Y-99425000D01*
X147364346Y-99628200D02*
X148250561Y-99628200D01*
X147404766Y-99831400D02*
X148057716Y-99831400D01*
X147405164Y-100034600D02*
X147864870Y-100034600D01*
X147405164Y-100237800D02*
X147776150Y-100237800D01*
X147405164Y-100441000D02*
X147691984Y-100441000D01*
X147405164Y-100644200D02*
X147607818Y-100644200D01*
X147405164Y-100847400D02*
X147762674Y-100847400D01*
X147405164Y-101050600D02*
X149647000Y-101050600D01*
X147405164Y-101253800D02*
X147809976Y-101253800D01*
X147541976Y-101457000D02*
X147646514Y-101457000D01*
X147064837Y-80686742D02*
X147064837Y-80686742D01*
X146861637Y-80889942D02*
X147108449Y-80889942D01*
X146658437Y-81093142D02*
X147192409Y-81093142D01*
X146647440Y-81296342D02*
X147276369Y-81296342D01*
X146647440Y-81499542D02*
X147470171Y-81499542D01*
X146647440Y-81702742D02*
X147673017Y-81702742D01*
X146647440Y-81905942D02*
X148143931Y-81905942D01*
X146647440Y-82109142D02*
X148857563Y-82109142D01*
X146647440Y-82312342D02*
X149060763Y-82312342D01*
X146647440Y-82515542D02*
X149263963Y-82515542D01*
X146647440Y-82718742D02*
X149467163Y-82718742D01*
X146647440Y-82921942D02*
X149670363Y-82921942D01*
X146647440Y-83125142D02*
X149873563Y-83125142D01*
X146647440Y-83328342D02*
X150076763Y-83328342D01*
X146641052Y-83531542D02*
X150115000Y-83531542D01*
X146599903Y-83734742D02*
X150115000Y-83734742D01*
X146469307Y-83937942D02*
X150115000Y-83937942D01*
X146757589Y-84141142D02*
X150115000Y-84141142D01*
X146960789Y-84344342D02*
X150115000Y-84344342D01*
X147049761Y-84547542D02*
X150115000Y-84547542D01*
X147133929Y-84750742D02*
X150115000Y-84750742D01*
X147143000Y-84953942D02*
X150115000Y-84953942D01*
X147143000Y-85157142D02*
X150115000Y-85157142D01*
X147143000Y-85360342D02*
X150115000Y-85360342D01*
X147143000Y-85563542D02*
X150115000Y-85563542D01*
X147143000Y-85766742D02*
X147784287Y-85766742D01*
X149215714Y-85766742D02*
X150115000Y-85766742D01*
X147143000Y-85969942D02*
X147480177Y-85969942D01*
X149519824Y-85969942D02*
X150115000Y-85969942D01*
X147057108Y-86173142D02*
X147331679Y-86173142D01*
X149668322Y-86173142D02*
X150115000Y-86173142D01*
X147143000Y-86376342D02*
X147195905Y-86376342D01*
X149804096Y-86376342D02*
X150115000Y-86376342D01*
X149879479Y-86579542D02*
X150115000Y-86579542D01*
X149919898Y-86782742D02*
X150115000Y-86782742D01*
X149960317Y-86985942D02*
X150115000Y-86985942D01*
X149925490Y-87189142D02*
X150115000Y-87189142D01*
X149885071Y-87392342D02*
X150115000Y-87392342D01*
X149822882Y-87595542D02*
X150115000Y-87595542D01*
X149687108Y-87798742D02*
X150115000Y-87798742D01*
X149551334Y-88001942D02*
X150115000Y-88001942D01*
X149257791Y-88205142D02*
X150115000Y-88205142D01*
X148662131Y-88408342D02*
X150115000Y-88408342D01*
X148140037Y-88611542D02*
X150115000Y-88611542D01*
X147936837Y-88814742D02*
X150115000Y-88814742D01*
X147733637Y-89017942D02*
X150115000Y-89017942D01*
X147530437Y-89221142D02*
X150115000Y-89221142D01*
X147327237Y-89424342D02*
X150115000Y-89424342D01*
X147124037Y-89627542D02*
X150115000Y-89627542D01*
X146920837Y-89830742D02*
X150115000Y-89830742D01*
X146717637Y-90033942D02*
X150115000Y-90033942D01*
X146514437Y-90237142D02*
X150115000Y-90237142D01*
X146311237Y-90440342D02*
X150115000Y-90440342D01*
X146108037Y-90643542D02*
X150115000Y-90643542D01*
X145904837Y-90846742D02*
X150115000Y-90846742D01*
X145701637Y-91049942D02*
X150115000Y-91049942D01*
X145498437Y-91253142D02*
X150115000Y-91253142D01*
X145295237Y-91456342D02*
X150115000Y-91456342D01*
X145092037Y-91659542D02*
X150027660Y-91659542D01*
X144888837Y-91862742D02*
X149824460Y-91862742D01*
X144685637Y-92065942D02*
X148450535Y-92065942D01*
X144482437Y-92269142D02*
X148198522Y-92269142D01*
X144223004Y-92472342D02*
X148090562Y-92472342D01*
X139076037Y-92675542D02*
X143651675Y-92675542D01*
X138872837Y-92878742D02*
X143369679Y-92878742D01*
X138669637Y-93081942D02*
X139368157Y-93081942D01*
X139664376Y-93081942D02*
X140335625Y-93081942D01*
X140631844Y-93081942D02*
X143166479Y-93081942D01*
X138466437Y-93285142D02*
X138904758Y-93285142D01*
X139873000Y-93285142D02*
X140127000Y-93285142D01*
X141095243Y-93285142D02*
X142963279Y-93285142D01*
X138263237Y-93488342D02*
X138691536Y-93488342D01*
X139873000Y-93488342D02*
X140127000Y-93488342D01*
X141308465Y-93488342D02*
X142256956Y-93488342D01*
X138060037Y-93691542D02*
X138478314Y-93691542D01*
X139873000Y-93691542D02*
X140127000Y-93691542D01*
X141521687Y-93691542D02*
X141748865Y-93691542D01*
X137885000Y-93894742D02*
X138319309Y-93894742D01*
X139873000Y-93894742D02*
X140127000Y-93894742D01*
X137885000Y-94097942D02*
X138229353Y-94097942D01*
X139873000Y-94097942D02*
X140127000Y-94097942D01*
X137885000Y-94301142D02*
X138139397Y-94301142D01*
X139873000Y-94301142D02*
X140127000Y-94301142D01*
X137885000Y-94504342D02*
X138049441Y-94504342D01*
X139873000Y-94504342D02*
X140127000Y-94504342D01*
X137885000Y-94707542D02*
X138186075Y-94707542D01*
X139873000Y-94707542D02*
X140127000Y-94707542D01*
X137885000Y-94910742D02*
X140147000Y-94910742D01*
X137885000Y-95113942D02*
X138262316Y-95113942D01*
X137885000Y-95317142D02*
X138105063Y-95317142D01*
X137885000Y-95520342D02*
X138095783Y-95520342D01*
X137885000Y-95723542D02*
X138185739Y-95723542D01*
X137885000Y-95926742D02*
X138275695Y-95926742D01*
X137885000Y-96129942D02*
X138374938Y-96129942D01*
X138084722Y-96333142D02*
X138588160Y-96333142D01*
X138287922Y-96536342D02*
X138801383Y-96536342D01*
X147064752Y-80784187D02*
X147282757Y-81311800D01*
X147686077Y-81715824D01*
X148213309Y-81934750D01*
X148683581Y-81935160D01*
X150115000Y-83366579D01*
X150115000Y-91572202D01*
X149674642Y-92012560D01*
X148700000Y-92012560D01*
X148464683Y-92056838D01*
X148248559Y-92195910D01*
X148103569Y-92408110D01*
X148069773Y-92575000D01*
X144040000Y-92575000D01*
X143701325Y-92642367D01*
X143414210Y-92834210D01*
X143414208Y-92834213D01*
X142770525Y-93477895D01*
X142540000Y-93432041D01*
X141966511Y-93546115D01*
X141615320Y-93780774D01*
X141074344Y-93265226D01*
X140438708Y-93001945D01*
X140127000Y-93243843D01*
X140127000Y-94833000D01*
X140147000Y-94833000D01*
X140147000Y-95087000D01*
X140127000Y-95087000D01*
X140127000Y-95107000D01*
X139873000Y-95107000D01*
X139873000Y-95087000D01*
X138283166Y-95087000D01*
X138041938Y-95398710D01*
X138358874Y-96114633D01*
X138835094Y-96568468D01*
X138804002Y-96615000D01*
X138366579Y-96615000D01*
X137885000Y-96133420D01*
X137885000Y-94521290D01*
X138041938Y-94521290D01*
X138283166Y-94833000D01*
X139873000Y-94833000D01*
X139873000Y-93243843D01*
X139561292Y-93001945D01*
X138925656Y-93265226D01*
X138358874Y-93805367D01*
X138041938Y-94521290D01*
X137885000Y-94521290D01*
X137885000Y-93866580D01*
X139133261Y-92618318D01*
X143766677Y-92618318D01*
X143766682Y-92618319D01*
X144049166Y-92562128D01*
X144105357Y-92550951D01*
X144392472Y-92359108D01*
X144392473Y-92359107D01*
X148342346Y-88409233D01*
X148471887Y-88435000D01*
X148528113Y-88435000D01*
X149077264Y-88325767D01*
X149542811Y-88014698D01*
X149853880Y-87549151D01*
X149963113Y-87000000D01*
X149853880Y-86450849D01*
X149542811Y-85985302D01*
X149077264Y-85674233D01*
X148528113Y-85565000D01*
X148471887Y-85565000D01*
X147922736Y-85674233D01*
X147457189Y-85985302D01*
X147146120Y-86450849D01*
X147143000Y-86466534D01*
X147143000Y-86372998D01*
X146857252Y-86372998D01*
X147143000Y-86087250D01*
X147143000Y-84772643D01*
X146968989Y-84352542D01*
X146647457Y-84031011D01*
X146459041Y-83952967D01*
X146596431Y-83751890D01*
X146647440Y-83500000D01*
X146647440Y-81104140D01*
X147064837Y-80686742D01*
X147064752Y-80784187D01*
M02*
