G04 #@! TF.FileFunction,Legend,Top*
%FSLAX46Y46*%
G04 Gerber Fmt 4.6, Leading zero omitted, Abs format (unit mm)*
G04 Created by KiCad (PCBNEW 4.0.6-e0-6349~53~ubuntu16.04.1) date Mon Aug 21 19:14:56 2017*
%MOMM*%
%LPD*%
G01*
G04 APERTURE LIST*
%ADD10C,0.100000*%
%ADD11C,0.300000*%
%ADD12C,0.200000*%
%ADD13C,0.120000*%
%ADD14C,0.150000*%
%ADD15C,0.010000*%
G04 APERTURE END LIST*
D10*
D11*
X141309524Y-68463095D02*
X141309524Y-67163095D01*
X141742857Y-68091667D01*
X142176190Y-67163095D01*
X142176190Y-68463095D01*
X143352381Y-68463095D02*
X143352381Y-67782143D01*
X143290476Y-67658333D01*
X143166666Y-67596429D01*
X142919047Y-67596429D01*
X142795238Y-67658333D01*
X143352381Y-68401190D02*
X143228571Y-68463095D01*
X142919047Y-68463095D01*
X142795238Y-68401190D01*
X142733333Y-68277381D01*
X142733333Y-68153571D01*
X142795238Y-68029762D01*
X142919047Y-67967857D01*
X143228571Y-67967857D01*
X143352381Y-67905952D01*
X144528571Y-68463095D02*
X144528571Y-67163095D01*
X144528571Y-68401190D02*
X144404761Y-68463095D01*
X144157142Y-68463095D01*
X144033333Y-68401190D01*
X143971428Y-68339286D01*
X143909523Y-68215476D01*
X143909523Y-67844048D01*
X143971428Y-67720238D01*
X144033333Y-67658333D01*
X144157142Y-67596429D01*
X144404761Y-67596429D01*
X144528571Y-67658333D01*
X145642856Y-68401190D02*
X145519046Y-68463095D01*
X145271427Y-68463095D01*
X145147618Y-68401190D01*
X145085713Y-68277381D01*
X145085713Y-67782143D01*
X145147618Y-67658333D01*
X145271427Y-67596429D01*
X145519046Y-67596429D01*
X145642856Y-67658333D01*
X145704761Y-67782143D01*
X145704761Y-67905952D01*
X145085713Y-68029762D01*
X147252380Y-68463095D02*
X147252380Y-67163095D01*
X147252380Y-67658333D02*
X147376189Y-67596429D01*
X147623808Y-67596429D01*
X147747618Y-67658333D01*
X147809523Y-67720238D01*
X147871427Y-67844048D01*
X147871427Y-68215476D01*
X147809523Y-68339286D01*
X147747618Y-68401190D01*
X147623808Y-68463095D01*
X147376189Y-68463095D01*
X147252380Y-68401190D01*
X148304760Y-67596429D02*
X148614284Y-68463095D01*
X148923808Y-67596429D02*
X148614284Y-68463095D01*
X148490475Y-68772619D01*
X148428570Y-68834524D01*
X148304760Y-68896429D01*
X149419046Y-68339286D02*
X149480951Y-68401190D01*
X149419046Y-68463095D01*
X149357141Y-68401190D01*
X149419046Y-68339286D01*
X149419046Y-68463095D01*
X149419046Y-67658333D02*
X149480951Y-67720238D01*
X149419046Y-67782143D01*
X149357141Y-67720238D01*
X149419046Y-67658333D01*
X149419046Y-67782143D01*
X141309524Y-70713095D02*
X141309524Y-69413095D01*
X141742857Y-70341667D01*
X142176190Y-69413095D01*
X142176190Y-70713095D01*
X143414285Y-70713095D02*
X142795238Y-70713095D01*
X142795238Y-69413095D01*
X143847619Y-70713095D02*
X143847619Y-69413095D01*
X143847619Y-70032143D02*
X144590476Y-70032143D01*
X144590476Y-70713095D02*
X144590476Y-69413095D01*
X146200000Y-70032143D02*
X146633333Y-70032143D01*
X146819047Y-70713095D02*
X146200000Y-70713095D01*
X146200000Y-69413095D01*
X146819047Y-69413095D01*
X147561904Y-70713095D02*
X147438095Y-70651190D01*
X147376190Y-70527381D01*
X147376190Y-69413095D01*
X148552380Y-70651190D02*
X148428570Y-70713095D01*
X148180951Y-70713095D01*
X148057142Y-70651190D01*
X147995237Y-70527381D01*
X147995237Y-70032143D01*
X148057142Y-69908333D01*
X148180951Y-69846429D01*
X148428570Y-69846429D01*
X148552380Y-69908333D01*
X148614285Y-70032143D01*
X148614285Y-70155952D01*
X147995237Y-70279762D01*
X149728571Y-70651190D02*
X149604761Y-70713095D01*
X149357142Y-70713095D01*
X149233333Y-70651190D01*
X149171428Y-70589286D01*
X149109523Y-70465476D01*
X149109523Y-70094048D01*
X149171428Y-69970238D01*
X149233333Y-69908333D01*
X149357142Y-69846429D01*
X149604761Y-69846429D01*
X149728571Y-69908333D01*
X150100000Y-69846429D02*
X150595238Y-69846429D01*
X150285714Y-69413095D02*
X150285714Y-70527381D01*
X150347619Y-70651190D01*
X150471428Y-70713095D01*
X150595238Y-70713095D01*
X151028571Y-70713095D02*
X151028571Y-69846429D01*
X151028571Y-70094048D02*
X151090476Y-69970238D01*
X151152380Y-69908333D01*
X151276190Y-69846429D01*
X151399999Y-69846429D01*
X152019047Y-70713095D02*
X151895238Y-70651190D01*
X151833333Y-70589286D01*
X151771428Y-70465476D01*
X151771428Y-70094048D01*
X151833333Y-69970238D01*
X151895238Y-69908333D01*
X152019047Y-69846429D01*
X152204761Y-69846429D01*
X152328571Y-69908333D01*
X152390476Y-69970238D01*
X152452380Y-70094048D01*
X152452380Y-70465476D01*
X152390476Y-70589286D01*
X152328571Y-70651190D01*
X152204761Y-70713095D01*
X152019047Y-70713095D01*
X153009523Y-69846429D02*
X153009523Y-70713095D01*
X153009523Y-69970238D02*
X153071428Y-69908333D01*
X153195237Y-69846429D01*
X153380951Y-69846429D01*
X153504761Y-69908333D01*
X153566666Y-70032143D01*
X153566666Y-70713095D01*
X154185713Y-70713095D02*
X154185713Y-69846429D01*
X154185713Y-69413095D02*
X154123808Y-69475000D01*
X154185713Y-69536905D01*
X154247618Y-69475000D01*
X154185713Y-69413095D01*
X154185713Y-69536905D01*
X155361904Y-70651190D02*
X155238094Y-70713095D01*
X154990475Y-70713095D01*
X154866666Y-70651190D01*
X154804761Y-70589286D01*
X154742856Y-70465476D01*
X154742856Y-70094048D01*
X154804761Y-69970238D01*
X154866666Y-69908333D01*
X154990475Y-69846429D01*
X155238094Y-69846429D01*
X155361904Y-69908333D01*
X155857142Y-70651190D02*
X155980952Y-70713095D01*
X156228571Y-70713095D01*
X156352380Y-70651190D01*
X156414285Y-70527381D01*
X156414285Y-70465476D01*
X156352380Y-70341667D01*
X156228571Y-70279762D01*
X156042856Y-70279762D01*
X155919047Y-70217857D01*
X155857142Y-70094048D01*
X155857142Y-70032143D01*
X155919047Y-69908333D01*
X156042856Y-69846429D01*
X156228571Y-69846429D01*
X156352380Y-69908333D01*
D12*
X212001359Y-90998642D02*
G75*
G03X212001359Y-90998642I-23001359J0D01*
G01*
D10*
X136720000Y-105120000D02*
X136720000Y-89880000D01*
X137270000Y-104580000D02*
X137270000Y-90440000D01*
X145820000Y-105120000D02*
X145820000Y-89880000D01*
X145270000Y-104580000D02*
X145270000Y-99750000D01*
X145270000Y-95250000D02*
X145270000Y-90440000D01*
X145270000Y-99750000D02*
X145820000Y-99750000D01*
X145270000Y-95250000D02*
X145820000Y-95250000D01*
X136720000Y-105120000D02*
X145820000Y-105120000D01*
X137270000Y-104580000D02*
X145270000Y-104580000D01*
X136720000Y-89880000D02*
X145820000Y-89880000D01*
X137270000Y-90440000D02*
X145270000Y-90440000D01*
X136720000Y-105120000D02*
X137270000Y-104580000D01*
X136720000Y-89880000D02*
X137270000Y-90440000D01*
X145820000Y-105120000D02*
X145270000Y-104580000D01*
X145820000Y-89880000D02*
X145270000Y-90440000D01*
D13*
X136470000Y-105370000D02*
X136470000Y-89630000D01*
X136470000Y-89630000D02*
X146070000Y-89630000D01*
X146070000Y-89630000D02*
X146070000Y-105370000D01*
X146070000Y-105370000D02*
X136470000Y-105370000D01*
X137550000Y-82150000D02*
X138000000Y-82150000D01*
X138000000Y-82150000D02*
X138000000Y-76950000D01*
X138000000Y-76950000D02*
X137550000Y-76950000D01*
X135450000Y-82150000D02*
X135000000Y-82150000D01*
X135000000Y-82150000D02*
X135000000Y-80650000D01*
X135000000Y-78400000D02*
X135000000Y-76950000D01*
X135000000Y-76950000D02*
X135450000Y-76950000D01*
X134100000Y-78520000D02*
X134100000Y-78120000D01*
X134100000Y-78520000D02*
X133700000Y-78520000D01*
X134100000Y-78520000D02*
X133300000Y-77720000D01*
X133700000Y-79520000D02*
X132900000Y-78720000D01*
X133700000Y-79520000D02*
X133300000Y-79520000D01*
X133700000Y-79520000D02*
X133700000Y-79120000D01*
X135007468Y-78439347D02*
G75*
G03X135000000Y-80640000I92532J-1100653D01*
G01*
X154310000Y-92070000D02*
G75*
G02X152310000Y-92070000I-1000000J0D01*
G01*
X152310000Y-92070000D02*
X150540000Y-92070000D01*
X150540000Y-92070000D02*
X150540000Y-102470000D01*
X150540000Y-102470000D02*
X156080000Y-102470000D01*
X156080000Y-102470000D02*
X156080000Y-92070000D01*
X156080000Y-92070000D02*
X154310000Y-92070000D01*
X156240000Y-75410000D02*
X156240000Y-72590000D01*
X156240000Y-72590000D02*
X150920000Y-72590000D01*
X150920000Y-72590000D02*
X150920000Y-75410000D01*
X150920000Y-75410000D02*
X156240000Y-75410000D01*
X157380000Y-74000000D02*
X156240000Y-74000000D01*
X149780000Y-74000000D02*
X150920000Y-74000000D01*
X155400000Y-75410000D02*
X155400000Y-72590000D01*
X150370000Y-79190000D02*
X150370000Y-81810000D01*
X150370000Y-81810000D02*
X156790000Y-81810000D01*
X156790000Y-81810000D02*
X156790000Y-79190000D01*
X156790000Y-79190000D02*
X150370000Y-79190000D01*
X149480000Y-80500000D02*
X150370000Y-80500000D01*
X157680000Y-80500000D02*
X156790000Y-80500000D01*
X156790000Y-88310000D02*
X156790000Y-85690000D01*
X156790000Y-85690000D02*
X150370000Y-85690000D01*
X150370000Y-85690000D02*
X150370000Y-88310000D01*
X150370000Y-88310000D02*
X156790000Y-88310000D01*
X157680000Y-87000000D02*
X156790000Y-87000000D01*
X149480000Y-87000000D02*
X150370000Y-87000000D01*
D14*
X169500000Y-67250000D02*
X169500000Y-69750000D01*
X159500000Y-67250000D02*
X169500000Y-67250000D01*
X159500000Y-69750000D02*
X159500000Y-67250000D01*
X169500000Y-69750000D02*
X159500000Y-69750000D01*
D15*
G36*
X168174885Y-111738519D02*
X168791757Y-111738600D01*
X169350870Y-111738774D01*
X169855093Y-111739070D01*
X170307297Y-111739522D01*
X170710353Y-111740160D01*
X171067130Y-111741015D01*
X171380498Y-111742120D01*
X171653328Y-111743505D01*
X171888491Y-111745202D01*
X172088856Y-111747241D01*
X172257293Y-111749655D01*
X172396673Y-111752475D01*
X172509867Y-111755732D01*
X172599743Y-111759458D01*
X172669173Y-111763683D01*
X172721027Y-111768439D01*
X172758175Y-111773758D01*
X172783487Y-111779671D01*
X172799834Y-111786208D01*
X172810085Y-111793403D01*
X172813204Y-111796562D01*
X172857268Y-111853793D01*
X172861779Y-111877207D01*
X172829134Y-111858662D01*
X172802250Y-111833750D01*
X172793341Y-111825576D01*
X172781795Y-111818136D01*
X172764727Y-111811394D01*
X172739251Y-111805317D01*
X172702484Y-111799870D01*
X172651540Y-111795018D01*
X172583534Y-111790728D01*
X172495581Y-111786963D01*
X172384797Y-111783691D01*
X172248296Y-111780876D01*
X172083194Y-111778485D01*
X171886606Y-111776482D01*
X171655647Y-111774833D01*
X171387432Y-111773504D01*
X171079075Y-111772461D01*
X170727694Y-111771668D01*
X170330401Y-111771092D01*
X169884314Y-111770697D01*
X169386545Y-111770450D01*
X168834212Y-111770316D01*
X168224428Y-111770261D01*
X167554310Y-111770250D01*
X162233100Y-111770250D01*
X162183675Y-111840814D01*
X162171491Y-111864912D01*
X162161446Y-111902991D01*
X162153340Y-111960771D01*
X162146977Y-112043975D01*
X162142157Y-112158325D01*
X162138683Y-112309544D01*
X162136356Y-112503353D01*
X162134977Y-112745475D01*
X162134349Y-113041631D01*
X162134249Y-113267260D01*
X162134250Y-114623141D01*
X162217906Y-114688945D01*
X162301563Y-114754750D01*
X172709886Y-114754750D01*
X172865750Y-114598886D01*
X172873325Y-113256005D01*
X172880901Y-111913125D01*
X172889653Y-113230750D01*
X172891383Y-113614443D01*
X172891042Y-113935625D01*
X172888615Y-114195251D01*
X172884083Y-114394277D01*
X172877428Y-114533658D01*
X172868634Y-114614349D01*
X172864057Y-114631568D01*
X172810142Y-114707525D01*
X172750985Y-114750631D01*
X172710578Y-114754760D01*
X172610759Y-114758637D01*
X172455614Y-114762262D01*
X172249228Y-114765631D01*
X171995689Y-114768744D01*
X171699083Y-114771599D01*
X171363497Y-114774196D01*
X170993017Y-114776531D01*
X170591729Y-114778604D01*
X170163720Y-114780413D01*
X169713078Y-114781957D01*
X169243887Y-114783234D01*
X168760235Y-114784242D01*
X168266208Y-114784981D01*
X167765893Y-114785448D01*
X167263376Y-114785642D01*
X166762744Y-114785562D01*
X166268083Y-114785206D01*
X165783480Y-114784573D01*
X165313021Y-114783660D01*
X164860793Y-114782467D01*
X164430882Y-114780992D01*
X164027375Y-114779234D01*
X163654358Y-114777190D01*
X163315919Y-114774860D01*
X163016142Y-114772242D01*
X162759116Y-114769334D01*
X162548926Y-114766135D01*
X162389659Y-114762643D01*
X162285401Y-114758858D01*
X162240239Y-114754776D01*
X162239513Y-114754528D01*
X162168741Y-114705103D01*
X162136325Y-114663378D01*
X162126635Y-114612095D01*
X162118563Y-114497734D01*
X162112117Y-114320697D01*
X162107308Y-114081388D01*
X162104144Y-113780206D01*
X162102637Y-113417556D01*
X162102500Y-113252994D01*
X162102585Y-112925140D01*
X162103023Y-112654801D01*
X162104091Y-112435989D01*
X162106063Y-112262718D01*
X162109215Y-112129003D01*
X162113821Y-112028857D01*
X162120158Y-111956293D01*
X162128500Y-111905327D01*
X162139123Y-111869971D01*
X162152302Y-111844239D01*
X162168304Y-111822156D01*
X162234108Y-111738500D01*
X167497383Y-111738500D01*
X168174885Y-111738519D01*
X168174885Y-111738519D01*
G37*
X168174885Y-111738519D02*
X168791757Y-111738600D01*
X169350870Y-111738774D01*
X169855093Y-111739070D01*
X170307297Y-111739522D01*
X170710353Y-111740160D01*
X171067130Y-111741015D01*
X171380498Y-111742120D01*
X171653328Y-111743505D01*
X171888491Y-111745202D01*
X172088856Y-111747241D01*
X172257293Y-111749655D01*
X172396673Y-111752475D01*
X172509867Y-111755732D01*
X172599743Y-111759458D01*
X172669173Y-111763683D01*
X172721027Y-111768439D01*
X172758175Y-111773758D01*
X172783487Y-111779671D01*
X172799834Y-111786208D01*
X172810085Y-111793403D01*
X172813204Y-111796562D01*
X172857268Y-111853793D01*
X172861779Y-111877207D01*
X172829134Y-111858662D01*
X172802250Y-111833750D01*
X172793341Y-111825576D01*
X172781795Y-111818136D01*
X172764727Y-111811394D01*
X172739251Y-111805317D01*
X172702484Y-111799870D01*
X172651540Y-111795018D01*
X172583534Y-111790728D01*
X172495581Y-111786963D01*
X172384797Y-111783691D01*
X172248296Y-111780876D01*
X172083194Y-111778485D01*
X171886606Y-111776482D01*
X171655647Y-111774833D01*
X171387432Y-111773504D01*
X171079075Y-111772461D01*
X170727694Y-111771668D01*
X170330401Y-111771092D01*
X169884314Y-111770697D01*
X169386545Y-111770450D01*
X168834212Y-111770316D01*
X168224428Y-111770261D01*
X167554310Y-111770250D01*
X162233100Y-111770250D01*
X162183675Y-111840814D01*
X162171491Y-111864912D01*
X162161446Y-111902991D01*
X162153340Y-111960771D01*
X162146977Y-112043975D01*
X162142157Y-112158325D01*
X162138683Y-112309544D01*
X162136356Y-112503353D01*
X162134977Y-112745475D01*
X162134349Y-113041631D01*
X162134249Y-113267260D01*
X162134250Y-114623141D01*
X162217906Y-114688945D01*
X162301563Y-114754750D01*
X172709886Y-114754750D01*
X172865750Y-114598886D01*
X172873325Y-113256005D01*
X172880901Y-111913125D01*
X172889653Y-113230750D01*
X172891383Y-113614443D01*
X172891042Y-113935625D01*
X172888615Y-114195251D01*
X172884083Y-114394277D01*
X172877428Y-114533658D01*
X172868634Y-114614349D01*
X172864057Y-114631568D01*
X172810142Y-114707525D01*
X172750985Y-114750631D01*
X172710578Y-114754760D01*
X172610759Y-114758637D01*
X172455614Y-114762262D01*
X172249228Y-114765631D01*
X171995689Y-114768744D01*
X171699083Y-114771599D01*
X171363497Y-114774196D01*
X170993017Y-114776531D01*
X170591729Y-114778604D01*
X170163720Y-114780413D01*
X169713078Y-114781957D01*
X169243887Y-114783234D01*
X168760235Y-114784242D01*
X168266208Y-114784981D01*
X167765893Y-114785448D01*
X167263376Y-114785642D01*
X166762744Y-114785562D01*
X166268083Y-114785206D01*
X165783480Y-114784573D01*
X165313021Y-114783660D01*
X164860793Y-114782467D01*
X164430882Y-114780992D01*
X164027375Y-114779234D01*
X163654358Y-114777190D01*
X163315919Y-114774860D01*
X163016142Y-114772242D01*
X162759116Y-114769334D01*
X162548926Y-114766135D01*
X162389659Y-114762643D01*
X162285401Y-114758858D01*
X162240239Y-114754776D01*
X162239513Y-114754528D01*
X162168741Y-114705103D01*
X162136325Y-114663378D01*
X162126635Y-114612095D01*
X162118563Y-114497734D01*
X162112117Y-114320697D01*
X162107308Y-114081388D01*
X162104144Y-113780206D01*
X162102637Y-113417556D01*
X162102500Y-113252994D01*
X162102585Y-112925140D01*
X162103023Y-112654801D01*
X162104091Y-112435989D01*
X162106063Y-112262718D01*
X162109215Y-112129003D01*
X162113821Y-112028857D01*
X162120158Y-111956293D01*
X162128500Y-111905327D01*
X162139123Y-111869971D01*
X162152302Y-111844239D01*
X162168304Y-111822156D01*
X162234108Y-111738500D01*
X167497383Y-111738500D01*
X168174885Y-111738519D01*
G36*
X172453000Y-114342000D02*
X162547000Y-114342000D01*
X162547000Y-112532250D01*
X163118500Y-112532250D01*
X163118500Y-112693208D01*
X163120930Y-112787814D01*
X163132938Y-112833909D01*
X163161602Y-112846433D01*
X163189937Y-112844020D01*
X163254124Y-112807865D01*
X163271520Y-112762437D01*
X163294619Y-112709246D01*
X163355166Y-112691463D01*
X163374708Y-112691000D01*
X163467750Y-112691000D01*
X163467750Y-113929250D01*
X163626500Y-113929250D01*
X163626500Y-113260605D01*
X164452000Y-113260605D01*
X164453080Y-113454007D01*
X164456091Y-113625433D01*
X164460689Y-113764853D01*
X164466529Y-113862238D01*
X164473267Y-113907560D01*
X164474264Y-113909180D01*
X164521610Y-113923928D01*
X164545701Y-113922112D01*
X164578547Y-113894087D01*
X164597902Y-113818926D01*
X164604529Y-113744734D01*
X164619928Y-113627990D01*
X164648628Y-113566213D01*
X164659102Y-113559452D01*
X164703220Y-113571073D01*
X164782986Y-113618564D01*
X164887249Y-113694874D01*
X164937972Y-113735732D01*
X165077795Y-113844926D01*
X165178360Y-113907863D01*
X165242635Y-113925710D01*
X165273588Y-113899635D01*
X165277500Y-113869352D01*
X165252804Y-113819548D01*
X165184434Y-113742981D01*
X165080963Y-113648977D01*
X165055250Y-113627625D01*
X164957042Y-113544678D01*
X164881033Y-113475535D01*
X164838366Y-113430567D01*
X164833000Y-113420700D01*
X164856020Y-113390169D01*
X164916974Y-113332052D01*
X165000305Y-113260687D01*
X165753750Y-113260687D01*
X165753750Y-113265971D01*
X165754799Y-113451519D01*
X165757711Y-113617119D01*
X165762128Y-113751441D01*
X165767696Y-113843152D01*
X165773021Y-113879028D01*
X165817217Y-113921399D01*
X165852396Y-113929250D01*
X168387761Y-113929250D01*
X168815132Y-113929250D01*
X168998593Y-113926806D01*
X169139261Y-113919828D01*
X169229996Y-113908844D01*
X169262984Y-113896109D01*
X169262608Y-113847139D01*
X169245095Y-113816734D01*
X169209164Y-113794250D01*
X169139368Y-113779909D01*
X169025523Y-113772428D01*
X168877922Y-113770500D01*
X168549121Y-113770500D01*
X168547779Y-113675321D01*
X169721702Y-113675321D01*
X169757765Y-113794600D01*
X169800431Y-113851318D01*
X169856232Y-113896562D01*
X169922131Y-113920235D01*
X170020324Y-113928698D01*
X170072394Y-113929250D01*
X170186796Y-113924077D01*
X170282253Y-113910694D01*
X170327106Y-113896774D01*
X170402690Y-113883017D01*
X170451226Y-113903916D01*
X170500390Y-113926235D01*
X170534310Y-113917023D01*
X170554761Y-113869526D01*
X170563516Y-113776991D01*
X170562352Y-113632664D01*
X170556828Y-113502081D01*
X170547529Y-113337775D01*
X170542447Y-113281771D01*
X171056000Y-113281771D01*
X171056294Y-113500073D01*
X171057677Y-113662955D01*
X171060898Y-113778497D01*
X171066709Y-113854779D01*
X171075857Y-113899879D01*
X171089095Y-113921878D01*
X171107171Y-113928855D01*
X171116103Y-113929250D01*
X171175645Y-113906207D01*
X171195237Y-113879655D01*
X171214874Y-113847741D01*
X171248682Y-113855671D01*
X171285073Y-113879655D01*
X171366425Y-113912009D01*
X171482141Y-113928365D01*
X171516363Y-113929250D01*
X171627304Y-113921825D01*
X171706911Y-113892160D01*
X171779174Y-113835789D01*
X171828277Y-113788219D01*
X171858461Y-113744151D01*
X171874324Y-113686879D01*
X171880470Y-113599692D01*
X171881499Y-113465885D01*
X171881500Y-113464238D01*
X171880361Y-113329290D01*
X171873881Y-113240503D01*
X171857464Y-113180541D01*
X171826516Y-113132071D01*
X171780021Y-113081449D01*
X171707090Y-113015977D01*
X171636438Y-112985204D01*
X171537546Y-112976834D01*
X171520130Y-112976750D01*
X171401088Y-112986527D01*
X171319288Y-113020601D01*
X171288233Y-113045784D01*
X171214750Y-113114818D01*
X171214750Y-112893384D01*
X171206904Y-112742224D01*
X171182502Y-112649594D01*
X171140250Y-112612388D01*
X171099756Y-112617502D01*
X171084466Y-112634849D01*
X171073019Y-112678445D01*
X171064932Y-112755622D01*
X171059723Y-112873715D01*
X171056908Y-113040057D01*
X171056004Y-113261980D01*
X171056000Y-113281771D01*
X170542447Y-113281771D01*
X170537215Y-113224136D01*
X170523285Y-113148351D01*
X170503140Y-113097608D01*
X170474181Y-113059093D01*
X170465030Y-113049644D01*
X170418566Y-113011495D01*
X170362338Y-112989399D01*
X170278411Y-112979202D01*
X170150359Y-112976750D01*
X170028261Y-112977786D01*
X169956995Y-112983500D01*
X169923901Y-112997796D01*
X169916315Y-113024579D01*
X169918729Y-113048187D01*
X169930206Y-113086259D01*
X169960778Y-113109743D01*
X170024745Y-113124010D01*
X170136410Y-113134435D01*
X170151125Y-113135500D01*
X170267585Y-113145312D01*
X170335048Y-113158029D01*
X170367932Y-113179808D01*
X170380656Y-113216804D01*
X170383018Y-113234509D01*
X170385447Y-113275400D01*
X170372906Y-113300923D01*
X170333115Y-113315876D01*
X170253793Y-113325060D01*
X170131630Y-113332754D01*
X169999061Y-113342393D01*
X169913038Y-113356023D01*
X169856616Y-113378763D01*
X169812853Y-113415730D01*
X169796549Y-113433953D01*
X169734565Y-113548128D01*
X169721702Y-113675321D01*
X168547779Y-113675321D01*
X168540498Y-113159312D01*
X168537234Y-112948196D01*
X168533601Y-112792243D01*
X168528616Y-112683121D01*
X168521294Y-112612497D01*
X168510654Y-112572037D01*
X168495711Y-112553408D01*
X168475482Y-112548277D01*
X168468375Y-112548125D01*
X168447545Y-112550619D01*
X168431706Y-112563331D01*
X168420039Y-112594106D01*
X168411726Y-112650789D01*
X168405949Y-112741223D01*
X168401888Y-112873254D01*
X168398725Y-113054726D01*
X168396318Y-113238687D01*
X168387761Y-113929250D01*
X165852396Y-113929250D01*
X165887554Y-113920457D01*
X165905705Y-113884151D01*
X165912077Y-113805434D01*
X165912500Y-113758021D01*
X165921707Y-113639400D01*
X165952599Y-113572738D01*
X166010082Y-113548751D01*
X166023343Y-113548250D01*
X166050563Y-113567235D01*
X166115106Y-113618222D01*
X166205770Y-113692254D01*
X166263475Y-113740191D01*
X166397431Y-113845055D01*
X166494539Y-113903687D01*
X166559419Y-113917948D01*
X166596689Y-113889700D01*
X166602102Y-113876612D01*
X166584757Y-113841464D01*
X166528132Y-113777023D01*
X166442239Y-113694023D01*
X166382483Y-113641203D01*
X166349991Y-113612929D01*
X167091130Y-113612929D01*
X167092080Y-113751263D01*
X167098427Y-113843148D01*
X167111524Y-113897079D01*
X167132723Y-113921555D01*
X167163380Y-113925070D01*
X167174466Y-113923338D01*
X167202598Y-113908133D01*
X167221659Y-113867291D01*
X167234693Y-113788719D01*
X167244743Y-113660327D01*
X167246000Y-113639162D01*
X167261875Y-113365590D01*
X167399816Y-113250545D01*
X167513867Y-113170568D01*
X167612963Y-113137486D01*
X167644971Y-113135500D01*
X167721341Y-113143762D01*
X167759967Y-113181136D01*
X167778363Y-113236527D01*
X167813166Y-113321303D01*
X167855490Y-113348905D01*
X167899630Y-113316613D01*
X167910040Y-113299312D01*
X167924376Y-113215212D01*
X167901474Y-113117332D01*
X167850757Y-113034959D01*
X167816247Y-113007829D01*
X167748577Y-112988228D01*
X167651055Y-112977461D01*
X167620446Y-112976750D01*
X167507087Y-112990268D01*
X167409371Y-113039562D01*
X167366519Y-113072530D01*
X167250320Y-113168311D01*
X167240222Y-113080468D01*
X167217278Y-113012125D01*
X167166625Y-112992625D01*
X167140979Y-112996304D01*
X167123007Y-113013966D01*
X167111022Y-113055549D01*
X167103341Y-113130991D01*
X167098278Y-113250227D01*
X167094221Y-113419648D01*
X167091130Y-113612929D01*
X166349991Y-113612929D01*
X166282306Y-113554032D01*
X166202641Y-113482170D01*
X166154347Y-113435545D01*
X166144983Y-113423966D01*
X166165115Y-113396681D01*
X166223647Y-113340261D01*
X166309402Y-113265253D01*
X166342130Y-113237922D01*
X166456365Y-113135887D01*
X166517563Y-113062507D01*
X166526937Y-113023609D01*
X166502170Y-112987893D01*
X166461371Y-112983783D01*
X166396787Y-113014666D01*
X166300664Y-113083933D01*
X166198250Y-113167250D01*
X166095942Y-113250300D01*
X166010687Y-113315017D01*
X165954802Y-113352266D01*
X165941371Y-113357750D01*
X165929978Y-113328098D01*
X165920704Y-113247521D01*
X165914549Y-113128582D01*
X165912500Y-112994498D01*
X165908903Y-112808630D01*
X165897415Y-112682736D01*
X165876991Y-112613657D01*
X165846584Y-112598238D01*
X165805148Y-112633322D01*
X165796558Y-112644592D01*
X165779840Y-112685320D01*
X165767706Y-112759943D01*
X165759651Y-112875813D01*
X165755168Y-113040277D01*
X165753750Y-113260687D01*
X165000305Y-113260687D01*
X165003696Y-113257783D01*
X165023381Y-113241740D01*
X165136189Y-113143992D01*
X165197081Y-113073173D01*
X165208943Y-113024133D01*
X165174662Y-112991724D01*
X165165653Y-112987954D01*
X165116033Y-112999098D01*
X165028295Y-113051806D01*
X164908680Y-113142207D01*
X164882561Y-113163576D01*
X164779853Y-113247035D01*
X164695817Y-113312522D01*
X164642043Y-113351151D01*
X164629283Y-113357750D01*
X164621772Y-113328157D01*
X164615724Y-113248003D01*
X164611835Y-113130219D01*
X164610750Y-113014849D01*
X164607304Y-112836141D01*
X164595673Y-112713908D01*
X164573911Y-112641436D01*
X164540076Y-112612008D01*
X164495756Y-112617502D01*
X164480230Y-112635092D01*
X164468673Y-112679254D01*
X164460578Y-112757427D01*
X164455438Y-112877052D01*
X164452748Y-113045568D01*
X164452000Y-113260605D01*
X163626500Y-113260605D01*
X163626500Y-112691000D01*
X163719541Y-112691000D01*
X163790585Y-112702984D01*
X163820080Y-112747591D01*
X163822729Y-112762113D01*
X163854096Y-112821201D01*
X163910273Y-112846364D01*
X163965741Y-112829283D01*
X163979396Y-112813186D01*
X163997561Y-112754392D01*
X164006759Y-112665929D01*
X164007013Y-112651312D01*
X164007500Y-112532250D01*
X163118500Y-112532250D01*
X162547000Y-112532250D01*
X162547000Y-112183000D01*
X172453000Y-112183000D01*
X172453000Y-114342000D01*
X172453000Y-114342000D01*
G37*
X172453000Y-114342000D02*
X162547000Y-114342000D01*
X162547000Y-112532250D01*
X163118500Y-112532250D01*
X163118500Y-112693208D01*
X163120930Y-112787814D01*
X163132938Y-112833909D01*
X163161602Y-112846433D01*
X163189937Y-112844020D01*
X163254124Y-112807865D01*
X163271520Y-112762437D01*
X163294619Y-112709246D01*
X163355166Y-112691463D01*
X163374708Y-112691000D01*
X163467750Y-112691000D01*
X163467750Y-113929250D01*
X163626500Y-113929250D01*
X163626500Y-113260605D01*
X164452000Y-113260605D01*
X164453080Y-113454007D01*
X164456091Y-113625433D01*
X164460689Y-113764853D01*
X164466529Y-113862238D01*
X164473267Y-113907560D01*
X164474264Y-113909180D01*
X164521610Y-113923928D01*
X164545701Y-113922112D01*
X164578547Y-113894087D01*
X164597902Y-113818926D01*
X164604529Y-113744734D01*
X164619928Y-113627990D01*
X164648628Y-113566213D01*
X164659102Y-113559452D01*
X164703220Y-113571073D01*
X164782986Y-113618564D01*
X164887249Y-113694874D01*
X164937972Y-113735732D01*
X165077795Y-113844926D01*
X165178360Y-113907863D01*
X165242635Y-113925710D01*
X165273588Y-113899635D01*
X165277500Y-113869352D01*
X165252804Y-113819548D01*
X165184434Y-113742981D01*
X165080963Y-113648977D01*
X165055250Y-113627625D01*
X164957042Y-113544678D01*
X164881033Y-113475535D01*
X164838366Y-113430567D01*
X164833000Y-113420700D01*
X164856020Y-113390169D01*
X164916974Y-113332052D01*
X165000305Y-113260687D01*
X165753750Y-113260687D01*
X165753750Y-113265971D01*
X165754799Y-113451519D01*
X165757711Y-113617119D01*
X165762128Y-113751441D01*
X165767696Y-113843152D01*
X165773021Y-113879028D01*
X165817217Y-113921399D01*
X165852396Y-113929250D01*
X168387761Y-113929250D01*
X168815132Y-113929250D01*
X168998593Y-113926806D01*
X169139261Y-113919828D01*
X169229996Y-113908844D01*
X169262984Y-113896109D01*
X169262608Y-113847139D01*
X169245095Y-113816734D01*
X169209164Y-113794250D01*
X169139368Y-113779909D01*
X169025523Y-113772428D01*
X168877922Y-113770500D01*
X168549121Y-113770500D01*
X168547779Y-113675321D01*
X169721702Y-113675321D01*
X169757765Y-113794600D01*
X169800431Y-113851318D01*
X169856232Y-113896562D01*
X169922131Y-113920235D01*
X170020324Y-113928698D01*
X170072394Y-113929250D01*
X170186796Y-113924077D01*
X170282253Y-113910694D01*
X170327106Y-113896774D01*
X170402690Y-113883017D01*
X170451226Y-113903916D01*
X170500390Y-113926235D01*
X170534310Y-113917023D01*
X170554761Y-113869526D01*
X170563516Y-113776991D01*
X170562352Y-113632664D01*
X170556828Y-113502081D01*
X170547529Y-113337775D01*
X170542447Y-113281771D01*
X171056000Y-113281771D01*
X171056294Y-113500073D01*
X171057677Y-113662955D01*
X171060898Y-113778497D01*
X171066709Y-113854779D01*
X171075857Y-113899879D01*
X171089095Y-113921878D01*
X171107171Y-113928855D01*
X171116103Y-113929250D01*
X171175645Y-113906207D01*
X171195237Y-113879655D01*
X171214874Y-113847741D01*
X171248682Y-113855671D01*
X171285073Y-113879655D01*
X171366425Y-113912009D01*
X171482141Y-113928365D01*
X171516363Y-113929250D01*
X171627304Y-113921825D01*
X171706911Y-113892160D01*
X171779174Y-113835789D01*
X171828277Y-113788219D01*
X171858461Y-113744151D01*
X171874324Y-113686879D01*
X171880470Y-113599692D01*
X171881499Y-113465885D01*
X171881500Y-113464238D01*
X171880361Y-113329290D01*
X171873881Y-113240503D01*
X171857464Y-113180541D01*
X171826516Y-113132071D01*
X171780021Y-113081449D01*
X171707090Y-113015977D01*
X171636438Y-112985204D01*
X171537546Y-112976834D01*
X171520130Y-112976750D01*
X171401088Y-112986527D01*
X171319288Y-113020601D01*
X171288233Y-113045784D01*
X171214750Y-113114818D01*
X171214750Y-112893384D01*
X171206904Y-112742224D01*
X171182502Y-112649594D01*
X171140250Y-112612388D01*
X171099756Y-112617502D01*
X171084466Y-112634849D01*
X171073019Y-112678445D01*
X171064932Y-112755622D01*
X171059723Y-112873715D01*
X171056908Y-113040057D01*
X171056004Y-113261980D01*
X171056000Y-113281771D01*
X170542447Y-113281771D01*
X170537215Y-113224136D01*
X170523285Y-113148351D01*
X170503140Y-113097608D01*
X170474181Y-113059093D01*
X170465030Y-113049644D01*
X170418566Y-113011495D01*
X170362338Y-112989399D01*
X170278411Y-112979202D01*
X170150359Y-112976750D01*
X170028261Y-112977786D01*
X169956995Y-112983500D01*
X169923901Y-112997796D01*
X169916315Y-113024579D01*
X169918729Y-113048187D01*
X169930206Y-113086259D01*
X169960778Y-113109743D01*
X170024745Y-113124010D01*
X170136410Y-113134435D01*
X170151125Y-113135500D01*
X170267585Y-113145312D01*
X170335048Y-113158029D01*
X170367932Y-113179808D01*
X170380656Y-113216804D01*
X170383018Y-113234509D01*
X170385447Y-113275400D01*
X170372906Y-113300923D01*
X170333115Y-113315876D01*
X170253793Y-113325060D01*
X170131630Y-113332754D01*
X169999061Y-113342393D01*
X169913038Y-113356023D01*
X169856616Y-113378763D01*
X169812853Y-113415730D01*
X169796549Y-113433953D01*
X169734565Y-113548128D01*
X169721702Y-113675321D01*
X168547779Y-113675321D01*
X168540498Y-113159312D01*
X168537234Y-112948196D01*
X168533601Y-112792243D01*
X168528616Y-112683121D01*
X168521294Y-112612497D01*
X168510654Y-112572037D01*
X168495711Y-112553408D01*
X168475482Y-112548277D01*
X168468375Y-112548125D01*
X168447545Y-112550619D01*
X168431706Y-112563331D01*
X168420039Y-112594106D01*
X168411726Y-112650789D01*
X168405949Y-112741223D01*
X168401888Y-112873254D01*
X168398725Y-113054726D01*
X168396318Y-113238687D01*
X168387761Y-113929250D01*
X165852396Y-113929250D01*
X165887554Y-113920457D01*
X165905705Y-113884151D01*
X165912077Y-113805434D01*
X165912500Y-113758021D01*
X165921707Y-113639400D01*
X165952599Y-113572738D01*
X166010082Y-113548751D01*
X166023343Y-113548250D01*
X166050563Y-113567235D01*
X166115106Y-113618222D01*
X166205770Y-113692254D01*
X166263475Y-113740191D01*
X166397431Y-113845055D01*
X166494539Y-113903687D01*
X166559419Y-113917948D01*
X166596689Y-113889700D01*
X166602102Y-113876612D01*
X166584757Y-113841464D01*
X166528132Y-113777023D01*
X166442239Y-113694023D01*
X166382483Y-113641203D01*
X166349991Y-113612929D01*
X167091130Y-113612929D01*
X167092080Y-113751263D01*
X167098427Y-113843148D01*
X167111524Y-113897079D01*
X167132723Y-113921555D01*
X167163380Y-113925070D01*
X167174466Y-113923338D01*
X167202598Y-113908133D01*
X167221659Y-113867291D01*
X167234693Y-113788719D01*
X167244743Y-113660327D01*
X167246000Y-113639162D01*
X167261875Y-113365590D01*
X167399816Y-113250545D01*
X167513867Y-113170568D01*
X167612963Y-113137486D01*
X167644971Y-113135500D01*
X167721341Y-113143762D01*
X167759967Y-113181136D01*
X167778363Y-113236527D01*
X167813166Y-113321303D01*
X167855490Y-113348905D01*
X167899630Y-113316613D01*
X167910040Y-113299312D01*
X167924376Y-113215212D01*
X167901474Y-113117332D01*
X167850757Y-113034959D01*
X167816247Y-113007829D01*
X167748577Y-112988228D01*
X167651055Y-112977461D01*
X167620446Y-112976750D01*
X167507087Y-112990268D01*
X167409371Y-113039562D01*
X167366519Y-113072530D01*
X167250320Y-113168311D01*
X167240222Y-113080468D01*
X167217278Y-113012125D01*
X167166625Y-112992625D01*
X167140979Y-112996304D01*
X167123007Y-113013966D01*
X167111022Y-113055549D01*
X167103341Y-113130991D01*
X167098278Y-113250227D01*
X167094221Y-113419648D01*
X167091130Y-113612929D01*
X166349991Y-113612929D01*
X166282306Y-113554032D01*
X166202641Y-113482170D01*
X166154347Y-113435545D01*
X166144983Y-113423966D01*
X166165115Y-113396681D01*
X166223647Y-113340261D01*
X166309402Y-113265253D01*
X166342130Y-113237922D01*
X166456365Y-113135887D01*
X166517563Y-113062507D01*
X166526937Y-113023609D01*
X166502170Y-112987893D01*
X166461371Y-112983783D01*
X166396787Y-113014666D01*
X166300664Y-113083933D01*
X166198250Y-113167250D01*
X166095942Y-113250300D01*
X166010687Y-113315017D01*
X165954802Y-113352266D01*
X165941371Y-113357750D01*
X165929978Y-113328098D01*
X165920704Y-113247521D01*
X165914549Y-113128582D01*
X165912500Y-112994498D01*
X165908903Y-112808630D01*
X165897415Y-112682736D01*
X165876991Y-112613657D01*
X165846584Y-112598238D01*
X165805148Y-112633322D01*
X165796558Y-112644592D01*
X165779840Y-112685320D01*
X165767706Y-112759943D01*
X165759651Y-112875813D01*
X165755168Y-113040277D01*
X165753750Y-113260687D01*
X165000305Y-113260687D01*
X165003696Y-113257783D01*
X165023381Y-113241740D01*
X165136189Y-113143992D01*
X165197081Y-113073173D01*
X165208943Y-113024133D01*
X165174662Y-112991724D01*
X165165653Y-112987954D01*
X165116033Y-112999098D01*
X165028295Y-113051806D01*
X164908680Y-113142207D01*
X164882561Y-113163576D01*
X164779853Y-113247035D01*
X164695817Y-113312522D01*
X164642043Y-113351151D01*
X164629283Y-113357750D01*
X164621772Y-113328157D01*
X164615724Y-113248003D01*
X164611835Y-113130219D01*
X164610750Y-113014849D01*
X164607304Y-112836141D01*
X164595673Y-112713908D01*
X164573911Y-112641436D01*
X164540076Y-112612008D01*
X164495756Y-112617502D01*
X164480230Y-112635092D01*
X164468673Y-112679254D01*
X164460578Y-112757427D01*
X164455438Y-112877052D01*
X164452748Y-113045568D01*
X164452000Y-113260605D01*
X163626500Y-113260605D01*
X163626500Y-112691000D01*
X163719541Y-112691000D01*
X163790585Y-112702984D01*
X163820080Y-112747591D01*
X163822729Y-112762113D01*
X163854096Y-112821201D01*
X163910273Y-112846364D01*
X163965741Y-112829283D01*
X163979396Y-112813186D01*
X163997561Y-112754392D01*
X164006759Y-112665929D01*
X164007013Y-112651312D01*
X164007500Y-112532250D01*
X163118500Y-112532250D01*
X162547000Y-112532250D01*
X162547000Y-112183000D01*
X172453000Y-112183000D01*
X172453000Y-114342000D01*
G36*
X167274405Y-102246475D02*
X167276040Y-102246521D01*
X167291759Y-102258241D01*
X167250424Y-102288705D01*
X167246000Y-102291151D01*
X167170520Y-102348240D01*
X167100373Y-102424691D01*
X167100279Y-102424818D01*
X167072271Y-102468833D01*
X167014656Y-102564435D01*
X166929449Y-102708142D01*
X166818663Y-102896475D01*
X166684312Y-103125951D01*
X166528409Y-103393091D01*
X166352967Y-103694412D01*
X166160001Y-104026434D01*
X165951523Y-104385677D01*
X165729547Y-104768659D01*
X165496087Y-105171898D01*
X165253156Y-105591915D01*
X165002768Y-106025229D01*
X164746936Y-106468357D01*
X164487674Y-106917820D01*
X164226994Y-107370136D01*
X163966912Y-107821824D01*
X163709440Y-108269404D01*
X163456591Y-108709395D01*
X163210380Y-109138314D01*
X162972819Y-109552683D01*
X162745923Y-109949019D01*
X162570294Y-110256268D01*
X162444428Y-110476990D01*
X162346598Y-110650462D01*
X162273273Y-110784532D01*
X162220919Y-110887045D01*
X162186007Y-110965850D01*
X162165003Y-111028794D01*
X162154376Y-111083723D01*
X162150595Y-111138486D01*
X162150125Y-111189844D01*
X162153710Y-111305604D01*
X162169139Y-111380814D01*
X162203418Y-111438239D01*
X162238155Y-111475840D01*
X162326186Y-111563875D01*
X167476905Y-111579987D01*
X172627625Y-111596099D01*
X167515875Y-111602556D01*
X166837625Y-111603351D01*
X166220073Y-111603929D01*
X165660418Y-111604268D01*
X165155857Y-111604349D01*
X164703590Y-111604150D01*
X164300814Y-111603651D01*
X163944728Y-111602830D01*
X163632530Y-111601666D01*
X163361419Y-111600139D01*
X163128593Y-111598228D01*
X162931250Y-111595912D01*
X162766589Y-111593170D01*
X162631807Y-111589981D01*
X162524105Y-111586324D01*
X162440679Y-111582179D01*
X162378728Y-111577524D01*
X162335450Y-111572338D01*
X162308045Y-111566601D01*
X162299749Y-111563665D01*
X162199994Y-111487104D01*
X162132778Y-111363754D01*
X162103378Y-111204176D01*
X162102500Y-111168796D01*
X162102930Y-111141511D01*
X162105368Y-111113616D01*
X162111533Y-111081959D01*
X162123145Y-111043389D01*
X162141924Y-110994753D01*
X162169590Y-110932899D01*
X162207862Y-110854675D01*
X162258461Y-110756929D01*
X162323106Y-110636509D01*
X162403516Y-110490262D01*
X162501413Y-110315037D01*
X162618515Y-110107682D01*
X162756543Y-109865044D01*
X162917215Y-109583971D01*
X163102253Y-109261312D01*
X163313376Y-108893914D01*
X163552303Y-108478624D01*
X163820755Y-108012292D01*
X163896419Y-107880875D01*
X164273573Y-107225821D01*
X164620361Y-106623574D01*
X164938112Y-106071915D01*
X165228158Y-105568628D01*
X165491827Y-105111495D01*
X165730449Y-104698298D01*
X165945355Y-104326822D01*
X166137875Y-103994847D01*
X166309339Y-103700157D01*
X166461077Y-103440534D01*
X166594418Y-103213761D01*
X166710693Y-103017621D01*
X166811232Y-102849896D01*
X166897365Y-102708369D01*
X166970421Y-102590823D01*
X167031732Y-102495040D01*
X167082626Y-102418803D01*
X167124435Y-102359894D01*
X167158487Y-102316097D01*
X167186113Y-102285193D01*
X167208643Y-102264966D01*
X167227408Y-102253198D01*
X167243736Y-102247672D01*
X167258958Y-102246170D01*
X167274405Y-102246475D01*
X167274405Y-102246475D01*
G37*
X167274405Y-102246475D02*
X167276040Y-102246521D01*
X167291759Y-102258241D01*
X167250424Y-102288705D01*
X167246000Y-102291151D01*
X167170520Y-102348240D01*
X167100373Y-102424691D01*
X167100279Y-102424818D01*
X167072271Y-102468833D01*
X167014656Y-102564435D01*
X166929449Y-102708142D01*
X166818663Y-102896475D01*
X166684312Y-103125951D01*
X166528409Y-103393091D01*
X166352967Y-103694412D01*
X166160001Y-104026434D01*
X165951523Y-104385677D01*
X165729547Y-104768659D01*
X165496087Y-105171898D01*
X165253156Y-105591915D01*
X165002768Y-106025229D01*
X164746936Y-106468357D01*
X164487674Y-106917820D01*
X164226994Y-107370136D01*
X163966912Y-107821824D01*
X163709440Y-108269404D01*
X163456591Y-108709395D01*
X163210380Y-109138314D01*
X162972819Y-109552683D01*
X162745923Y-109949019D01*
X162570294Y-110256268D01*
X162444428Y-110476990D01*
X162346598Y-110650462D01*
X162273273Y-110784532D01*
X162220919Y-110887045D01*
X162186007Y-110965850D01*
X162165003Y-111028794D01*
X162154376Y-111083723D01*
X162150595Y-111138486D01*
X162150125Y-111189844D01*
X162153710Y-111305604D01*
X162169139Y-111380814D01*
X162203418Y-111438239D01*
X162238155Y-111475840D01*
X162326186Y-111563875D01*
X167476905Y-111579987D01*
X172627625Y-111596099D01*
X167515875Y-111602556D01*
X166837625Y-111603351D01*
X166220073Y-111603929D01*
X165660418Y-111604268D01*
X165155857Y-111604349D01*
X164703590Y-111604150D01*
X164300814Y-111603651D01*
X163944728Y-111602830D01*
X163632530Y-111601666D01*
X163361419Y-111600139D01*
X163128593Y-111598228D01*
X162931250Y-111595912D01*
X162766589Y-111593170D01*
X162631807Y-111589981D01*
X162524105Y-111586324D01*
X162440679Y-111582179D01*
X162378728Y-111577524D01*
X162335450Y-111572338D01*
X162308045Y-111566601D01*
X162299749Y-111563665D01*
X162199994Y-111487104D01*
X162132778Y-111363754D01*
X162103378Y-111204176D01*
X162102500Y-111168796D01*
X162102930Y-111141511D01*
X162105368Y-111113616D01*
X162111533Y-111081959D01*
X162123145Y-111043389D01*
X162141924Y-110994753D01*
X162169590Y-110932899D01*
X162207862Y-110854675D01*
X162258461Y-110756929D01*
X162323106Y-110636509D01*
X162403516Y-110490262D01*
X162501413Y-110315037D01*
X162618515Y-110107682D01*
X162756543Y-109865044D01*
X162917215Y-109583971D01*
X163102253Y-109261312D01*
X163313376Y-108893914D01*
X163552303Y-108478624D01*
X163820755Y-108012292D01*
X163896419Y-107880875D01*
X164273573Y-107225821D01*
X164620361Y-106623574D01*
X164938112Y-106071915D01*
X165228158Y-105568628D01*
X165491827Y-105111495D01*
X165730449Y-104698298D01*
X165945355Y-104326822D01*
X166137875Y-103994847D01*
X166309339Y-103700157D01*
X166461077Y-103440534D01*
X166594418Y-103213761D01*
X166710693Y-103017621D01*
X166811232Y-102849896D01*
X166897365Y-102708369D01*
X166970421Y-102590823D01*
X167031732Y-102495040D01*
X167082626Y-102418803D01*
X167124435Y-102359894D01*
X167158487Y-102316097D01*
X167186113Y-102285193D01*
X167208643Y-102264966D01*
X167227408Y-102253198D01*
X167243736Y-102247672D01*
X167258958Y-102246170D01*
X167274405Y-102246475D01*
G36*
X167682455Y-102264603D02*
X167753990Y-102311059D01*
X167761171Y-102316845D01*
X167790705Y-102355393D01*
X167849442Y-102445110D01*
X167935031Y-102582062D01*
X168045118Y-102762313D01*
X168177352Y-102981930D01*
X168329380Y-103236976D01*
X168498849Y-103523518D01*
X168683407Y-103837621D01*
X168880701Y-104175349D01*
X169088379Y-104532769D01*
X169161037Y-104658250D01*
X169388683Y-105051344D01*
X169626539Y-105461330D01*
X169869844Y-105880042D01*
X170113838Y-106299318D01*
X170353760Y-106710992D01*
X170584850Y-107106902D01*
X170802346Y-107478884D01*
X171001487Y-107818774D01*
X171177515Y-108118408D01*
X171299516Y-108325375D01*
X171561870Y-108769594D01*
X171793800Y-109162597D01*
X171997181Y-109507840D01*
X172173889Y-109808777D01*
X172325800Y-110068863D01*
X172454789Y-110291554D01*
X172562733Y-110480305D01*
X172651507Y-110638572D01*
X172722986Y-110769809D01*
X172779046Y-110877471D01*
X172821563Y-110965015D01*
X172852414Y-111035894D01*
X172873472Y-111093565D01*
X172886615Y-111141483D01*
X172893717Y-111183102D01*
X172896655Y-111221878D01*
X172897304Y-111261267D01*
X172897322Y-111268693D01*
X172874369Y-111399295D01*
X172811197Y-111500822D01*
X172749629Y-111544498D01*
X172673707Y-111575039D01*
X172652043Y-111574602D01*
X172686137Y-111545271D01*
X172729960Y-111517116D01*
X172817574Y-111438312D01*
X172858518Y-111331700D01*
X172856422Y-111186822D01*
X172852898Y-111162876D01*
X172846496Y-111126352D01*
X172837857Y-111089495D01*
X172824747Y-111048264D01*
X172804931Y-110998617D01*
X172776173Y-110936514D01*
X172736239Y-110857913D01*
X172682892Y-110758772D01*
X172613899Y-110635051D01*
X172527024Y-110482707D01*
X172420031Y-110297700D01*
X172290686Y-110075988D01*
X172136754Y-109813530D01*
X171955998Y-109506284D01*
X171746186Y-109150209D01*
X171642449Y-108974247D01*
X171450693Y-108648432D01*
X171232689Y-108277004D01*
X170993917Y-107869353D01*
X170739857Y-107434870D01*
X170475990Y-106982947D01*
X170207796Y-106522974D01*
X169940756Y-106064342D01*
X169680351Y-105616442D01*
X169432060Y-105188666D01*
X169271888Y-104912250D01*
X169066907Y-104558398D01*
X168869706Y-104218306D01*
X168682795Y-103896279D01*
X168508682Y-103596623D01*
X168349873Y-103323644D01*
X168208878Y-103081648D01*
X168088204Y-102874942D01*
X167990359Y-102707831D01*
X167917852Y-102584622D01*
X167873190Y-102509620D01*
X167861141Y-102490073D01*
X167787288Y-102398364D01*
X167701438Y-102321164D01*
X167681291Y-102307629D01*
X167628204Y-102268890D01*
X167618760Y-102247202D01*
X167627000Y-102245526D01*
X167682455Y-102264603D01*
X167682455Y-102264603D01*
G37*
X167682455Y-102264603D02*
X167753990Y-102311059D01*
X167761171Y-102316845D01*
X167790705Y-102355393D01*
X167849442Y-102445110D01*
X167935031Y-102582062D01*
X168045118Y-102762313D01*
X168177352Y-102981930D01*
X168329380Y-103236976D01*
X168498849Y-103523518D01*
X168683407Y-103837621D01*
X168880701Y-104175349D01*
X169088379Y-104532769D01*
X169161037Y-104658250D01*
X169388683Y-105051344D01*
X169626539Y-105461330D01*
X169869844Y-105880042D01*
X170113838Y-106299318D01*
X170353760Y-106710992D01*
X170584850Y-107106902D01*
X170802346Y-107478884D01*
X171001487Y-107818774D01*
X171177515Y-108118408D01*
X171299516Y-108325375D01*
X171561870Y-108769594D01*
X171793800Y-109162597D01*
X171997181Y-109507840D01*
X172173889Y-109808777D01*
X172325800Y-110068863D01*
X172454789Y-110291554D01*
X172562733Y-110480305D01*
X172651507Y-110638572D01*
X172722986Y-110769809D01*
X172779046Y-110877471D01*
X172821563Y-110965015D01*
X172852414Y-111035894D01*
X172873472Y-111093565D01*
X172886615Y-111141483D01*
X172893717Y-111183102D01*
X172896655Y-111221878D01*
X172897304Y-111261267D01*
X172897322Y-111268693D01*
X172874369Y-111399295D01*
X172811197Y-111500822D01*
X172749629Y-111544498D01*
X172673707Y-111575039D01*
X172652043Y-111574602D01*
X172686137Y-111545271D01*
X172729960Y-111517116D01*
X172817574Y-111438312D01*
X172858518Y-111331700D01*
X172856422Y-111186822D01*
X172852898Y-111162876D01*
X172846496Y-111126352D01*
X172837857Y-111089495D01*
X172824747Y-111048264D01*
X172804931Y-110998617D01*
X172776173Y-110936514D01*
X172736239Y-110857913D01*
X172682892Y-110758772D01*
X172613899Y-110635051D01*
X172527024Y-110482707D01*
X172420031Y-110297700D01*
X172290686Y-110075988D01*
X172136754Y-109813530D01*
X171955998Y-109506284D01*
X171746186Y-109150209D01*
X171642449Y-108974247D01*
X171450693Y-108648432D01*
X171232689Y-108277004D01*
X170993917Y-107869353D01*
X170739857Y-107434870D01*
X170475990Y-106982947D01*
X170207796Y-106522974D01*
X169940756Y-106064342D01*
X169680351Y-105616442D01*
X169432060Y-105188666D01*
X169271888Y-104912250D01*
X169066907Y-104558398D01*
X168869706Y-104218306D01*
X168682795Y-103896279D01*
X168508682Y-103596623D01*
X168349873Y-103323644D01*
X168208878Y-103081648D01*
X168088204Y-102874942D01*
X167990359Y-102707831D01*
X167917852Y-102584622D01*
X167873190Y-102509620D01*
X167861141Y-102490073D01*
X167787288Y-102398364D01*
X167701438Y-102321164D01*
X167681291Y-102307629D01*
X167628204Y-102268890D01*
X167618760Y-102247202D01*
X167627000Y-102245526D01*
X167682455Y-102264603D01*
G36*
X167476492Y-102803556D02*
X167481128Y-102811128D01*
X167484923Y-102822189D01*
X167489604Y-102833882D01*
X167492578Y-102838753D01*
X167517573Y-102878596D01*
X167571633Y-102969018D01*
X167652624Y-103106324D01*
X167758414Y-103286823D01*
X167886871Y-103506820D01*
X168035863Y-103762623D01*
X168203256Y-104050538D01*
X168386919Y-104366873D01*
X168584720Y-104707933D01*
X168794525Y-105070027D01*
X169014203Y-105449460D01*
X169241620Y-105842540D01*
X169474646Y-106245574D01*
X169711146Y-106654867D01*
X169948990Y-107066728D01*
X170186044Y-107477463D01*
X170420176Y-107883378D01*
X170649254Y-108280781D01*
X170871145Y-108665979D01*
X171083717Y-109035277D01*
X171284838Y-109384984D01*
X171472374Y-109711406D01*
X171644195Y-110010850D01*
X171798166Y-110279622D01*
X171932157Y-110514030D01*
X172044034Y-110710380D01*
X172131665Y-110864979D01*
X172192918Y-110974133D01*
X172225661Y-111034151D01*
X172230750Y-111044955D01*
X172199577Y-111048013D01*
X172108368Y-111050972D01*
X171960586Y-111053814D01*
X171759696Y-111056518D01*
X171509160Y-111059065D01*
X171212443Y-111061436D01*
X170873008Y-111063612D01*
X170494319Y-111065573D01*
X170079840Y-111067300D01*
X169633034Y-111068772D01*
X169157365Y-111069972D01*
X168656296Y-111070879D01*
X168133292Y-111071474D01*
X167591816Y-111071738D01*
X167448978Y-111071750D01*
X166797080Y-111071689D01*
X166205848Y-111071489D01*
X165672448Y-111071122D01*
X165194048Y-111070562D01*
X164767812Y-111069781D01*
X164390907Y-111068753D01*
X164060499Y-111067451D01*
X163773755Y-111065847D01*
X163527841Y-111063915D01*
X163319923Y-111061628D01*
X163147167Y-111058958D01*
X163006739Y-111055879D01*
X162895807Y-111052364D01*
X162811535Y-111048385D01*
X162751090Y-111043917D01*
X162711639Y-111038931D01*
X162690347Y-111033401D01*
X162684382Y-111027300D01*
X162684611Y-111026392D01*
X162704587Y-110988188D01*
X162755757Y-110896440D01*
X162838181Y-110751041D01*
X162951920Y-110551884D01*
X163097037Y-110298864D01*
X163273592Y-109991874D01*
X163481647Y-109630807D01*
X163721262Y-109215557D01*
X163992501Y-108746018D01*
X164295422Y-108222084D01*
X164630089Y-107643647D01*
X164648680Y-107611532D01*
X165567677Y-107611532D01*
X165569384Y-107700248D01*
X165603347Y-107734526D01*
X165669779Y-107714617D01*
X165753570Y-107653903D01*
X165820264Y-107585438D01*
X165839322Y-107525272D01*
X165835110Y-107496482D01*
X165834218Y-107441639D01*
X165870647Y-107391550D01*
X165935473Y-107342454D01*
X166011804Y-107293794D01*
X166066011Y-107265056D01*
X166077437Y-107261750D01*
X166105269Y-107286136D01*
X166157204Y-107350467D01*
X166222652Y-107441502D01*
X166231199Y-107454016D01*
X166305788Y-107554073D01*
X166377815Y-107634441D01*
X166432158Y-107678322D01*
X166433811Y-107679108D01*
X166487766Y-107723683D01*
X166491227Y-107788467D01*
X166474030Y-107836453D01*
X166434280Y-107858852D01*
X166353113Y-107864924D01*
X166335336Y-107865000D01*
X166233134Y-107857588D01*
X166149284Y-107839066D01*
X166131463Y-107831491D01*
X166051599Y-107812886D01*
X166003652Y-107818675D01*
X165940370Y-107861680D01*
X165894772Y-107948129D01*
X165865468Y-108083287D01*
X165851070Y-108272419D01*
X165849000Y-108404995D01*
X165854802Y-108610386D01*
X165875864Y-108769352D01*
X165917668Y-108898207D01*
X165985696Y-109013269D01*
X166085430Y-109130853D01*
X166096934Y-109142937D01*
X166182118Y-109223637D01*
X166243940Y-109255152D01*
X166296676Y-109239441D01*
X166354597Y-109178467D01*
X166354695Y-109178343D01*
X166409005Y-109092026D01*
X166409066Y-109030558D01*
X166352668Y-108982396D01*
X166313671Y-108964216D01*
X166213389Y-108893265D01*
X166168398Y-108812977D01*
X166146729Y-108729076D01*
X166128561Y-108616214D01*
X166115179Y-108491386D01*
X166107866Y-108371586D01*
X166107905Y-108273809D01*
X166116580Y-108215047D01*
X166122583Y-108206374D01*
X166167483Y-108202759D01*
X166251592Y-108211973D01*
X166311707Y-108222884D01*
X166421650Y-108239936D01*
X166501510Y-108233764D01*
X166578522Y-108203496D01*
X166663727Y-108163377D01*
X166698602Y-108155241D01*
X166688073Y-108179785D01*
X166658168Y-108214754D01*
X166619489Y-108263804D01*
X166625565Y-108295664D01*
X166661184Y-108326451D01*
X166895040Y-108472161D01*
X167147255Y-108559496D01*
X167174562Y-108565136D01*
X167276548Y-108587713D01*
X167347797Y-108608944D01*
X167371990Y-108623193D01*
X167354066Y-108661077D01*
X167324365Y-108704505D01*
X167290594Y-108780736D01*
X167277750Y-108867224D01*
X167270931Y-108977254D01*
X167257795Y-109068083D01*
X167242663Y-109127733D01*
X167216349Y-109154296D01*
X167159994Y-109156627D01*
X167087700Y-109147937D01*
X166918613Y-109150728D01*
X166769627Y-109200562D01*
X166651172Y-109289724D01*
X166573679Y-109410500D01*
X166547500Y-109547516D01*
X166576657Y-109608984D01*
X166655579Y-109653296D01*
X166771438Y-109674003D01*
X166800545Y-109674750D01*
X166857952Y-109670335D01*
X166880159Y-109645005D01*
X166877931Y-109580627D01*
X166874093Y-109550879D01*
X166870857Y-109477508D01*
X166889595Y-109424399D01*
X166938831Y-109387481D01*
X167027088Y-109362685D01*
X167162888Y-109345940D01*
X167326760Y-109334732D01*
X167476436Y-109325050D01*
X167573550Y-109314686D01*
X167629016Y-109301153D01*
X167653745Y-109281967D01*
X167658750Y-109259090D01*
X167675298Y-109199775D01*
X167692023Y-109181683D01*
X167709987Y-109136875D01*
X167707815Y-109046864D01*
X167704856Y-109024813D01*
X167698555Y-108935547D01*
X167708027Y-108878165D01*
X167714880Y-108869679D01*
X167735611Y-108886777D01*
X167755115Y-108952461D01*
X167764310Y-109010989D01*
X167802616Y-109173395D01*
X167871294Y-109307505D01*
X167961945Y-109398388D01*
X167991345Y-109414617D01*
X168050017Y-109450623D01*
X168071500Y-109480076D01*
X168053444Y-109517474D01*
X168005601Y-109590493D01*
X167937458Y-109684855D01*
X167920687Y-109707058D01*
X167794676Y-109873350D01*
X167702357Y-109998471D01*
X167638512Y-110091432D01*
X167597923Y-110161242D01*
X167575370Y-110216912D01*
X167565635Y-110267454D01*
X167563501Y-110321876D01*
X167563500Y-110323800D01*
X167568116Y-110411782D01*
X167579671Y-110470290D01*
X167584666Y-110479083D01*
X167626345Y-110491380D01*
X167708790Y-110499015D01*
X167762688Y-110500250D01*
X167855096Y-110497485D01*
X167897126Y-110485594D01*
X167901791Y-110459179D01*
X167896669Y-110444687D01*
X167872278Y-110376870D01*
X167866151Y-110319580D01*
X167883462Y-110260349D01*
X167929388Y-110186705D01*
X168009104Y-110086179D01*
X168080583Y-110001582D01*
X168186843Y-109879018D01*
X168289081Y-109764734D01*
X168374109Y-109673280D01*
X168420029Y-109627125D01*
X168510121Y-109535707D01*
X168553617Y-109466079D01*
X168554664Y-109401854D01*
X168517408Y-109326645D01*
X168501982Y-109303304D01*
X168422207Y-109185903D01*
X168593802Y-109032963D01*
X168696980Y-108928759D01*
X168772841Y-108828122D01*
X168801911Y-108769386D01*
X168846102Y-108684321D01*
X168896173Y-108658750D01*
X168967149Y-108631280D01*
X169041857Y-108561060D01*
X169106505Y-108466373D01*
X169147298Y-108365502D01*
X169154514Y-108316332D01*
X169138304Y-108075969D01*
X169071816Y-107868603D01*
X168951421Y-107687650D01*
X168773490Y-107526524D01*
X168686290Y-107466722D01*
X168591600Y-107402141D01*
X168540105Y-107351949D01*
X168519196Y-107300237D01*
X168516000Y-107251887D01*
X168537568Y-107151665D01*
X168603390Y-107014739D01*
X168663578Y-106915320D01*
X168778349Y-106720455D01*
X168847701Y-106561674D01*
X168872537Y-106431635D01*
X168853762Y-106322990D01*
X168792282Y-106228396D01*
X168752913Y-106190187D01*
X168646579Y-106128887D01*
X168540269Y-106131061D01*
X168433810Y-106196722D01*
X168418307Y-106211557D01*
X168356174Y-106282812D01*
X168327804Y-106333675D01*
X168334941Y-106355089D01*
X168379334Y-106337999D01*
X168396064Y-106326925D01*
X168493054Y-106284040D01*
X168582348Y-106286156D01*
X168648166Y-106328595D01*
X168674724Y-106406678D01*
X168674750Y-106409540D01*
X168655195Y-106457071D01*
X168602731Y-106538338D01*
X168526653Y-106639638D01*
X168479839Y-106696878D01*
X168336995Y-106882533D01*
X168228552Y-107057066D01*
X168159620Y-107211015D01*
X168135310Y-107334764D01*
X168160913Y-107457883D01*
X168229650Y-107592866D01*
X168328241Y-107722423D01*
X168443408Y-107829263D01*
X168561872Y-107896095D01*
X168567997Y-107898193D01*
X168658346Y-107946640D01*
X168748572Y-108024061D01*
X168822053Y-108112603D01*
X168862166Y-108194412D01*
X168865250Y-108217442D01*
X168851174Y-108296293D01*
X168817427Y-108366561D01*
X168776725Y-108403528D01*
X168768882Y-108404750D01*
X168741700Y-108379016D01*
X168738250Y-108357124D01*
X168710713Y-108285632D01*
X168637602Y-108204084D01*
X168533161Y-108123723D01*
X168411637Y-108055795D01*
X168306765Y-108016565D01*
X168169604Y-107967505D01*
X168028462Y-107900309D01*
X167958242Y-107858543D01*
X167858810Y-107783241D01*
X167796242Y-107706016D01*
X167749279Y-107599372D01*
X167742304Y-107579250D01*
X167719564Y-107508609D01*
X167705348Y-107446377D01*
X167700393Y-107380801D01*
X167705437Y-107300126D01*
X167721218Y-107192600D01*
X167748474Y-107046467D01*
X167787943Y-106849973D01*
X167788140Y-106849000D01*
X167810249Y-106607706D01*
X167775558Y-106388661D01*
X167685475Y-106196219D01*
X167541405Y-106034735D01*
X167519508Y-106016815D01*
X167427080Y-105933832D01*
X167352187Y-105848893D01*
X167317354Y-105792902D01*
X167287240Y-105729684D01*
X167260614Y-105718061D01*
X167217633Y-105750568D01*
X167213861Y-105753976D01*
X167166294Y-105811601D01*
X167150750Y-105853396D01*
X167124272Y-105887060D01*
X167054281Y-105937349D01*
X166954939Y-105994323D01*
X166936437Y-106003814D01*
X166760901Y-106098340D01*
X166594382Y-106198917D01*
X166445958Y-106298945D01*
X166324705Y-106391825D01*
X166239701Y-106470957D01*
X166200023Y-106529739D01*
X166198250Y-106540555D01*
X166223925Y-106617605D01*
X166285418Y-106685884D01*
X166359424Y-106721060D01*
X166372029Y-106722000D01*
X166435046Y-106736294D01*
X166459738Y-106760339D01*
X166490472Y-106779918D01*
X166570305Y-106789945D01*
X166705234Y-106791005D01*
X166759652Y-106789589D01*
X166895722Y-106786113D01*
X166981386Y-106788007D01*
X167029681Y-106798026D01*
X167053646Y-106818924D01*
X167066321Y-106853457D01*
X167066584Y-106854437D01*
X167083813Y-106943056D01*
X167068279Y-106994712D01*
X167011051Y-107031304D01*
X166990910Y-107039951D01*
X166916402Y-107086141D01*
X166826750Y-107162736D01*
X166768124Y-107223506D01*
X166696270Y-107302218D01*
X166648944Y-107340126D01*
X166609863Y-107345074D01*
X166562744Y-107324909D01*
X166560331Y-107323621D01*
X166495469Y-107277937D01*
X166408433Y-107202819D01*
X166331490Y-107128042D01*
X166250332Y-107050449D01*
X166181787Y-106995662D01*
X166142234Y-106976000D01*
X166041401Y-107001691D01*
X165924754Y-107069992D01*
X165806845Y-107167745D01*
X165702225Y-107281790D01*
X165625446Y-107398969D01*
X165598016Y-107468125D01*
X165567677Y-107611532D01*
X164648680Y-107611532D01*
X164996562Y-107010602D01*
X165394903Y-106322843D01*
X165595924Y-105975875D01*
X165879029Y-105487197D01*
X166131940Y-105050558D01*
X166356384Y-104663101D01*
X166554088Y-104321971D01*
X166726779Y-104024311D01*
X166876182Y-103767266D01*
X167004025Y-103547979D01*
X167112034Y-103363596D01*
X167201937Y-103211259D01*
X167275458Y-103088114D01*
X167334326Y-102991304D01*
X167380267Y-102917973D01*
X167415007Y-102865266D01*
X167440273Y-102830327D01*
X167457791Y-102810299D01*
X167469289Y-102802328D01*
X167476492Y-102803556D01*
X167476492Y-102803556D01*
G37*
X167476492Y-102803556D02*
X167481128Y-102811128D01*
X167484923Y-102822189D01*
X167489604Y-102833882D01*
X167492578Y-102838753D01*
X167517573Y-102878596D01*
X167571633Y-102969018D01*
X167652624Y-103106324D01*
X167758414Y-103286823D01*
X167886871Y-103506820D01*
X168035863Y-103762623D01*
X168203256Y-104050538D01*
X168386919Y-104366873D01*
X168584720Y-104707933D01*
X168794525Y-105070027D01*
X169014203Y-105449460D01*
X169241620Y-105842540D01*
X169474646Y-106245574D01*
X169711146Y-106654867D01*
X169948990Y-107066728D01*
X170186044Y-107477463D01*
X170420176Y-107883378D01*
X170649254Y-108280781D01*
X170871145Y-108665979D01*
X171083717Y-109035277D01*
X171284838Y-109384984D01*
X171472374Y-109711406D01*
X171644195Y-110010850D01*
X171798166Y-110279622D01*
X171932157Y-110514030D01*
X172044034Y-110710380D01*
X172131665Y-110864979D01*
X172192918Y-110974133D01*
X172225661Y-111034151D01*
X172230750Y-111044955D01*
X172199577Y-111048013D01*
X172108368Y-111050972D01*
X171960586Y-111053814D01*
X171759696Y-111056518D01*
X171509160Y-111059065D01*
X171212443Y-111061436D01*
X170873008Y-111063612D01*
X170494319Y-111065573D01*
X170079840Y-111067300D01*
X169633034Y-111068772D01*
X169157365Y-111069972D01*
X168656296Y-111070879D01*
X168133292Y-111071474D01*
X167591816Y-111071738D01*
X167448978Y-111071750D01*
X166797080Y-111071689D01*
X166205848Y-111071489D01*
X165672448Y-111071122D01*
X165194048Y-111070562D01*
X164767812Y-111069781D01*
X164390907Y-111068753D01*
X164060499Y-111067451D01*
X163773755Y-111065847D01*
X163527841Y-111063915D01*
X163319923Y-111061628D01*
X163147167Y-111058958D01*
X163006739Y-111055879D01*
X162895807Y-111052364D01*
X162811535Y-111048385D01*
X162751090Y-111043917D01*
X162711639Y-111038931D01*
X162690347Y-111033401D01*
X162684382Y-111027300D01*
X162684611Y-111026392D01*
X162704587Y-110988188D01*
X162755757Y-110896440D01*
X162838181Y-110751041D01*
X162951920Y-110551884D01*
X163097037Y-110298864D01*
X163273592Y-109991874D01*
X163481647Y-109630807D01*
X163721262Y-109215557D01*
X163992501Y-108746018D01*
X164295422Y-108222084D01*
X164630089Y-107643647D01*
X164648680Y-107611532D01*
X165567677Y-107611532D01*
X165569384Y-107700248D01*
X165603347Y-107734526D01*
X165669779Y-107714617D01*
X165753570Y-107653903D01*
X165820264Y-107585438D01*
X165839322Y-107525272D01*
X165835110Y-107496482D01*
X165834218Y-107441639D01*
X165870647Y-107391550D01*
X165935473Y-107342454D01*
X166011804Y-107293794D01*
X166066011Y-107265056D01*
X166077437Y-107261750D01*
X166105269Y-107286136D01*
X166157204Y-107350467D01*
X166222652Y-107441502D01*
X166231199Y-107454016D01*
X166305788Y-107554073D01*
X166377815Y-107634441D01*
X166432158Y-107678322D01*
X166433811Y-107679108D01*
X166487766Y-107723683D01*
X166491227Y-107788467D01*
X166474030Y-107836453D01*
X166434280Y-107858852D01*
X166353113Y-107864924D01*
X166335336Y-107865000D01*
X166233134Y-107857588D01*
X166149284Y-107839066D01*
X166131463Y-107831491D01*
X166051599Y-107812886D01*
X166003652Y-107818675D01*
X165940370Y-107861680D01*
X165894772Y-107948129D01*
X165865468Y-108083287D01*
X165851070Y-108272419D01*
X165849000Y-108404995D01*
X165854802Y-108610386D01*
X165875864Y-108769352D01*
X165917668Y-108898207D01*
X165985696Y-109013269D01*
X166085430Y-109130853D01*
X166096934Y-109142937D01*
X166182118Y-109223637D01*
X166243940Y-109255152D01*
X166296676Y-109239441D01*
X166354597Y-109178467D01*
X166354695Y-109178343D01*
X166409005Y-109092026D01*
X166409066Y-109030558D01*
X166352668Y-108982396D01*
X166313671Y-108964216D01*
X166213389Y-108893265D01*
X166168398Y-108812977D01*
X166146729Y-108729076D01*
X166128561Y-108616214D01*
X166115179Y-108491386D01*
X166107866Y-108371586D01*
X166107905Y-108273809D01*
X166116580Y-108215047D01*
X166122583Y-108206374D01*
X166167483Y-108202759D01*
X166251592Y-108211973D01*
X166311707Y-108222884D01*
X166421650Y-108239936D01*
X166501510Y-108233764D01*
X166578522Y-108203496D01*
X166663727Y-108163377D01*
X166698602Y-108155241D01*
X166688073Y-108179785D01*
X166658168Y-108214754D01*
X166619489Y-108263804D01*
X166625565Y-108295664D01*
X166661184Y-108326451D01*
X166895040Y-108472161D01*
X167147255Y-108559496D01*
X167174562Y-108565136D01*
X167276548Y-108587713D01*
X167347797Y-108608944D01*
X167371990Y-108623193D01*
X167354066Y-108661077D01*
X167324365Y-108704505D01*
X167290594Y-108780736D01*
X167277750Y-108867224D01*
X167270931Y-108977254D01*
X167257795Y-109068083D01*
X167242663Y-109127733D01*
X167216349Y-109154296D01*
X167159994Y-109156627D01*
X167087700Y-109147937D01*
X166918613Y-109150728D01*
X166769627Y-109200562D01*
X166651172Y-109289724D01*
X166573679Y-109410500D01*
X166547500Y-109547516D01*
X166576657Y-109608984D01*
X166655579Y-109653296D01*
X166771438Y-109674003D01*
X166800545Y-109674750D01*
X166857952Y-109670335D01*
X166880159Y-109645005D01*
X166877931Y-109580627D01*
X166874093Y-109550879D01*
X166870857Y-109477508D01*
X166889595Y-109424399D01*
X166938831Y-109387481D01*
X167027088Y-109362685D01*
X167162888Y-109345940D01*
X167326760Y-109334732D01*
X167476436Y-109325050D01*
X167573550Y-109314686D01*
X167629016Y-109301153D01*
X167653745Y-109281967D01*
X167658750Y-109259090D01*
X167675298Y-109199775D01*
X167692023Y-109181683D01*
X167709987Y-109136875D01*
X167707815Y-109046864D01*
X167704856Y-109024813D01*
X167698555Y-108935547D01*
X167708027Y-108878165D01*
X167714880Y-108869679D01*
X167735611Y-108886777D01*
X167755115Y-108952461D01*
X167764310Y-109010989D01*
X167802616Y-109173395D01*
X167871294Y-109307505D01*
X167961945Y-109398388D01*
X167991345Y-109414617D01*
X168050017Y-109450623D01*
X168071500Y-109480076D01*
X168053444Y-109517474D01*
X168005601Y-109590493D01*
X167937458Y-109684855D01*
X167920687Y-109707058D01*
X167794676Y-109873350D01*
X167702357Y-109998471D01*
X167638512Y-110091432D01*
X167597923Y-110161242D01*
X167575370Y-110216912D01*
X167565635Y-110267454D01*
X167563501Y-110321876D01*
X167563500Y-110323800D01*
X167568116Y-110411782D01*
X167579671Y-110470290D01*
X167584666Y-110479083D01*
X167626345Y-110491380D01*
X167708790Y-110499015D01*
X167762688Y-110500250D01*
X167855096Y-110497485D01*
X167897126Y-110485594D01*
X167901791Y-110459179D01*
X167896669Y-110444687D01*
X167872278Y-110376870D01*
X167866151Y-110319580D01*
X167883462Y-110260349D01*
X167929388Y-110186705D01*
X168009104Y-110086179D01*
X168080583Y-110001582D01*
X168186843Y-109879018D01*
X168289081Y-109764734D01*
X168374109Y-109673280D01*
X168420029Y-109627125D01*
X168510121Y-109535707D01*
X168553617Y-109466079D01*
X168554664Y-109401854D01*
X168517408Y-109326645D01*
X168501982Y-109303304D01*
X168422207Y-109185903D01*
X168593802Y-109032963D01*
X168696980Y-108928759D01*
X168772841Y-108828122D01*
X168801911Y-108769386D01*
X168846102Y-108684321D01*
X168896173Y-108658750D01*
X168967149Y-108631280D01*
X169041857Y-108561060D01*
X169106505Y-108466373D01*
X169147298Y-108365502D01*
X169154514Y-108316332D01*
X169138304Y-108075969D01*
X169071816Y-107868603D01*
X168951421Y-107687650D01*
X168773490Y-107526524D01*
X168686290Y-107466722D01*
X168591600Y-107402141D01*
X168540105Y-107351949D01*
X168519196Y-107300237D01*
X168516000Y-107251887D01*
X168537568Y-107151665D01*
X168603390Y-107014739D01*
X168663578Y-106915320D01*
X168778349Y-106720455D01*
X168847701Y-106561674D01*
X168872537Y-106431635D01*
X168853762Y-106322990D01*
X168792282Y-106228396D01*
X168752913Y-106190187D01*
X168646579Y-106128887D01*
X168540269Y-106131061D01*
X168433810Y-106196722D01*
X168418307Y-106211557D01*
X168356174Y-106282812D01*
X168327804Y-106333675D01*
X168334941Y-106355089D01*
X168379334Y-106337999D01*
X168396064Y-106326925D01*
X168493054Y-106284040D01*
X168582348Y-106286156D01*
X168648166Y-106328595D01*
X168674724Y-106406678D01*
X168674750Y-106409540D01*
X168655195Y-106457071D01*
X168602731Y-106538338D01*
X168526653Y-106639638D01*
X168479839Y-106696878D01*
X168336995Y-106882533D01*
X168228552Y-107057066D01*
X168159620Y-107211015D01*
X168135310Y-107334764D01*
X168160913Y-107457883D01*
X168229650Y-107592866D01*
X168328241Y-107722423D01*
X168443408Y-107829263D01*
X168561872Y-107896095D01*
X168567997Y-107898193D01*
X168658346Y-107946640D01*
X168748572Y-108024061D01*
X168822053Y-108112603D01*
X168862166Y-108194412D01*
X168865250Y-108217442D01*
X168851174Y-108296293D01*
X168817427Y-108366561D01*
X168776725Y-108403528D01*
X168768882Y-108404750D01*
X168741700Y-108379016D01*
X168738250Y-108357124D01*
X168710713Y-108285632D01*
X168637602Y-108204084D01*
X168533161Y-108123723D01*
X168411637Y-108055795D01*
X168306765Y-108016565D01*
X168169604Y-107967505D01*
X168028462Y-107900309D01*
X167958242Y-107858543D01*
X167858810Y-107783241D01*
X167796242Y-107706016D01*
X167749279Y-107599372D01*
X167742304Y-107579250D01*
X167719564Y-107508609D01*
X167705348Y-107446377D01*
X167700393Y-107380801D01*
X167705437Y-107300126D01*
X167721218Y-107192600D01*
X167748474Y-107046467D01*
X167787943Y-106849973D01*
X167788140Y-106849000D01*
X167810249Y-106607706D01*
X167775558Y-106388661D01*
X167685475Y-106196219D01*
X167541405Y-106034735D01*
X167519508Y-106016815D01*
X167427080Y-105933832D01*
X167352187Y-105848893D01*
X167317354Y-105792902D01*
X167287240Y-105729684D01*
X167260614Y-105718061D01*
X167217633Y-105750568D01*
X167213861Y-105753976D01*
X167166294Y-105811601D01*
X167150750Y-105853396D01*
X167124272Y-105887060D01*
X167054281Y-105937349D01*
X166954939Y-105994323D01*
X166936437Y-106003814D01*
X166760901Y-106098340D01*
X166594382Y-106198917D01*
X166445958Y-106298945D01*
X166324705Y-106391825D01*
X166239701Y-106470957D01*
X166200023Y-106529739D01*
X166198250Y-106540555D01*
X166223925Y-106617605D01*
X166285418Y-106685884D01*
X166359424Y-106721060D01*
X166372029Y-106722000D01*
X166435046Y-106736294D01*
X166459738Y-106760339D01*
X166490472Y-106779918D01*
X166570305Y-106789945D01*
X166705234Y-106791005D01*
X166759652Y-106789589D01*
X166895722Y-106786113D01*
X166981386Y-106788007D01*
X167029681Y-106798026D01*
X167053646Y-106818924D01*
X167066321Y-106853457D01*
X167066584Y-106854437D01*
X167083813Y-106943056D01*
X167068279Y-106994712D01*
X167011051Y-107031304D01*
X166990910Y-107039951D01*
X166916402Y-107086141D01*
X166826750Y-107162736D01*
X166768124Y-107223506D01*
X166696270Y-107302218D01*
X166648944Y-107340126D01*
X166609863Y-107345074D01*
X166562744Y-107324909D01*
X166560331Y-107323621D01*
X166495469Y-107277937D01*
X166408433Y-107202819D01*
X166331490Y-107128042D01*
X166250332Y-107050449D01*
X166181787Y-106995662D01*
X166142234Y-106976000D01*
X166041401Y-107001691D01*
X165924754Y-107069992D01*
X165806845Y-107167745D01*
X165702225Y-107281790D01*
X165625446Y-107398969D01*
X165598016Y-107468125D01*
X165567677Y-107611532D01*
X164648680Y-107611532D01*
X164996562Y-107010602D01*
X165394903Y-106322843D01*
X165595924Y-105975875D01*
X165879029Y-105487197D01*
X166131940Y-105050558D01*
X166356384Y-104663101D01*
X166554088Y-104321971D01*
X166726779Y-104024311D01*
X166876182Y-103767266D01*
X167004025Y-103547979D01*
X167112034Y-103363596D01*
X167201937Y-103211259D01*
X167275458Y-103088114D01*
X167334326Y-102991304D01*
X167380267Y-102917973D01*
X167415007Y-102865266D01*
X167440273Y-102830327D01*
X167457791Y-102810299D01*
X167469289Y-102802328D01*
X167476492Y-102803556D01*
G36*
X167524182Y-102223435D02*
X167531604Y-102232017D01*
X167486009Y-102236833D01*
X167452375Y-102237243D01*
X167390888Y-102234117D01*
X167381560Y-102226946D01*
X167397182Y-102222794D01*
X167479911Y-102217682D01*
X167524182Y-102223435D01*
X167524182Y-102223435D01*
G37*
X167524182Y-102223435D02*
X167531604Y-102232017D01*
X167486009Y-102236833D01*
X167452375Y-102237243D01*
X167390888Y-102234117D01*
X167381560Y-102226946D01*
X167397182Y-102222794D01*
X167479911Y-102217682D01*
X167524182Y-102223435D01*
G36*
X170389250Y-113605318D02*
X170369730Y-113686654D01*
X170308381Y-113733653D01*
X170221193Y-113758916D01*
X170115637Y-113770104D01*
X170012140Y-113767634D01*
X169931126Y-113751924D01*
X169893617Y-113725184D01*
X169883882Y-113658336D01*
X169886676Y-113606121D01*
X169896503Y-113568775D01*
X169922052Y-113545911D01*
X169977006Y-113533101D01*
X170075045Y-113525918D01*
X170143187Y-113523101D01*
X170389250Y-113513828D01*
X170389250Y-113605318D01*
X170389250Y-113605318D01*
G37*
X170389250Y-113605318D02*
X170369730Y-113686654D01*
X170308381Y-113733653D01*
X170221193Y-113758916D01*
X170115637Y-113770104D01*
X170012140Y-113767634D01*
X169931126Y-113751924D01*
X169893617Y-113725184D01*
X169883882Y-113658336D01*
X169886676Y-113606121D01*
X169896503Y-113568775D01*
X169922052Y-113545911D01*
X169977006Y-113533101D01*
X170075045Y-113525918D01*
X170143187Y-113523101D01*
X170389250Y-113513828D01*
X170389250Y-113605318D01*
G36*
X171600837Y-113146044D02*
X171667069Y-113179553D01*
X171704504Y-113247684D01*
X171720449Y-113361084D01*
X171722750Y-113463320D01*
X171720486Y-113590094D01*
X171711482Y-113668299D01*
X171692414Y-113712775D01*
X171661337Y-113737632D01*
X171535193Y-113772138D01*
X171407024Y-113751814D01*
X171300065Y-113681450D01*
X171231134Y-113572000D01*
X171210262Y-113450896D01*
X171232231Y-113332471D01*
X171291821Y-113231056D01*
X171383814Y-113160983D01*
X171498502Y-113136509D01*
X171600837Y-113146044D01*
X171600837Y-113146044D01*
G37*
X171600837Y-113146044D02*
X171667069Y-113179553D01*
X171704504Y-113247684D01*
X171720449Y-113361084D01*
X171722750Y-113463320D01*
X171720486Y-113590094D01*
X171711482Y-113668299D01*
X171692414Y-113712775D01*
X171661337Y-113737632D01*
X171535193Y-113772138D01*
X171407024Y-113751814D01*
X171300065Y-113681450D01*
X171231134Y-113572000D01*
X171210262Y-113450896D01*
X171232231Y-113332471D01*
X171291821Y-113231056D01*
X171383814Y-113160983D01*
X171498502Y-113136509D01*
X171600837Y-113146044D01*
D14*
X135952381Y-101809524D02*
X134952381Y-101809524D01*
X134952381Y-101428571D01*
X135000000Y-101333333D01*
X135047619Y-101285714D01*
X135142857Y-101238095D01*
X135285714Y-101238095D01*
X135380952Y-101285714D01*
X135428571Y-101333333D01*
X135476190Y-101428571D01*
X135476190Y-101809524D01*
X135952381Y-100809524D02*
X135285714Y-100809524D01*
X135476190Y-100809524D02*
X135380952Y-100761905D01*
X135333333Y-100714286D01*
X135285714Y-100619048D01*
X135285714Y-100523809D01*
X135952381Y-100047619D02*
X135904762Y-100142857D01*
X135857143Y-100190476D01*
X135761905Y-100238095D01*
X135476190Y-100238095D01*
X135380952Y-100190476D01*
X135333333Y-100142857D01*
X135285714Y-100047619D01*
X135285714Y-99904761D01*
X135333333Y-99809523D01*
X135380952Y-99761904D01*
X135476190Y-99714285D01*
X135761905Y-99714285D01*
X135857143Y-99761904D01*
X135904762Y-99809523D01*
X135952381Y-99904761D01*
X135952381Y-100047619D01*
X135285714Y-98857142D02*
X136095238Y-98857142D01*
X136190476Y-98904761D01*
X136238095Y-98952380D01*
X136285714Y-99047619D01*
X136285714Y-99190476D01*
X136238095Y-99285714D01*
X135904762Y-98857142D02*
X135952381Y-98952380D01*
X135952381Y-99142857D01*
X135904762Y-99238095D01*
X135857143Y-99285714D01*
X135761905Y-99333333D01*
X135476190Y-99333333D01*
X135380952Y-99285714D01*
X135333333Y-99238095D01*
X135285714Y-99142857D01*
X135285714Y-98952380D01*
X135333333Y-98857142D01*
X135952381Y-98380952D02*
X135285714Y-98380952D01*
X135476190Y-98380952D02*
X135380952Y-98333333D01*
X135333333Y-98285714D01*
X135285714Y-98190476D01*
X135285714Y-98095237D01*
X135952381Y-97333332D02*
X135428571Y-97333332D01*
X135333333Y-97380951D01*
X135285714Y-97476189D01*
X135285714Y-97666666D01*
X135333333Y-97761904D01*
X135904762Y-97333332D02*
X135952381Y-97428570D01*
X135952381Y-97666666D01*
X135904762Y-97761904D01*
X135809524Y-97809523D01*
X135714286Y-97809523D01*
X135619048Y-97761904D01*
X135571429Y-97666666D01*
X135571429Y-97428570D01*
X135523810Y-97333332D01*
X135952381Y-96857142D02*
X135285714Y-96857142D01*
X135380952Y-96857142D02*
X135333333Y-96809523D01*
X135285714Y-96714285D01*
X135285714Y-96571427D01*
X135333333Y-96476189D01*
X135428571Y-96428570D01*
X135952381Y-96428570D01*
X135428571Y-96428570D02*
X135333333Y-96380951D01*
X135285714Y-96285713D01*
X135285714Y-96142856D01*
X135333333Y-96047618D01*
X135428571Y-95999999D01*
X135952381Y-95999999D01*
X135952381Y-95523809D02*
X135285714Y-95523809D01*
X135380952Y-95523809D02*
X135333333Y-95476190D01*
X135285714Y-95380952D01*
X135285714Y-95238094D01*
X135333333Y-95142856D01*
X135428571Y-95095237D01*
X135952381Y-95095237D01*
X135428571Y-95095237D02*
X135333333Y-95047618D01*
X135285714Y-94952380D01*
X135285714Y-94809523D01*
X135333333Y-94714285D01*
X135428571Y-94666666D01*
X135952381Y-94666666D01*
X135904762Y-93809523D02*
X135952381Y-93904761D01*
X135952381Y-94095238D01*
X135904762Y-94190476D01*
X135809524Y-94238095D01*
X135428571Y-94238095D01*
X135333333Y-94190476D01*
X135285714Y-94095238D01*
X135285714Y-93904761D01*
X135333333Y-93809523D01*
X135428571Y-93761904D01*
X135523810Y-93761904D01*
X135619048Y-94238095D01*
X135952381Y-93333333D02*
X135285714Y-93333333D01*
X135476190Y-93333333D02*
X135380952Y-93285714D01*
X135333333Y-93238095D01*
X135285714Y-93142857D01*
X135285714Y-93047618D01*
D13*
X144712381Y-99734285D02*
X144712381Y-100305714D01*
X144712381Y-100020000D02*
X143712381Y-100020000D01*
X143855238Y-100115238D01*
X143950476Y-100210476D01*
X143998095Y-100305714D01*
D14*
X144228572Y-111542857D02*
X143657143Y-111542857D01*
X143657143Y-110342857D01*
X144571429Y-111485714D02*
X144742858Y-111542857D01*
X145028572Y-111542857D01*
X145142858Y-111485714D01*
X145200001Y-111428571D01*
X145257144Y-111314286D01*
X145257144Y-111200000D01*
X145200001Y-111085714D01*
X145142858Y-111028571D01*
X145028572Y-110971429D01*
X144800001Y-110914286D01*
X144685715Y-110857143D01*
X144628572Y-110800000D01*
X144571429Y-110685714D01*
X144571429Y-110571429D01*
X144628572Y-110457143D01*
X144685715Y-110400000D01*
X144800001Y-110342857D01*
X145085715Y-110342857D01*
X145257144Y-110400000D01*
X146400001Y-111542857D02*
X145714286Y-111542857D01*
X146057144Y-111542857D02*
X146057144Y-110342857D01*
X145942858Y-110514286D01*
X145828572Y-110628571D01*
X145714286Y-110685714D01*
X139687715Y-113261714D02*
X139859144Y-113318857D01*
X140144858Y-113318857D01*
X140259144Y-113261714D01*
X140316287Y-113204571D01*
X140373430Y-113090286D01*
X140373430Y-112976000D01*
X140316287Y-112861714D01*
X140259144Y-112804571D01*
X140144858Y-112747429D01*
X139916287Y-112690286D01*
X139802001Y-112633143D01*
X139744858Y-112576000D01*
X139687715Y-112461714D01*
X139687715Y-112347429D01*
X139744858Y-112233143D01*
X139802001Y-112176000D01*
X139916287Y-112118857D01*
X140202001Y-112118857D01*
X140373430Y-112176000D01*
X140887715Y-112518857D02*
X140887715Y-113718857D01*
X140887715Y-112576000D02*
X141002001Y-112518857D01*
X141230572Y-112518857D01*
X141344858Y-112576000D01*
X141402001Y-112633143D01*
X141459144Y-112747429D01*
X141459144Y-113090286D01*
X141402001Y-113204571D01*
X141344858Y-113261714D01*
X141230572Y-113318857D01*
X141002001Y-113318857D01*
X140887715Y-113261714D01*
X142430572Y-113261714D02*
X142316286Y-113318857D01*
X142087715Y-113318857D01*
X141973429Y-113261714D01*
X141916286Y-113147429D01*
X141916286Y-112690286D01*
X141973429Y-112576000D01*
X142087715Y-112518857D01*
X142316286Y-112518857D01*
X142430572Y-112576000D01*
X142487715Y-112690286D01*
X142487715Y-112804571D01*
X141916286Y-112918857D01*
X143516286Y-113318857D02*
X143516286Y-112690286D01*
X143459143Y-112576000D01*
X143344857Y-112518857D01*
X143116286Y-112518857D01*
X143002000Y-112576000D01*
X143516286Y-113261714D02*
X143402000Y-113318857D01*
X143116286Y-113318857D01*
X143002000Y-113261714D01*
X142944857Y-113147429D01*
X142944857Y-113033143D01*
X143002000Y-112918857D01*
X143116286Y-112861714D01*
X143402000Y-112861714D01*
X143516286Y-112804571D01*
X144087714Y-113318857D02*
X144087714Y-112118857D01*
X144202000Y-112861714D02*
X144544857Y-113318857D01*
X144544857Y-112518857D02*
X144087714Y-112976000D01*
X145516286Y-113261714D02*
X145402000Y-113318857D01*
X145173429Y-113318857D01*
X145059143Y-113261714D01*
X145002000Y-113147429D01*
X145002000Y-112690286D01*
X145059143Y-112576000D01*
X145173429Y-112518857D01*
X145402000Y-112518857D01*
X145516286Y-112576000D01*
X145573429Y-112690286D01*
X145573429Y-112804571D01*
X145002000Y-112918857D01*
X146087714Y-113318857D02*
X146087714Y-112518857D01*
X146087714Y-112747429D02*
X146144857Y-112633143D01*
X146202000Y-112576000D01*
X146316286Y-112518857D01*
X146430571Y-112518857D01*
X146986667Y-71588381D02*
X146986667Y-72302667D01*
X146939047Y-72445524D01*
X146843809Y-72540762D01*
X146700952Y-72588381D01*
X146605714Y-72588381D01*
X147986667Y-72588381D02*
X147415238Y-72588381D01*
X147700952Y-72588381D02*
X147700952Y-71588381D01*
X147605714Y-71731238D01*
X147510476Y-71826476D01*
X147415238Y-71874095D01*
X139509524Y-72452381D02*
X139033333Y-72452381D01*
X138985714Y-72928571D01*
X139033333Y-72880952D01*
X139128571Y-72833333D01*
X139366667Y-72833333D01*
X139461905Y-72880952D01*
X139509524Y-72928571D01*
X139557143Y-73023810D01*
X139557143Y-73261905D01*
X139509524Y-73357143D01*
X139461905Y-73404762D01*
X139366667Y-73452381D01*
X139128571Y-73452381D01*
X139033333Y-73404762D01*
X138985714Y-73357143D01*
X139842857Y-72452381D02*
X140176190Y-73452381D01*
X140509524Y-72452381D01*
X146986667Y-82256381D02*
X146986667Y-82970667D01*
X146939047Y-83113524D01*
X146843809Y-83208762D01*
X146700952Y-83256381D01*
X146605714Y-83256381D01*
X147415238Y-82351619D02*
X147462857Y-82304000D01*
X147558095Y-82256381D01*
X147796191Y-82256381D01*
X147891429Y-82304000D01*
X147939048Y-82351619D01*
X147986667Y-82446857D01*
X147986667Y-82542095D01*
X147939048Y-82684952D01*
X147367619Y-83256381D01*
X147986667Y-83256381D01*
X137953905Y-82494381D02*
X137953905Y-81494381D01*
X138334858Y-81494381D01*
X138430096Y-81542000D01*
X138477715Y-81589619D01*
X138525334Y-81684857D01*
X138525334Y-81827714D01*
X138477715Y-81922952D01*
X138430096Y-81970571D01*
X138334858Y-82018190D01*
X137953905Y-82018190D01*
X139287239Y-81970571D02*
X139430096Y-82018190D01*
X139477715Y-82065810D01*
X139525334Y-82161048D01*
X139525334Y-82303905D01*
X139477715Y-82399143D01*
X139430096Y-82446762D01*
X139334858Y-82494381D01*
X138953905Y-82494381D01*
X138953905Y-81494381D01*
X139287239Y-81494381D01*
X139382477Y-81542000D01*
X139430096Y-81589619D01*
X139477715Y-81684857D01*
X139477715Y-81780095D01*
X139430096Y-81875333D01*
X139382477Y-81922952D01*
X139287239Y-81970571D01*
X138953905Y-81970571D01*
X140382477Y-81827714D02*
X140382477Y-82494381D01*
X140144381Y-81446762D02*
X139906286Y-82161048D01*
X140525334Y-82161048D01*
X146986667Y-84796381D02*
X146986667Y-85510667D01*
X146939047Y-85653524D01*
X146843809Y-85748762D01*
X146700952Y-85796381D01*
X146605714Y-85796381D01*
X147367619Y-84796381D02*
X147986667Y-84796381D01*
X147653333Y-85177333D01*
X147796191Y-85177333D01*
X147891429Y-85224952D01*
X147939048Y-85272571D01*
X147986667Y-85367810D01*
X147986667Y-85605905D01*
X147939048Y-85701143D01*
X147891429Y-85748762D01*
X147796191Y-85796381D01*
X147510476Y-85796381D01*
X147415238Y-85748762D01*
X147367619Y-85701143D01*
X138430096Y-86114000D02*
X138334858Y-86066381D01*
X138192001Y-86066381D01*
X138049143Y-86114000D01*
X137953905Y-86209238D01*
X137906286Y-86304476D01*
X137858667Y-86494952D01*
X137858667Y-86637810D01*
X137906286Y-86828286D01*
X137953905Y-86923524D01*
X138049143Y-87018762D01*
X138192001Y-87066381D01*
X138287239Y-87066381D01*
X138430096Y-87018762D01*
X138477715Y-86971143D01*
X138477715Y-86637810D01*
X138287239Y-86637810D01*
X138906286Y-87066381D02*
X138906286Y-86066381D01*
X139477715Y-87066381D01*
X139477715Y-86066381D01*
X139953905Y-87066381D02*
X139953905Y-86066381D01*
X140192000Y-86066381D01*
X140334858Y-86114000D01*
X140430096Y-86209238D01*
X140477715Y-86304476D01*
X140525334Y-86494952D01*
X140525334Y-86637810D01*
X140477715Y-86828286D01*
X140430096Y-86923524D01*
X140334858Y-87018762D01*
X140192000Y-87066381D01*
X139953905Y-87066381D01*
X146986667Y-76160381D02*
X146986667Y-76874667D01*
X146939047Y-77017524D01*
X146843809Y-77112762D01*
X146700952Y-77160381D01*
X146605714Y-77160381D01*
X147891429Y-76493714D02*
X147891429Y-77160381D01*
X147653333Y-76112762D02*
X147415238Y-76827048D01*
X148034286Y-76827048D01*
X137953905Y-78176381D02*
X137953905Y-77176381D01*
X138334858Y-77176381D01*
X138430096Y-77224000D01*
X138477715Y-77271619D01*
X138525334Y-77366857D01*
X138525334Y-77509714D01*
X138477715Y-77604952D01*
X138430096Y-77652571D01*
X138334858Y-77700190D01*
X137953905Y-77700190D01*
X139287239Y-77652571D02*
X139430096Y-77700190D01*
X139477715Y-77747810D01*
X139525334Y-77843048D01*
X139525334Y-77985905D01*
X139477715Y-78081143D01*
X139430096Y-78128762D01*
X139334858Y-78176381D01*
X138953905Y-78176381D01*
X138953905Y-77176381D01*
X139287239Y-77176381D01*
X139382477Y-77224000D01*
X139430096Y-77271619D01*
X139477715Y-77366857D01*
X139477715Y-77462095D01*
X139430096Y-77557333D01*
X139382477Y-77604952D01*
X139287239Y-77652571D01*
X138953905Y-77652571D01*
X139906286Y-77271619D02*
X139953905Y-77224000D01*
X140049143Y-77176381D01*
X140287239Y-77176381D01*
X140382477Y-77224000D01*
X140430096Y-77271619D01*
X140477715Y-77366857D01*
X140477715Y-77462095D01*
X140430096Y-77604952D01*
X139858667Y-78176381D01*
X140477715Y-78176381D01*
X135636095Y-74382381D02*
X135636095Y-75191905D01*
X135683714Y-75287143D01*
X135731333Y-75334762D01*
X135826571Y-75382381D01*
X136017048Y-75382381D01*
X136112286Y-75334762D01*
X136159905Y-75287143D01*
X136207524Y-75191905D01*
X136207524Y-74382381D01*
X137207524Y-75382381D02*
X136636095Y-75382381D01*
X136921809Y-75382381D02*
X136921809Y-74382381D01*
X136826571Y-74525238D01*
X136731333Y-74620476D01*
X136636095Y-74668095D01*
X134580381Y-91542667D02*
X134580381Y-90971238D01*
X135580381Y-91256953D02*
X134580381Y-91256953D01*
X135532762Y-90685524D02*
X135580381Y-90542667D01*
X135580381Y-90304571D01*
X135532762Y-90209333D01*
X135485143Y-90161714D01*
X135389905Y-90114095D01*
X135294667Y-90114095D01*
X135199429Y-90161714D01*
X135151810Y-90209333D01*
X135104190Y-90304571D01*
X135056571Y-90495048D01*
X135008952Y-90590286D01*
X134961333Y-90637905D01*
X134866095Y-90685524D01*
X134770857Y-90685524D01*
X134675619Y-90637905D01*
X134628000Y-90590286D01*
X134580381Y-90495048D01*
X134580381Y-90256952D01*
X134628000Y-90114095D01*
X134580381Y-89495048D02*
X134580381Y-89304571D01*
X134628000Y-89209333D01*
X134723238Y-89114095D01*
X134913714Y-89066476D01*
X135247048Y-89066476D01*
X135437524Y-89114095D01*
X135532762Y-89209333D01*
X135580381Y-89304571D01*
X135580381Y-89495048D01*
X135532762Y-89590286D01*
X135437524Y-89685524D01*
X135247048Y-89733143D01*
X134913714Y-89733143D01*
X134723238Y-89685524D01*
X134628000Y-89590286D01*
X134580381Y-89495048D01*
X135580381Y-88637905D02*
X134580381Y-88637905D01*
X134580381Y-88256952D01*
X134628000Y-88161714D01*
X134675619Y-88114095D01*
X134770857Y-88066476D01*
X134913714Y-88066476D01*
X135008952Y-88114095D01*
X135056571Y-88161714D01*
X135104190Y-88256952D01*
X135104190Y-88637905D01*
X134580381Y-87733143D02*
X134580381Y-87114095D01*
X134961333Y-87447429D01*
X134961333Y-87304571D01*
X135008952Y-87209333D01*
X135056571Y-87161714D01*
X135151810Y-87114095D01*
X135389905Y-87114095D01*
X135485143Y-87161714D01*
X135532762Y-87209333D01*
X135580381Y-87304571D01*
X135580381Y-87590286D01*
X135532762Y-87685524D01*
X135485143Y-87733143D01*
X135008952Y-86542667D02*
X134961333Y-86637905D01*
X134913714Y-86685524D01*
X134818476Y-86733143D01*
X134770857Y-86733143D01*
X134675619Y-86685524D01*
X134628000Y-86637905D01*
X134580381Y-86542667D01*
X134580381Y-86352190D01*
X134628000Y-86256952D01*
X134675619Y-86209333D01*
X134770857Y-86161714D01*
X134818476Y-86161714D01*
X134913714Y-86209333D01*
X134961333Y-86256952D01*
X135008952Y-86352190D01*
X135008952Y-86542667D01*
X135056571Y-86637905D01*
X135104190Y-86685524D01*
X135199429Y-86733143D01*
X135389905Y-86733143D01*
X135485143Y-86685524D01*
X135532762Y-86637905D01*
X135580381Y-86542667D01*
X135580381Y-86352190D01*
X135532762Y-86256952D01*
X135485143Y-86209333D01*
X135389905Y-86161714D01*
X135199429Y-86161714D01*
X135104190Y-86209333D01*
X135056571Y-86256952D01*
X135008952Y-86352190D01*
X134580381Y-85828381D02*
X134580381Y-85209333D01*
X134961333Y-85542667D01*
X134961333Y-85399809D01*
X135008952Y-85304571D01*
X135056571Y-85256952D01*
X135151810Y-85209333D01*
X135389905Y-85209333D01*
X135485143Y-85256952D01*
X135532762Y-85304571D01*
X135580381Y-85399809D01*
X135580381Y-85685524D01*
X135532762Y-85780762D01*
X135485143Y-85828381D01*
X134580381Y-84876000D02*
X134580381Y-84256952D01*
X134961333Y-84590286D01*
X134961333Y-84447428D01*
X135008952Y-84352190D01*
X135056571Y-84304571D01*
X135151810Y-84256952D01*
X135389905Y-84256952D01*
X135485143Y-84304571D01*
X135532762Y-84352190D01*
X135580381Y-84447428D01*
X135580381Y-84733143D01*
X135532762Y-84828381D01*
X135485143Y-84876000D01*
X135008952Y-83685524D02*
X134961333Y-83780762D01*
X134913714Y-83828381D01*
X134818476Y-83876000D01*
X134770857Y-83876000D01*
X134675619Y-83828381D01*
X134628000Y-83780762D01*
X134580381Y-83685524D01*
X134580381Y-83495047D01*
X134628000Y-83399809D01*
X134675619Y-83352190D01*
X134770857Y-83304571D01*
X134818476Y-83304571D01*
X134913714Y-83352190D01*
X134961333Y-83399809D01*
X135008952Y-83495047D01*
X135008952Y-83685524D01*
X135056571Y-83780762D01*
X135104190Y-83828381D01*
X135199429Y-83876000D01*
X135389905Y-83876000D01*
X135485143Y-83828381D01*
X135532762Y-83780762D01*
X135580381Y-83685524D01*
X135580381Y-83495047D01*
X135532762Y-83399809D01*
X135485143Y-83352190D01*
X135389905Y-83304571D01*
X135199429Y-83304571D01*
X135104190Y-83352190D01*
X135056571Y-83399809D01*
X135008952Y-83495047D01*
X152548095Y-90522381D02*
X152548095Y-91331905D01*
X152595714Y-91427143D01*
X152643333Y-91474762D01*
X152738571Y-91522381D01*
X152929048Y-91522381D01*
X153024286Y-91474762D01*
X153071905Y-91427143D01*
X153119524Y-91331905D01*
X153119524Y-90522381D01*
X153548095Y-90617619D02*
X153595714Y-90570000D01*
X153690952Y-90522381D01*
X153929048Y-90522381D01*
X154024286Y-90570000D01*
X154071905Y-90617619D01*
X154119524Y-90712857D01*
X154119524Y-90808095D01*
X154071905Y-90950952D01*
X153500476Y-91522381D01*
X154119524Y-91522381D01*
X153582667Y-100678857D02*
X153582667Y-100202666D01*
X153868381Y-100774095D02*
X152868381Y-100440762D01*
X153868381Y-100107428D01*
X152868381Y-99916952D02*
X152868381Y-99345523D01*
X153868381Y-99631238D02*
X152868381Y-99631238D01*
X152868381Y-99155047D02*
X152868381Y-98583618D01*
X153868381Y-98869333D02*
X152868381Y-98869333D01*
X153868381Y-98250285D02*
X152868381Y-98250285D01*
X153868381Y-97774095D02*
X152868381Y-97774095D01*
X153868381Y-97202666D01*
X152868381Y-97202666D01*
X153392190Y-96536000D02*
X153868381Y-96536000D01*
X152868381Y-96869333D02*
X153392190Y-96536000D01*
X152868381Y-96202666D01*
X153296952Y-95726476D02*
X153249333Y-95821714D01*
X153201714Y-95869333D01*
X153106476Y-95916952D01*
X153058857Y-95916952D01*
X152963619Y-95869333D01*
X152916000Y-95821714D01*
X152868381Y-95726476D01*
X152868381Y-95535999D01*
X152916000Y-95440761D01*
X152963619Y-95393142D01*
X153058857Y-95345523D01*
X153106476Y-95345523D01*
X153201714Y-95393142D01*
X153249333Y-95440761D01*
X153296952Y-95535999D01*
X153296952Y-95726476D01*
X153344571Y-95821714D01*
X153392190Y-95869333D01*
X153487429Y-95916952D01*
X153677905Y-95916952D01*
X153773143Y-95869333D01*
X153820762Y-95821714D01*
X153868381Y-95726476D01*
X153868381Y-95535999D01*
X153820762Y-95440761D01*
X153773143Y-95393142D01*
X153677905Y-95345523D01*
X153487429Y-95345523D01*
X153392190Y-95393142D01*
X153344571Y-95440761D01*
X153296952Y-95535999D01*
X152868381Y-94440761D02*
X152868381Y-94916952D01*
X153344571Y-94964571D01*
X153296952Y-94916952D01*
X153249333Y-94821714D01*
X153249333Y-94583618D01*
X153296952Y-94488380D01*
X153344571Y-94440761D01*
X153439810Y-94393142D01*
X153677905Y-94393142D01*
X153773143Y-94440761D01*
X153820762Y-94488380D01*
X153868381Y-94583618D01*
X153868381Y-94821714D01*
X153820762Y-94916952D01*
X153773143Y-94964571D01*
X152931905Y-72080381D02*
X152931905Y-71080381D01*
X153170000Y-71080381D01*
X153312858Y-71128000D01*
X153408096Y-71223238D01*
X153455715Y-71318476D01*
X153503334Y-71508952D01*
X153503334Y-71651810D01*
X153455715Y-71842286D01*
X153408096Y-71937524D01*
X153312858Y-72032762D01*
X153170000Y-72080381D01*
X152931905Y-72080381D01*
X154455715Y-72080381D02*
X153884286Y-72080381D01*
X154170000Y-72080381D02*
X154170000Y-71080381D01*
X154074762Y-71223238D01*
X153979524Y-71318476D01*
X153884286Y-71366095D01*
X151437143Y-74452381D02*
X150865714Y-74452381D01*
X151151428Y-74452381D02*
X151151428Y-73452381D01*
X151056190Y-73595238D01*
X150960952Y-73690476D01*
X150865714Y-73738095D01*
X151865714Y-74452381D02*
X151865714Y-73452381D01*
X152437143Y-74452381D01*
X152437143Y-73452381D01*
X153341905Y-73785714D02*
X153341905Y-74452381D01*
X153103809Y-73404762D02*
X152865714Y-74119048D01*
X153484762Y-74119048D01*
X154056190Y-73452381D02*
X154151429Y-73452381D01*
X154246667Y-73500000D01*
X154294286Y-73547619D01*
X154341905Y-73642857D01*
X154389524Y-73833333D01*
X154389524Y-74071429D01*
X154341905Y-74261905D01*
X154294286Y-74357143D01*
X154246667Y-74404762D01*
X154151429Y-74452381D01*
X154056190Y-74452381D01*
X153960952Y-74404762D01*
X153913333Y-74357143D01*
X153865714Y-74261905D01*
X153818095Y-74071429D01*
X153818095Y-73833333D01*
X153865714Y-73642857D01*
X153913333Y-73547619D01*
X153960952Y-73500000D01*
X154056190Y-73452381D01*
X155008571Y-73452381D02*
X155103810Y-73452381D01*
X155199048Y-73500000D01*
X155246667Y-73547619D01*
X155294286Y-73642857D01*
X155341905Y-73833333D01*
X155341905Y-74071429D01*
X155294286Y-74261905D01*
X155246667Y-74357143D01*
X155199048Y-74404762D01*
X155103810Y-74452381D01*
X155008571Y-74452381D01*
X154913333Y-74404762D01*
X154865714Y-74357143D01*
X154818095Y-74261905D01*
X154770476Y-74071429D01*
X154770476Y-73833333D01*
X154818095Y-73642857D01*
X154865714Y-73547619D01*
X154913333Y-73500000D01*
X155008571Y-73452381D01*
X156294286Y-74452381D02*
X155722857Y-74452381D01*
X156008571Y-74452381D02*
X156008571Y-73452381D01*
X155913333Y-73595238D01*
X155818095Y-73690476D01*
X155722857Y-73738095D01*
X153503334Y-78684381D02*
X153170000Y-78208190D01*
X152931905Y-78684381D02*
X152931905Y-77684381D01*
X153312858Y-77684381D01*
X153408096Y-77732000D01*
X153455715Y-77779619D01*
X153503334Y-77874857D01*
X153503334Y-78017714D01*
X153455715Y-78112952D01*
X153408096Y-78160571D01*
X153312858Y-78208190D01*
X152931905Y-78208190D01*
X154455715Y-78684381D02*
X153884286Y-78684381D01*
X154170000Y-78684381D02*
X154170000Y-77684381D01*
X154074762Y-77827238D01*
X153979524Y-77922476D01*
X153884286Y-77970095D01*
X152984762Y-80952381D02*
X152413333Y-80952381D01*
X152699047Y-80952381D02*
X152699047Y-79952381D01*
X152603809Y-80095238D01*
X152508571Y-80190476D01*
X152413333Y-80238095D01*
X153603809Y-79952381D02*
X153699048Y-79952381D01*
X153794286Y-80000000D01*
X153841905Y-80047619D01*
X153889524Y-80142857D01*
X153937143Y-80333333D01*
X153937143Y-80571429D01*
X153889524Y-80761905D01*
X153841905Y-80857143D01*
X153794286Y-80904762D01*
X153699048Y-80952381D01*
X153603809Y-80952381D01*
X153508571Y-80904762D01*
X153460952Y-80857143D01*
X153413333Y-80761905D01*
X153365714Y-80571429D01*
X153365714Y-80333333D01*
X153413333Y-80142857D01*
X153460952Y-80047619D01*
X153508571Y-80000000D01*
X153603809Y-79952381D01*
X154365714Y-80952381D02*
X154365714Y-79952381D01*
X154460952Y-80571429D02*
X154746667Y-80952381D01*
X154746667Y-80285714D02*
X154365714Y-80666667D01*
X153503334Y-85288381D02*
X153170000Y-84812190D01*
X152931905Y-85288381D02*
X152931905Y-84288381D01*
X153312858Y-84288381D01*
X153408096Y-84336000D01*
X153455715Y-84383619D01*
X153503334Y-84478857D01*
X153503334Y-84621714D01*
X153455715Y-84716952D01*
X153408096Y-84764571D01*
X153312858Y-84812190D01*
X152931905Y-84812190D01*
X153884286Y-84383619D02*
X153931905Y-84336000D01*
X154027143Y-84288381D01*
X154265239Y-84288381D01*
X154360477Y-84336000D01*
X154408096Y-84383619D01*
X154455715Y-84478857D01*
X154455715Y-84574095D01*
X154408096Y-84716952D01*
X153836667Y-85288381D01*
X154455715Y-85288381D01*
X153008571Y-86880952D02*
X152913333Y-86833333D01*
X152865714Y-86785714D01*
X152818095Y-86690476D01*
X152818095Y-86642857D01*
X152865714Y-86547619D01*
X152913333Y-86500000D01*
X153008571Y-86452381D01*
X153199048Y-86452381D01*
X153294286Y-86500000D01*
X153341905Y-86547619D01*
X153389524Y-86642857D01*
X153389524Y-86690476D01*
X153341905Y-86785714D01*
X153294286Y-86833333D01*
X153199048Y-86880952D01*
X153008571Y-86880952D01*
X152913333Y-86928571D01*
X152865714Y-86976190D01*
X152818095Y-87071429D01*
X152818095Y-87261905D01*
X152865714Y-87357143D01*
X152913333Y-87404762D01*
X153008571Y-87452381D01*
X153199048Y-87452381D01*
X153294286Y-87404762D01*
X153341905Y-87357143D01*
X153389524Y-87261905D01*
X153389524Y-87071429D01*
X153341905Y-86976190D01*
X153294286Y-86928571D01*
X153199048Y-86880952D01*
X153770476Y-86547619D02*
X153818095Y-86500000D01*
X153913333Y-86452381D01*
X154151429Y-86452381D01*
X154246667Y-86500000D01*
X154294286Y-86547619D01*
X154341905Y-86642857D01*
X154341905Y-86738095D01*
X154294286Y-86880952D01*
X153722857Y-87452381D01*
X154341905Y-87452381D01*
X156166667Y-68904762D02*
X156309524Y-68952381D01*
X156547620Y-68952381D01*
X156642858Y-68904762D01*
X156690477Y-68857143D01*
X156738096Y-68761905D01*
X156738096Y-68666667D01*
X156690477Y-68571429D01*
X156642858Y-68523810D01*
X156547620Y-68476190D01*
X156357143Y-68428571D01*
X156261905Y-68380952D01*
X156214286Y-68333333D01*
X156166667Y-68238095D01*
X156166667Y-68142857D01*
X156214286Y-68047619D01*
X156261905Y-68000000D01*
X156357143Y-67952381D01*
X156595239Y-67952381D01*
X156738096Y-68000000D01*
X157071429Y-67952381D02*
X157309524Y-68952381D01*
X157500001Y-68238095D01*
X157690477Y-68952381D01*
X157928572Y-67952381D01*
X158833334Y-68952381D02*
X158261905Y-68952381D01*
X158547619Y-68952381D02*
X158547619Y-67952381D01*
X158452381Y-68095238D01*
X158357143Y-68190476D01*
X158261905Y-68238095D01*
X162285714Y-71404762D02*
X162428571Y-71452381D01*
X162666667Y-71452381D01*
X162761905Y-71404762D01*
X162809524Y-71357143D01*
X162857143Y-71261905D01*
X162857143Y-71166667D01*
X162809524Y-71071429D01*
X162761905Y-71023810D01*
X162666667Y-70976190D01*
X162476190Y-70928571D01*
X162380952Y-70880952D01*
X162333333Y-70833333D01*
X162285714Y-70738095D01*
X162285714Y-70642857D01*
X162333333Y-70547619D01*
X162380952Y-70500000D01*
X162476190Y-70452381D01*
X162714286Y-70452381D01*
X162857143Y-70500000D01*
X163190476Y-70785714D02*
X163380952Y-71452381D01*
X163571429Y-70976190D01*
X163761905Y-71452381D01*
X163952381Y-70785714D01*
X164333333Y-71452381D02*
X164333333Y-70785714D01*
X164333333Y-70452381D02*
X164285714Y-70500000D01*
X164333333Y-70547619D01*
X164380952Y-70500000D01*
X164333333Y-70452381D01*
X164333333Y-70547619D01*
X164666666Y-70785714D02*
X165047618Y-70785714D01*
X164809523Y-70452381D02*
X164809523Y-71309524D01*
X164857142Y-71404762D01*
X164952380Y-71452381D01*
X165047618Y-71452381D01*
X165809524Y-71404762D02*
X165714286Y-71452381D01*
X165523809Y-71452381D01*
X165428571Y-71404762D01*
X165380952Y-71357143D01*
X165333333Y-71261905D01*
X165333333Y-70976190D01*
X165380952Y-70880952D01*
X165428571Y-70833333D01*
X165523809Y-70785714D01*
X165714286Y-70785714D01*
X165809524Y-70833333D01*
X166238095Y-71452381D02*
X166238095Y-70452381D01*
X166666667Y-71452381D02*
X166666667Y-70928571D01*
X166619048Y-70833333D01*
X166523810Y-70785714D01*
X166380952Y-70785714D01*
X166285714Y-70833333D01*
X166238095Y-70880952D01*
M02*
